{
.appVersion = "3133";
copyright = "Copyright 2011 The Londrina Solid Authors (https://github.com/marcelommp/Londrina-Typeface), with Reserved Font Name \"Londrina Solid\"";
customParameters = (
{
name = panose;
value = (
0,
0,
5,
0,
0,
0,
0,
0,
0,
0
);
},
{
name = codePageRanges;
value = (
);
},
{
name = blueScale;
value = 0.037;
},
{
name = glyphOrder;
value = (
.notdef,
A,
Aacute,
Acircumflex,
Adieresis,
Agrave,
Aring,
Atilde,
AE,
B,
C,
Ccedilla,
D,
Eth,
E,
Eacute,
Ecircumflex,
Edieresis,
Egrave,
F,
G,
H,
I,
Iacute,
Icircumflex,
Idieresis,
Igrave,
J,
K,
L,
M,
N,
Ntilde,
O,
Oacute,
Ocircumflex,
Odieresis,
Ograve,
Oslash,
Otilde,
OE,
P,
Thorn,
Q,
R,
S,
Scaron,
T,
U,
Uacute,
Ucircumflex,
Udieresis,
Ugrave,
V,
W,
X,
Y,
Yacute,
Ydieresis,
Z,
Zcaron,
a,
aacute,
acircumflex,
adieresis,
agrave,
aring,
atilde,
ae,
b,
c,
ccedilla,
d,
eth,
e,
eacute,
ecircumflex,
edieresis,
egrave,
f,
g,
h,
i,
iacute,
icircumflex,
idieresis,
igrave,
ij,
j,
k,
l,
m,
n,
ntilde,
o,
oacute,
ocircumflex,
odieresis,
ograve,
oslash,
otilde,
oe,
p,
thorn,
q,
r,
s,
scaron,
germandbls,
t,
u,
uacute,
ucircumflex,
udieresis,
ugrave,
v,
w,
x,
y,
yacute,
ydieresis,
z,
zcaron,
f_f,
f_f_i,
f_f_l,
fi,
fl,
ordfeminine,
ordmasculine,
zero,
one,
two,
three,
four,
five,
six,
seven,
eight,
nine,
uni00B9,
uni00B2,
uni00B3,
onehalf,
onequarter,
threequarters,
oneeighth,
threeeighths,
fiveeighths,
seveneighths,
asterisk,
backslash,
periodcentered,
bullet,
colon,
comma,
ellipsis,
exclam,
exclamdown,
numbersign,
period,
question,
questiondown,
quotedbl,
quotesingle,
semicolon,
slash,
underscore,
braceleft,
braceright,
bracketleft,
bracketright,
parenleft,
parenright,
emdash,
endash,
hyphen,
uni00AD,
guillemotleft,
guillemotright,
guilsinglleft,
guilsinglright,
quotedblbase,
quotedblleft,
quotedblright,
quoteleft,
quoteright,
quotesinglbase,
space,
uni00A0,
CR,
Euro,
cent,
currency,
dollar,
florin,
sterling,
yen,
plus,
multiply,
divide,
equal,
greater,
less,
plusminus,
asciitilde,
logicalnot,
uni00B5,
percent,

glyphs = (
{
color = 5;
glyphname = .notdef;
lastChange = "2022-10-20 18:02:40 +0000";
layers = (
{
layerId = "9B0E9E80-6738-4704-8EC6-A4FB4E6479F4";
paths = (
{
closed = 1;
nodes = (
"431 -182 LINE",
"430 823 LINE",
"50 825 LINE",
"50 -193 LINE"
);
},
{
closed = 1;
nodes = (
"234 266 LINE",
"330 -125 LINE",
"131 -126 LINE"
);
},
{
closed = 1;
nodes = (
"105 766 LINE",
"185 302 LINE",
"101 -124 LINE"
);
},
{
closed = 1;
nodes = (
"286 302 LINE",
"384 759 LINE",
"381 -115 LINE"
);
},
{
closed = 1;
nodes = (
"138 764 LINE",
"325 762 LINE",
"237 337 LINE"
);
}
);
width = 481;
},
{
layerId = "BB6A108D-08DB-4BF5-B99B-807E42D41E71";
paths = (
{
closed = 1;
nodes = (
"431 -182 LINE",
"430 823 LINE",
"50 825 LINE",
"50 -193 LINE"
);
},
{
closed = 1;
nodes = (
"234 266 LINE",
"330 -125 LINE",
"131 -126 LINE"
);
},
{
closed = 1;
nodes = (
"105 766 LINE",
"185 302 LINE",
"101 -124 LINE"
);
},
{
closed = 1;
nodes = (
"286 302 LINE",
"384 759 LINE",
"381 -115 LINE"
);
},
{
closed = 1;
nodes = (
"138 764 LINE",
"325 762 LINE",
"237 337 LINE"
);
}
);
width = 481;
},
{
layerId = "B033F76F-1B86-4758-A592-6C7B1BE8F750";
paths = (
{
closed = 1;
nodes = (
"431 -182 LINE",
"430 823 LINE",
"50 825 LINE",
"50 -193 LINE"
);
},
{
closed = 1;
nodes = (
"234 266 LINE",
"330 -125 LINE",
"131 -126 LINE"
);
},
{
closed = 1;
nodes = (
"105 766 LINE",
"185 302 LINE",
"101 -124 LINE"
);
},
{
closed = 1;
nodes = (
"286 302 LINE",
"384 759 LINE",
"381 -115 LINE"
);
},
{
closed = 1;
nodes = (
"138 764 LINE",
"325 762 LINE",
"237 337 LINE"
);
}
);
width = 481;
},
{
layerId = "DF1E66B1-3A9E-4773-904B-B575E660C115";
paths = (
{
closed = 1;
nodes = (
"431 -182 LINE",
"430 823 LINE",
"50 825 LINE",
"50 -193 LINE"
);
},
{
closed = 1;
nodes = (
"234 266 LINE",
"330 -125 LINE",
"131 -126 LINE"
);
},
{
closed = 1;
nodes = (
"105 766 LINE",
"185 302 LINE",
"101 -124 LINE"
);
},
{
closed = 1;
nodes = (
"286 302 LINE",
"384 759 LINE",
"381 -115 LINE"
);
},
{
closed = 1;
nodes = (
"138 764 LINE",
"325 762 LINE",
"237 337 LINE"
);
}
);
width = 481;
}
);
note = ".notdef";
userData = {
KernOnSpecialSpacing = {
L = NoKerning;
R = NoKerning;
};
};
},
{
color = 5;
glyphname = A;
lastChange = "2022-10-21 19:09:25 +0000";
layers = (
{
anchors = (
{
name = bottom;
position = "{222, 0}";
},
{
name = ogonek;
position = "{400, 10}";
},
{
name = top;
position = "{225, 747}";
}
);
hints = (
{
horizontal = 1;
place = "{-5.23, 710.23}";
type = Stem;
},
{
place = "{225.37, 34.63}";
type = Stem;
}
);
layerId = "9B0E9E80-6738-4704-8EC6-A4FB4E6479F4";
paths = (
{
closed = 1;
nodes = (
"415 -3 OFFCURVE",
"426 -2 OFFCURVE",
"437 0 CURVE",
"447 1 LINE",
"372 351 LINE",
"290 705 LINE",
"238 700 OFFCURVE",
"208 700 OFFCURVE",
"188 701 CURVE SMOOTH",
"174 701 OFFCURVE",
"165 701 OFFCURVE",
"157 700 CURVE",
"136 632 OFFCURVE",
"118 563 OFFCURVE",
"102 495 CURVE SMOOTH",
"85 425 OFFCURVE",
"70 357 OFFCURVE",
"58 295 CURVE SMOOTH",
"43 220 OFFCURVE",
"31 154 OFFCURVE",
"22 104 CURVE SMOOTH",
"6 11 OFFCURVE",
"3 1 OFFCURVE",
"6 1 CURVE SMOOTH",
"57 2 OFFCURVE",
"91 0 OFFCURVE",
"114 -1 CURVE SMOOTH",
"131 -1 OFFCURVE",
"141 -1 OFFCURVE",
"146 0 CURVE SMOOTH",
"147 0 OFFCURVE",
"148 1 OFFCURVE",
"149 1 CURVE",
"161 24 OFFCURVE",
"168 57 OFFCURVE",
"174 89 CURVE SMOOTH",
"179 119 OFFCURVE",
"184 148 OFFCURVE",
"193 168 CURVE",
"211 168 OFFCURVE",
"218 170 OFFCURVE",
"228 170 CURVE SMOOTH",
"234 170 OFFCURVE",
"242 169 OFFCURVE",
"255 167 CURVE",
"264 148 OFFCURVE",
"271 120 OFFCURVE",
"278 91 CURVE SMOOTH",
"286 59 OFFCURVE",
"294 26 OFFCURVE",
"302 4 CURVE",
"303 4 LINE SMOOTH",
"335 4 OFFCURVE",
"370 -3 OFFCURVE",
"403 -3 CURVE SMOOTH"
);
},
{
closed = 1;
nodes = (
"193 334 OFFCURVE",
"198 378 OFFCURVE",
"203 414 CURVE SMOOTH",
"207 442 OFFCURVE",
"210 465 OFFCURVE",
"214 479 CURVE SMOOTH",
"217 490 OFFCURVE",
"220 496 OFFCURVE",
"223 496 CURVE SMOOTH",
"225 496 OFFCURVE",
"227 492 OFFCURVE",
"230 484 CURVE SMOOTH",
"233 475 OFFCURVE",
"236 461 OFFCURVE",
"239 441 CURVE SMOOTH",
"245 407 OFFCURVE",
"252 357 OFFCURVE",
"260 286 CURVE",
"235 286 OFFCURVE",
"209 285 OFFCURVE",
"186 286 CURVE"
);
}
);
width = 444;
},
{
anchors = (
{
name = bottom;
position = "{236, 0}";
},
{
name = ogonek;
position = "{425, 10}";
},
{
name = top;
position = "{244, 741}";
}
);
hints = (
{
horizontal = 1;
place = "{10, 725}";
type = Stem;
},
{
place = "{240, 50}";
type = Stem;
}
);
layerId = "BB6A108D-08DB-4BF5-B99B-807E42D41E71";
paths = (
{
closed = 1;
nodes = (
"432 -2 OFFCURVE",
"446 0 OFFCURVE",
"456 1 CURVE SMOOTH",
"481 4 LINE",
"405 358 LINE",
"321 718 LINE",
"258 711 OFFCURVE",
"226 711 OFFCURVE",
"203 712 CURVE SMOOTH",
"184 712 OFFCURVE",
"176 711 OFFCURVE",
"170 711 CURVE SMOOTH",
"155 710 LINE",
"135 646 OFFCURVE",
"117 577 OFFCURVE",
"99 502 CURVE SMOOTH",
"82 429 OFFCURVE",
"67 361 OFFCURVE",
"55 302 CURVE SMOOTH",
"40 225 OFFCURVE",
"28 159 OFFCURVE",
"19 111 CURVE SMOOTH",
"16 89 OFFCURVE",
"13 73 OFFCURVE",
"8 49 CURVE SMOOTH",
"5 33 OFFCURVE",
"2 21 OFFCURVE",
"2 14 CURVE SMOOTH",
"2 5 OFFCURVE",
"6 2 OFFCURVE",
"21 2 CURVE SMOOTH",
"71 3 OFFCURVE",
"104 1 OFFCURVE",
"129 0 CURVE",
"150 0 OFFCURVE",
"163 -1 OFFCURVE",
"180 5 CURVE",
"191 26 OFFCURVE",
"199 51 OFFCURVE",
"207 94 CURVE SMOOTH",
"214 136 OFFCURVE",
"218 157 OFFCURVE",
"223 169 CURVE",
"225 170 OFFCURVE",
"239 171 OFFCURVE",
"243 171 CURVE SMOOTH",
"245 171 OFFCURVE",
"249 171 OFFCURVE",
"254 170 CURVE",
"259 159 OFFCURVE",
"265 138 OFFCURVE",
"276 96 CURVE SMOOTH",
"283 67 OFFCURVE",
"291 31 OFFCURVE",
"300 5 CURVE",
"330 2 OFFCURVE",
"342 4 OFFCURVE",
"365 2 CURVE SMOOTH",
"382 1 OFFCURVE",
"400 -2 OFFCURVE",
"418 -2 CURVE SMOOTH"
);
},
{
closed = 1;
nodes = (
"226 372 LINE SMOOTH",
"227 389 OFFCURVE",
"230 428 OFFCURVE",
"234 463 CURVE SMOOTH",
"235 472 OFFCURVE",
"237 492 OFFCURVE",
"238 497 CURVE",
"244 464 OFFCURVE",
"250 354 OFFCURVE",
"256 297 CURVE",
"249 297 LINE SMOOTH",
"239 297 OFFCURVE",
"229 297 OFFCURVE",
"220 297 CURVE"
);
}
);
width = 472;
},
{
anchors = (
{
name = bottom;
position = "{217, 0}";
},
{
name = ogonek;
position = "{391, 18}";
},
{
name = top;
position = "{215, 762}";
}
);
layerId = "B033F76F-1B86-4758-A592-6C7B1BE8F750";
paths = (
{
closed = 1;
nodes = (
"406 -4 OFFCURVE",
"421 -3 OFFCURVE",
"437 0 CURVE",
"437 1 LINE",
"390 220 OFFCURVE",
"335 464 OFFCURVE",
"280 705 CURVE",
"238 701 OFFCURVE",
"214 701 OFFCURVE",
"199 701 CURVE SMOOTH",
"190 701 OFFCURVE",
"183 701 OFFCURVE",
"177 701 CURVE SMOOTH",
"172 701 OFFCURVE",
"167 701 OFFCURVE",
"161 700 CURVE",
"116 571 OFFCURVE",
"83 434 OFFCURVE",
"59 316 CURVE SMOOTH",
"24 148 OFFCURVE",
"9 18 OFFCURVE",
"4 2 CURVE",
"15 1 LINE SMOOTH",
"36 -1 OFFCURVE",
"52 -1 OFFCURVE",
"64 -1 CURVE SMOOTH",
"81 -1 OFFCURVE",
"91 0 OFFCURVE",
"96 1 CURVE SMOOTH",
"116 5 OFFCURVE",
"131 143 OFFCURVE",
"138 170 CURVE",
"153 170 OFFCURVE",
"167 170 OFFCURVE",
"180 170 CURVE SMOOTH",
"220 170 OFFCURVE",
"255 170 OFFCURVE",
"301 168 CURVE",
"325 93 OFFCURVE",
"331 47 OFFCURVE",
"348 2 CURVE",
"355 0 OFFCURVE",
"363 -1 OFFCURVE",
"371 -2 CURVE",
"377 -3 OFFCURVE",
"385 -4 OFFCURVE",
"394 -4 CURVE SMOOTH"
);
},
{
closed = 1;
nodes = (
"164 249 OFFCURVE",
"146 248 OFFCURVE",
"137 249 CURVE",
"176 456 OFFCURVE",
"190 536 OFFCURVE",
"204 564 CURVE SMOOTH",
"207 572 OFFCURVE",
"214 576 OFFCURVE",
"220 576 CURVE SMOOTH",
"229 576 OFFCURVE",
"239 568 OFFCURVE",
"245 547 CURVE SMOOTH",
"258 502 OFFCURVE",
"275 404 OFFCURVE",
"303 249 CURVE",
"253 248 OFFCURVE",
"215 248 OFFCURVE",
"189 248 CURVE"
);
}
);
width = 434;
},
{
anchors = (
{
name = bottom;
position = "{217, 0}";
},
{
name = ogonek;
position = "{423, 10}";
},
{
name = top;
position = "{222, 749}";
}
);
hints = (
{
horizontal = 1;
place = "{-3, 708}";
type = Stem;
},
{
place = "{4, 433}";
type = Stem;
}
);
layerId = "DF1E66B1-3A9E-4773-904B-B575E660C115";
paths = (
{
closed = 1;
nodes = (
"412 -2 OFFCURVE",
"426 -1 OFFCURVE",
"437 0 CURVE",
"362 351 LINE",
"359 362 OFFCURVE",
"356 378 OFFCURVE",
"351 397 CURVE SMOOTH",
"346 416 OFFCURVE",
"341 438 OFFCURVE",
"336 461 CURVE SMOOTH",
"331 484 OFFCURVE",
"325 509 OFFCURVE",
"320 534 CURVE",
"314 559 OFFCURVE",
"309 583 OFFCURVE",
"304 606 CURVE SMOOTH",
"299 628 OFFCURVE",
"294 648 OFFCURVE",
"290 666 CURVE",
"285 683 OFFCURVE",
"282 696 OFFCURVE",
"280 705 CURVE",
"258 703 OFFCURVE",
"240 702 OFFCURVE",
"227 702 CURVE",
"213 701 OFFCURVE",
"203 701 OFFCURVE",
"198 701 CURVE SMOOTH",
"192 701 OFFCURVE",
"186 701 OFFCURVE",
"181 701 CURVE SMOOTH",
"176 701 OFFCURVE",
"171 701 OFFCURVE",
"166 700 CURVE",
"144 647 OFFCURVE",
"126 593 OFFCURVE",
"113 539 CURVE SMOOTH",
"100 485 OFFCURVE",
"87 433 OFFCURVE",
"76 383 CURVE SMOOTH",
"65 333 OFFCURVE",
"55 286 OFFCURVE",
"47 242 CURVE SMOOTH",
"38 197 OFFCURVE",
"31 158 OFFCURVE",
"25 124 CURVE SMOOTH",
"19 90 OFFCURVE",
"14 62 OFFCURVE",
"11 41 CURVE SMOOTH",
"8 20 OFFCURVE",
"5 7 OFFCURVE",
"4 2 CURVE",
"32 2 OFFCURVE",
"52 3 OFFCURVE",
"52 3 CURVE",
"59 44 OFFCURVE",
"65 72 OFFCURVE",
"68 88 CURVE SMOOTH",
"71 103 OFFCURVE",
"78 136 OFFCURVE",
"83 172 CURVE",
"348 169 LINE",
"359 127 OFFCURVE",
"367 98 OFFCURVE",
"371 83 CURVE",
"374 68 OFFCURVE",
"378 53 OFFCURVE",
"382 38 CURVE",
"385 23 OFFCURVE",
"389 11 OFFCURVE",
"394 0 CURVE",
"402 -2 LINE"
);
},
{
closed = 1;
nodes = (
"119 212 OFFCURVE",
"108 213 OFFCURVE",
"88 213 CURVE",
"120 372 OFFCURVE",
"144 486 OFFCURVE",
"160 555 CURVE SMOOTH",
"175 624 OFFCURVE",
"186 658 OFFCURVE",
"193 659 CURVE",
"199 659 OFFCURVE",
"208 659 OFFCURVE",
"221 659 CURVE SMOOTH",
"233 659 OFFCURVE",
"242 659 OFFCURVE",
"248 659 CURVE SMOOTH",
"253 659 OFFCURVE",
"286 510 OFFCURVE",
"347 213 CURVE",
"283 212 OFFCURVE",
"232 211 OFFCURVE",
"194 211 CURVE SMOOTH",
"180 211 OFFCURVE",
"168 211 OFFCURVE",
"158 211 CURVE SMOOTH"
);
}
);
width = 434;
}
);
leftKerningGroup = KO_A;
note = A;
rightKerningGroup = KO_A;
unicode = 0041;
userData = {
KernOnName = A;
};
},
{
color = 5;
glyphname = AE;
lastChange = "2022-10-20 18:02:40 +0000";
layers = (
{
hints = (
{
horizontal = 1;
place = "{-1, 21}";
target = up;
type = BottomGhost;
},
{
horizontal = 1;
place = "{142, 134}";
type = Stem;
},
{
horizontal = 1;
place = "{422, 125}";
type = Stem;
},
{
place = "{2, 696}";
type = Stem;
},
{
place = "{186, 68}";
type = Stem;
}
);
layerId = "9B0E9E80-6738-4704-8EC6-A4FB4E6479F4";
paths = (
{
closed = 1;
nodes = (
"10 -1 OFFCURVE",
"88 1 OFFCURVE",
"168 1 CURVE",
"197 118 LINE",
"235 118 LINE",
"258 117 OFFCURVE",
"268 116 OFFCURVE",
"294 116 CURVE",
"295 74 OFFCURVE",
"294 44 OFFCURVE",
"303 5 CURVE",
"346 2 OFFCURVE",
"391 1 OFFCURVE",
"436 1 CURVE SMOOTH",
"459 1 OFFCURVE",
"482 2 OFFCURVE",
"505 2 CURVE SMOOTH",
"575 2 OFFCURVE",
"645 4 OFFCURVE",
"713 4 CURVE",
"715 6 LINE",
"720 33 OFFCURVE",
"722 61 OFFCURVE",
"722 89 CURVE SMOOTH",
"722 104 OFFCURVE",
"721 118 OFFCURVE",
"721 134 CURVE SMOOTH",
"721 137 LINE",
"681 140 OFFCURVE",
"639 141 OFFCURVE",
"596 141 CURVE SMOOTH",
"552 141 OFFCURVE",
"507 143 OFFCURVE",
"463 143 CURVE SMOOTH",
"462 143 LINE",
"455 157 OFFCURVE",
"453 180 OFFCURVE",
"453 204 CURVE SMOOTH",
"453 227 OFFCURVE",
"455 250 OFFCURVE",
"456 270 CURVE",
"462 276 OFFCURVE",
"484 276 OFFCURVE",
"510 276 CURVE SMOOTH",
"533 276 OFFCURVE",
"558 276 OFFCURVE",
"577 280 CURVE",
"577 302 OFFCURVE",
"579 325 OFFCURVE",
"579 347 CURVE SMOOTH",
"580 372 OFFCURVE",
"580 396 OFFCURVE",
"575 419 CURVE",
"555 423 OFFCURVE",
"534 422 OFFCURVE",
"514 422 CURVE SMOOTH",
"493 422 OFFCURVE",
"472 422 OFFCURVE",
"454 425 CURVE",
"449 437 OFFCURVE",
"448 450 OFFCURVE",
"448 463 CURVE SMOOTH",
"448 470 OFFCURVE",
"449 478 OFFCURVE",
"449 485 CURVE SMOOTH",
"450 504 OFFCURVE",
"452 524 OFFCURVE",
"451 542 CURVE",
"477 546 OFFCURVE",
"503 547 OFFCURVE",
"530 547 CURVE SMOOTH",
"550 547 OFFCURVE",
"571 546 OFFCURVE",
"591 546 CURVE SMOOTH",
"634 546 OFFCURVE",
"677 546 OFFCURVE",
"718 555 CURVE",
"718 578 OFFCURVE",
"719 602 OFFCURVE",
"720 626 CURVE SMOOTH",
"720 651 OFFCURVE",
"718 676 OFFCURVE",
"718 699 CURVE SMOOTH",
"718 700 LINE",
"718 701 LINE",
"708 701 OFFCURVE",
"596 701 OFFCURVE",
"467 700 CURVE SMOOTH",
"366 698 OFFCURVE",
"236 697 OFFCURVE",
"156 693 CURVE",
"136 611 OFFCURVE",
"120 543 OFFCURVE",
"107 487 CURVE SMOOTH",
"94 431 OFFCURVE",
"83 387 OFFCURVE",
"75 351 CURVE SMOOTH",
"57 277 OFFCURVE",
"48 238 OFFCURVE",
"42 211 CURVE SMOOTH",
"35 178 OFFCURVE",
"33 161 OFFCURVE",
"26 118 CURVE SMOOTH",
"21 91 OFFCURVE",
"15 55 OFFCURVE",
"5 -1 CURVE"
);
},
{
closed = 1;
nodes = (
"255 285 OFFCURVE",
"240 285 OFFCURVE",
"209 286 CURVE",
"220 328 OFFCURVE",
"224 351 OFFCURVE",
"229 372 CURVE SMOOTH",
"234 398 OFFCURVE",
"236 414 OFFCURVE",
"252 468 CURVE",
"294 468 LINE",
"294 287 LINE",
"289 283 OFFCURVE",
"281 285 OFFCURVE",
"272 285 CURVE SMOOTH"
);
}
);
width = 739;
},
{
hints = (
{
horizontal = 1;
place = "{9, 21}";
target = up;
type = BottomGhost;
},
{
horizontal = 1;
place = "{152, 144}";
type = Stem;
},
{
horizontal = 1;
place = "{432, 135}";
type = Stem;
},
{
place = "{12, 706}";
type = Stem;
},
{
place = "{196, 78}";
type = Stem;
}
);
layerId = "BB6A108D-08DB-4BF5-B99B-807E42D41E71";
paths = (
{
closed = 1;
nodes = (
"20 -1 LINE",
"34 -1 LINE SMOOTH",
"62 -1 OFFCURVE",
"131 1 OFFCURVE",
"187 1 CURVE",
"218 118 LINE",
"238 118 LINE SMOOTH",
"242 118 OFFCURVE",
"263 118 OFFCURVE",
"275 118 CURVE",
"275 67 OFFCURVE",
"279 22 OFFCURVE",
"280 0 CURVE",
"323 -3 OFFCURVE",
"382 1 OFFCURVE",
"439 1 CURVE SMOOTH",
"451 1 OFFCURVE",
"462 2 OFFCURVE",
"474 2 CURVE SMOOTH",
"508 2 LINE SMOOTH",
"543 2 OFFCURVE",
"579 1 OFFCURVE",
"614 3 CURVE SMOOTH",
"659 5 OFFCURVE",
"694 1 OFFCURVE",
"736 6 CURVE",
"741 33 OFFCURVE",
"743 63 OFFCURVE",
"743 94 CURVE SMOOTH",
"743 117 OFFCURVE",
"742 126 OFFCURVE",
"742 139 CURVE SMOOTH",
"742 147 LINE",
"725 147 LINE",
"686 150 OFFCURVE",
"642 151 OFFCURVE",
"599 151 CURVE SMOOTH",
"560 151 OFFCURVE",
"520 151 OFFCURVE",
"480 152 CURVE",
"477 162 OFFCURVE",
"474 184 OFFCURVE",
"474 209 CURVE SMOOTH",
"474 226 OFFCURVE",
"475 241 OFFCURVE",
"476 257 CURVE SMOOTH",
"476 263 OFFCURVE",
"477 270 OFFCURVE",
"477 275 CURVE",
"482 276 OFFCURVE",
"490 276 OFFCURVE",
"513 276 CURVE SMOOTH",
"564 276 OFFCURVE",
"583 278 OFFCURVE",
"598 284 CURVE",
"598 296 OFFCURVE",
"598 307 OFFCURVE",
"599 318 CURVE SMOOTH",
"599 330 OFFCURVE",
"600 341 OFFCURVE",
"600 352 CURVE SMOOTH",
"601 385 OFFCURVE",
"600 404 OFFCURVE",
"596 425 CURVE",
"580 431 OFFCURVE",
"564 432 OFFCURVE",
"527 432 CURVE SMOOTH",
"517 432 LINE SMOOTH",
"496 432 OFFCURVE",
"483 432 OFFCURVE",
"473 433 CURVE",
"471 440 OFFCURVE",
"469 453 OFFCURVE",
"469 468 CURVE SMOOTH",
"469 469 OFFCURVE",
"470 495 OFFCURVE",
"471 504 CURVE SMOOTH",
"472 524 OFFCURVE",
"473 534 OFFCURVE",
"472 544 CURVE",
"490 546 OFFCURVE",
"509 547 OFFCURVE",
"533 547 CURVE SMOOTH",
"563 547 LINE SMOOTH",
"573 547 OFFCURVE",
"584 546 OFFCURVE",
"594 546 CURVE SMOOTH",
"637 546 OFFCURVE",
"683 546 OFFCURVE",
"725 555 CURVE",
"739 560 LINE",
"739 583 OFFCURVE",
"741 607 OFFCURVE",
"741 631 CURVE SMOOTH",
"741 646 LINE SMOOTH",
"741 675 OFFCURVE",
"739 688 OFFCURVE",
"739 711 CURVE",
"721 711 LINE",
"711 711 OFFCURVE",
"599 711 OFFCURVE",
"470 710 CURVE SMOOTH",
"445 710 OFFCURVE",
"420 709 OFFCURVE",
"394 709 CURVE SMOOTH",
"361 708 OFFCURVE",
"186 704 OFFCURVE",
"154 703 CURVE",
"133 618 OFFCURVE",
"117 546 OFFCURVE",
"104 493 CURVE SMOOTH",
"99 472 OFFCURVE",
"95 456 OFFCURVE",
"88 425 CURVE SMOOTH",
"72 357 LINE SMOOTH",
"57 294 OFFCURVE",
"48 265 OFFCURVE",
"42 232 CURVE SMOOTH",
"28 154 LINE SMOOTH",
"28 152 OFFCURVE",
"15 77 OFFCURVE",
"14 72 CURVE SMOOTH",
"11 54 OFFCURVE",
"7 23 OFFCURVE",
"2 -1 CURVE"
);
},
{
closed = 1;
nodes = (
"247 293 OFFCURVE",
"234 294 OFFCURVE",
"226 294 CURVE",
"237 341 OFFCURVE",
"251 418 OFFCURVE",
"255 432 CURVE",
"275 432 LINE",
"276 407 OFFCURVE",
"276 383 OFFCURVE",
"276 371 CURVE SMOOTH",
"276 340 OFFCURVE",
"278 322 OFFCURVE",
"279 295 CURVE",
"271 295 OFFCURVE",
"261 293 OFFCURVE",
"254 293 CURVE SMOOTH"
);
}
);
width = 752;
},
{
layerId = "B033F76F-1B86-4758-A592-6C7B1BE8F750";
paths = (
{
closed = 1;
nodes = (
"414 -3 OFFCURVE",
"432 -2 OFFCURVE",
"457 -1 CURVE SMOOTH",
"510 1 OFFCURVE",
"565 3 OFFCURVE",
"621 3 CURVE SMOOTH",
"633 3 OFFCURVE",
"645 3 OFFCURVE",
"657 3 CURVE",
"659 78 LINE",
"659 80 LINE",
"644 80 OFFCURVE",
"630 79 OFFCURVE",
"616 79 CURVE SMOOTH",
"541 79 OFFCURVE",
"469 85 OFFCURVE",
"408 84 CURVE",
"409 124 OFFCURVE",
"410 156 OFFCURVE",
"410 182 CURVE SMOOTH",
"410 200 OFFCURVE",
"409 215 OFFCURVE",
"409 227 CURVE SMOOTH",
"408 269 OFFCURVE",
"410 286 OFFCURVE",
"413 310 CURVE",
"426 310 OFFCURVE",
"440 309 OFFCURVE",
"456 309 CURVE SMOOTH",
"475 309 OFFCURVE",
"496 310 OFFCURVE",
"522 313 CURVE",
"522 319 LINE SMOOTH",
"522 326 OFFCURVE",
"522 372 OFFCURVE",
"521 386 CURVE",
"461 387 OFFCURVE",
"446 386 OFFCURVE",
"408 389 CURVE",
"407 451 OFFCURVE",
"410 488 OFFCURVE",
"410 542 CURVE SMOOTH",
"410 572 OFFCURVE",
"406 601 OFFCURVE",
"407 616 CURVE",
"424 619 OFFCURVE",
"451 620 OFFCURVE",
"479 620 CURVE SMOOTH",
"499 620 OFFCURVE",
"519 619 OFFCURVE",
"537 619 CURVE SMOOTH",
"569 619 OFFCURVE",
"597 621 OFFCURVE",
"627 621 CURVE SMOOTH",
"638 621 OFFCURVE",
"649 621 OFFCURVE",
"661 620 CURVE",
"662 697 LINE",
"589 698 LINE",
"578 698 OFFCURVE",
"554 698 OFFCURVE",
"516 698 CURVE SMOOTH",
"479 698 OFFCURVE",
"429 698 OFFCURVE",
"365 699 CURVE SMOOTH",
"197 701 LINE SMOOTH",
"181 701 OFFCURVE",
"171 701 OFFCURVE",
"166 700 CURVE",
"133 618 OFFCURVE",
"110 534 OFFCURVE",
"91 454 CURVE SMOOTH",
"74 378 OFFCURVE",
"60 305 OFFCURVE",
"46 241 CURVE",
"22 110 OFFCURVE",
"8 15 OFFCURVE",
"4 2 CURVE",
"73 2 LINE",
"76 3 OFFCURVE",
"77 3 OFFCURVE",
"78 3 CURVE",
"85 44 OFFCURVE",
"90 72 OFFCURVE",
"93 87 CURVE SMOOTH",
"96 103 OFFCURVE",
"102 131 OFFCURVE",
"109 172 CURVE",
"336 169 LINE",
"340 72 OFFCURVE",
"341 -4 OFFCURVE",
"340 0 CURVE",
"357 0 OFFCURVE",
"365 -3 OFFCURVE",
"400 -3 CURVE SMOOTH"
);
},
{
closed = 1;
nodes = (
"159 245 OFFCURVE",
"126 246 OFFCURVE",
"116 247 CURVE",
"148 406 OFFCURVE",
"168 485 OFFCURVE",
"187 554 CURVE SMOOTH",
"197 590 OFFCURVE",
"202 615 OFFCURVE",
"208 615 CURVE",
"215 616 OFFCURVE",
"302 617 OFFCURVE",
"332 617 CURVE",
"333 582 OFFCURVE",
"335 522 OFFCURVE",
"335 247 CURVE",
"271 246 OFFCURVE",
"241 245 OFFCURVE",
"214 245 CURVE SMOOTH"
);
}
);
width = 682;
},
{
hints = (
{
horizontal = 1;
place = "{45, 125.5}";
type = Stem;
},
{
horizontal = 1;
place = "{311.09, 17.91}";
type = Stem;
},
{
horizontal = 1;
place = "{366, 291}";
type = Stem;
},
{
place = "{447, 43.33}";
type = Stem;
},
{
horizontal = 1;
place = "{213, 113}";
type = Stem;
}
);
layerId = "DF1E66B1-3A9E-4773-904B-B575E660C115";
paths = (
{
closed = 1;
nodes = (
"459 -2 OFFCURVE",
"476 -2 OFFCURVE",
"494 -1 CURVE SMOOTH",
"509 0 OFFCURVE",
"523 0 OFFCURVE",
"536 0 CURVE SMOOTH",
"555 0 OFFCURVE",
"573 0 OFFCURVE",
"595 0 CURVE SMOOTH",
"621 0 OFFCURVE",
"652 0 OFFCURVE",
"694 3 CURVE",
"696 41 LINE",
"680 41 OFFCURVE",
"663 40 OFFCURVE",
"647 40 CURVE SMOOTH",
"619 40 OFFCURVE",
"591 41 OFFCURVE",
"564 43 CURVE SMOOTH",
"529 45 OFFCURVE",
"465 46 OFFCURVE",
"444 46 CURVE",
"446 105 OFFCURVE",
"447 154 OFFCURVE",
"447 193 CURVE SMOOTH",
"447 206 OFFCURVE",
"447 218 OFFCURVE",
"447 228 CURVE SMOOTH",
"446 269 OFFCURVE",
"447 302 OFFCURVE",
"450 326 CURVE",
"488 325 OFFCURVE",
"509 325 OFFCURVE",
"513 326 CURVE SMOOTH",
"515 327 OFFCURVE",
"520 327 OFFCURVE",
"527 327 CURVE SMOOTH",
"535 327 OFFCURVE",
"546 327 OFFCURVE",
"559 326 CURVE",
"559 335 LINE SMOOTH",
"559 342 OFFCURVE",
"559 352 OFFCURVE",
"558 364 CURVE",
"537 366 OFFCURVE",
"517 366 OFFCURVE",
"496 366 CURVE SMOOTH",
"468 366 OFFCURVE",
"465 366 OFFCURVE",
"445 368 CURVE",
"445 385 OFFCURVE",
"445 401 OFFCURVE",
"445 417 CURVE SMOOTH",
"445 461 OFFCURVE",
"446 502 OFFCURVE",
"447 542 CURVE SMOOTH",
"449 596 OFFCURVE",
"451 633 OFFCURVE",
"449 652 CURVE",
"465 656 OFFCURVE",
"478 657 OFFCURVE",
"508 657 CURVE SMOOTH",
"530 657 OFFCURVE",
"552 657 OFFCURVE",
"574 657 CURVE",
"600 656 OFFCURVE",
"625 658 OFFCURVE",
"649 658 CURVE SMOOTH",
"664 658 OFFCURVE",
"681 657 OFFCURVE",
"698 657 CURVE",
"699 695 LINE SMOOTH",
"699 696 OFFCURVE",
"692 696 OFFCURVE",
"679 697 CURVE SMOOTH",
"666 698 OFFCURVE",
"648 698 OFFCURVE",
"626 698 CURVE SMOOTH",
"604 698 OFFCURVE",
"529 699 OFFCURVE",
"402 700 CURVE SMOOTH",
"275 701 OFFCURVE",
"208 701 OFFCURVE",
"202 701 CURVE SMOOTH",
"186 701 OFFCURVE",
"176 701 OFFCURVE",
"171 700 CURVE",
"149 647 OFFCURVE",
"131 593 OFFCURVE",
"118 539 CURVE SMOOTH",
"105 485 OFFCURVE",
"92 433 OFFCURVE",
"81 383 CURVE SMOOTH",
"70 333 OFFCURVE",
"60 286 OFFCURVE",
"52 242 CURVE SMOOTH",
"43 197 OFFCURVE",
"36 158 OFFCURVE",
"30 124 CURVE SMOOTH",
"24 90 OFFCURVE",
"19 62 OFFCURVE",
"16 41 CURVE SMOOTH",
"13 20 OFFCURVE",
"10 7 OFFCURVE",
"9 2 CURVE",
"36 2 OFFCURVE",
"50 2 OFFCURVE",
"53 3 CURVE",
"55 3 OFFCURVE",
"56 3 OFFCURVE",
"57 3 CURVE",
"64 44 OFFCURVE",
"70 72 OFFCURVE",
"73 88 CURVE SMOOTH",
"76 103 OFFCURVE",
"81 134 OFFCURVE",
"88 172 CURVE",
"393 168 LINE",
"393 133 OFFCURVE",
"393 128 OFFCURVE",
"394 100 CURVE",
"394 3 LINE",
"393 0 OFFCURVE",
"411 -2 OFFCURVE",
"446 -2 CURVE SMOOTH"
);
},
{
closed = 1;
nodes = (
"124 212 OFFCURVE",
"114 211 OFFCURVE",
"93 213 CURVE",
"125 372 OFFCURVE",
"149 486 OFFCURVE",
"165 555 CURVE SMOOTH",
"180 624 OFFCURVE",
"191 647 OFFCURVE",
"198 659 CURVE",
"204 659 OFFCURVE",
"222 659 OFFCURVE",
"225 659 CURVE SMOOTH",
"392 659 LINE",
"392 620 OFFCURVE",
"395 551 OFFCURVE",
"395 417 CURVE SMOOTH",
"395 361 OFFCURVE",
"394 294 OFFCURVE",
"393 213 CURVE",
"329 212 OFFCURVE",
"256 211 OFFCURVE",
"206 211 CURVE SMOOTH",
"188 211 OFFCURVE",
"173 211 OFFCURVE",
"163 211 CURVE SMOOTH"
);
}
);
width = 716;
}
);
leftKerningGroup = KO_A;
note = AE;
rightKerningGroup = KO_E;
unicode = 00C6;
},
{
color = 5;
glyphname = B;
lastChange = "2022-10-21 19:06:45 +0000";
layers = (
{
anchors = (
{
name = bottom;
position = "{239, 0}";
},
{
name = center;
position = "{239, 361}";
},
{
name = top;
position = "{239, 722}";
}
);
hints = (
{
horizontal = 1;
place = "{-5, 719}";
type = Stem;
},
{
place = "{184, 146.39}";
type = Stem;
},
{
horizontal = 1;
place = "{140, 139}";
type = Stem;
},
{
place = "{173, 139}";
type = Stem;
},
{
horizontal = 1;
place = "{418.5, 133.5}";
type = Stem;
},
{
place = "{179, 133}";
type = Stem;
}
);
layerId = "9B0E9E80-6738-4704-8EC6-A4FB4E6479F4";
paths = (
{
closed = 1;
nodes = (
"287 -5 OFFCURVE",
"351 3 OFFCURVE",
"397 34 CURVE SMOOTH",
"430 57 OFFCURVE",
"454 92 OFFCURVE",
"463 145 CURVE SMOOTH",
"465 158 OFFCURVE",
"467 170 OFFCURVE",
"467 182 CURVE SMOOTH",
"467 208 OFFCURVE",
"461 230 OFFCURVE",
"451 250 CURVE SMOOTH",
"437 279 OFFCURVE",
"416 305 OFFCURVE",
"395 331 CURVE SMOOTH",
"390 336 OFFCURVE",
"388 340 OFFCURVE",
"388 344 CURVE SMOOTH",
"388 346 OFFCURVE",
"388 349 OFFCURVE",
"390 352 CURVE SMOOTH",
"417 397 OFFCURVE",
"439 452 OFFCURVE",
"439 508 CURVE SMOOTH",
"439 547 OFFCURVE",
"432 579 OFFCURVE",
"419 605 CURVE SMOOTH",
"404 638 OFFCURVE",
"380 663 OFFCURVE",
"350 680 CURVE SMOOTH",
"306 704 OFFCURVE",
"253 715 OFFCURVE",
"196 715 CURVE SMOOTH",
"142 715 OFFCURVE",
"93 707 OFFCURVE",
"41 692 CURVE",
"42 639 OFFCURVE",
"42 586 OFFCURVE",
"42 533 CURVE SMOOTH",
"42 482 OFFCURVE",
"41 430 OFFCURVE",
"41 379 CURVE SMOOTH",
"41 348 OFFCURVE",
"40 316 OFFCURVE",
"40 284 CURVE SMOOTH",
"40 252 OFFCURVE",
"41 220 OFFCURVE",
"41 188 CURVE SMOOTH",
"41 127 OFFCURVE",
"42 66 OFFCURVE",
"44 4 CURVE",
"48 2 OFFCURVE",
"52 2 OFFCURVE",
"57 2 CURVE SMOOTH",
"60 2 OFFCURVE",
"63 2 OFFCURVE",
"66 2 CURVE SMOOTH",
"113 1 OFFCURVE",
"168 -5 OFFCURVE",
"221 -5 CURVE SMOOTH"
);
},
{
closed = 1;
nodes = (
"219 140 OFFCURVE",
"206 140 OFFCURVE",
"186 141 CURVE",
"177 154 OFFCURVE",
"173 174 OFFCURVE",
"172 196 CURVE SMOOTH",
"172 210 OFFCURVE",
"173 225 OFFCURVE",
"175 240 CURVE SMOOTH",
"177 255 OFFCURVE",
"180 269 OFFCURVE",
"183 281 CURVE",
"208 278 OFFCURVE",
"236 280 OFFCURVE",
"261 273 CURVE SMOOTH",
"278 269 OFFCURVE",
"296 255 OFFCURVE",
"304 239 CURVE SMOOTH",
"309 228 OFFCURVE",
"312 214 OFFCURVE",
"312 201 CURVE SMOOTH",
"312 188 OFFCURVE",
"309 175 OFFCURVE",
"301 165 CURVE SMOOTH",
"290 152 OFFCURVE",
"275 145 OFFCURVE",
"258 142 CURVE SMOOTH",
"249 140 OFFCURVE",
"241 140 OFFCURVE",
"229 140 CURVE SMOOTH"
);
},
{
closed = 1;
nodes = (
"211 417 OFFCURVE",
"197 418 OFFCURVE",
"184 420 CURVE",
"180 437 OFFCURVE",
"179 454 OFFCURVE",
"179 469 CURVE SMOOTH",
"179 497 OFFCURVE",
"181 525 OFFCURVE",
"180 544 CURVE",
"192 550 OFFCURVE",
"206 551 OFFCURVE",
"224 551 CURVE SMOOTH",
"236 551 OFFCURVE",
"248 549 OFFCURVE",
"260 547 CURVE SMOOTH",
"281 542 OFFCURVE",
"298 531 OFFCURVE",
"309 510 CURVE SMOOTH",
"312 504 OFFCURVE",
"314 497 OFFCURVE",
"314 491 CURVE SMOOTH",
"314 476 OFFCURVE",
"306 461 OFFCURVE",
"300 450 CURVE SMOOTH",
"290 431 OFFCURVE",
"272 422 OFFCURVE",
"252 419 CURVE SMOOTH",
"243 417 OFFCURVE",
"234 417 OFFCURVE",
"225 417 CURVE SMOOTH"
);
}
);
width = 477;
},
{
anchors = (
{
name = bottom;
position = "{249, 0}";
},
{
name = center;
position = "{249, 361}";
},
{
name = top;
position = "{249, 722}";
}
);
hints = (
{
horizontal = 1;
place = "{5, 729}";
type = Stem;
},
{
place = "{194, 156}";
type = Stem;
},
{
horizontal = 1;
place = "{150, 149}";
type = Stem;
},
{
place = "{183, 149}";
type = Stem;
},
{
horizontal = 1;
place = "{429, 144}";
type = Stem;
},
{
place = "{189, 143}";
type = Stem;
}
);
layerId = "BB6A108D-08DB-4BF5-B99B-807E42D41E71";
paths = (
{
closed = 1;
nodes = (
"314 -5 OFFCURVE",
"379 9 OFFCURVE",
"417 35 CURVE SMOOTH",
"460 65 OFFCURVE",
"482 99 OFFCURVE",
"491 149 CURVE SMOOTH",
"493 164 OFFCURVE",
"495 176 OFFCURVE",
"495 187 CURVE SMOOTH",
"495 212 OFFCURVE",
"490 231 OFFCURVE",
"477 257 CURVE SMOOTH",
"465 283 OFFCURVE",
"437 316 OFFCURVE",
"416 343 CURVE",
"415 345 OFFCURVE",
"416 347 OFFCURVE",
"416 349 CURVE SMOOTH",
"416 353 OFFCURVE",
"415 355 OFFCURVE",
"415 354 CURVE",
"450 412 OFFCURVE",
"467 464 OFFCURVE",
"467 513 CURVE SMOOTH",
"467 552 OFFCURVE",
"461 581 OFFCURVE",
"445 612 CURVE SMOOTH",
"431 643 OFFCURVE",
"406 668 OFFCURVE",
"369 689 CURVE SMOOTH",
"328 712 OFFCURVE",
"268 725 OFFCURVE",
"206 725 CURVE SMOOTH",
"149 725 OFFCURVE",
"96 716 OFFCURVE",
"46 702 CURVE",
"33 697 LINE",
"34 644 OFFCURVE",
"34 591 OFFCURVE",
"34 538 CURVE SMOOTH",
"34 512 OFFCURVE",
"34 487 OFFCURVE",
"34 461 CURVE SMOOTH",
"33 435 OFFCURVE",
"33 409 OFFCURVE",
"33 384 CURVE SMOOTH",
"33 369 OFFCURVE",
"33 353 OFFCURVE",
"33 337 CURVE SMOOTH",
"32 321 OFFCURVE",
"32 305 OFFCURVE",
"32 289 CURVE SMOOTH",
"32 273 OFFCURVE",
"32 257 OFFCURVE",
"33 241 CURVE SMOOTH",
"33 225 OFFCURVE",
"33 209 OFFCURVE",
"33 193 CURVE SMOOTH",
"33 132 OFFCURVE",
"34 71 OFFCURVE",
"36 9 CURVE",
"46 5 LINE",
"49 3 OFFCURVE",
"57 2 OFFCURVE",
"67 2 CURVE SMOOTH",
"70 2 OFFCURVE",
"73 2 OFFCURVE",
"76 2 CURVE SMOOTH",
"95 2 OFFCURVE",
"117 0 OFFCURVE",
"140 -1 CURVE SMOOTH",
"169 -3 OFFCURVE",
"200 -5 OFFCURVE",
"231 -5 CURVE SMOOTH"
);
},
{
closed = 1;
nodes = (
"205 159 OFFCURVE",
"201 180 OFFCURVE",
"200 201 CURVE SMOOTH",
"200 215 OFFCURVE",
"201 231 OFFCURVE",
"203 244 CURVE SMOOTH",
"204 256 OFFCURVE",
"207 268 OFFCURVE",
"209 280 CURVE",
"213 279 OFFCURVE",
"217 279 OFFCURVE",
"220 279 CURVE SMOOTH",
"244 278 OFFCURVE",
"253 277 OFFCURVE",
"267 273 CURVE SMOOTH",
"278 271 OFFCURVE",
"289 260 OFFCURVE",
"298 242 CURVE SMOOTH",
"301 235 OFFCURVE",
"304 218 OFFCURVE",
"304 206 CURVE SMOOTH",
"304 193 OFFCURVE",
"300 177 OFFCURVE",
"297 173 CURVE SMOOTH",
"285 159 OFFCURVE",
"280 155 OFFCURVE",
"264 152 CURVE SMOOTH",
"256 150 OFFCURVE",
"254 150 OFFCURVE",
"239 150 CURVE SMOOTH",
"231 150 OFFCURVE",
"222 150 OFFCURVE",
"210 150 CURVE"
);
},
{
closed = 1;
nodes = (
"226 427 OFFCURVE",
"219 427 OFFCURVE",
"211 428 CURVE",
"209 440 OFFCURVE",
"207 457 OFFCURVE",
"207 474 CURVE SMOOTH",
"207 486 OFFCURVE",
"207 498 OFFCURVE",
"208 509 CURVE SMOOTH",
"208 531 OFFCURVE",
"208 540 OFFCURVE",
"208 549 CURVE",
"214 551 OFFCURVE",
"221 551 OFFCURVE",
"234 551 CURVE SMOOTH",
"241 551 OFFCURVE",
"248 550 OFFCURVE",
"263 548 CURVE SMOOTH",
"282 544 OFFCURVE",
"291 535 OFFCURVE",
"303 513 CURVE SMOOTH",
"304 511 OFFCURVE",
"306 503 OFFCURVE",
"306 496 CURVE SMOOTH",
"306 479 OFFCURVE",
"298 464 OFFCURVE",
"294 457 CURVE SMOOTH",
"284 437 OFFCURVE",
"276 431 OFFCURVE",
"257 429 CURVE",
"250 427 OFFCURVE",
"247 427 OFFCURVE",
"235 427 CURVE SMOOTH"
);
}
);
width = 497;
},
{
anchors = (
{
name = bottom;
position = "{239, 0}";
},
{
name = center;
position = "{239, 361}";
},
{
name = top;
position = "{239, 722}";
}
);
layerId = "B033F76F-1B86-4758-A592-6C7B1BE8F750";
paths = (
{
closed = 1;
nodes = (
"282 -5 OFFCURVE",
"342 1 OFFCURVE",
"387 28 CURVE SMOOTH",
"425 51 OFFCURVE",
"453 87 OFFCURVE",
"463 145 CURVE SMOOTH",
"465 157 OFFCURVE",
"466 168 OFFCURVE",
"466 179 CURVE SMOOTH",
"466 201 OFFCURVE",
"462 221 OFFCURVE",
"455 239 CURVE SMOOTH",
"442 273 OFFCURVE",
"419 301 OFFCURVE",
"395 331 CURVE",
"390 336 OFFCURVE",
"388 340 OFFCURVE",
"388 344 CURVE SMOOTH",
"388 346 OFFCURVE",
"388 349 OFFCURVE",
"390 352 CURVE SMOOTH",
"417 397 OFFCURVE",
"439 452 OFFCURVE",
"439 508 CURVE SMOOTH",
"439 614 OFFCURVE",
"386 671 OFFCURVE",
"312 697 CURVE SMOOTH",
"275 710 OFFCURVE",
"233 715 OFFCURVE",
"191 715 CURVE SMOOTH",
"139 715 OFFCURVE",
"88 706 OFFCURVE",
"42 693 CURVE",
"41 692 LINE",
"42 646 OFFCURVE",
"42 599 OFFCURVE",
"42 554 CURVE SMOOTH",
"42 449 OFFCURVE",
"41 345 OFFCURVE",
"41 240 CURVE SMOOTH",
"41 162 OFFCURVE",
"41 83 OFFCURVE",
"44 4 CURVE",
"48 2 OFFCURVE",
"52 2 OFFCURVE",
"57 2 CURVE SMOOTH",
"106 2 OFFCURVE",
"163 -5 OFFCURVE",
"220 -5 CURVE SMOOTH"
);
},
{
closed = 1;
nodes = (
"221 85 OFFCURVE",
"204 86 OFFCURVE",
"185 87 CURVE SMOOTH",
"163 88 OFFCURVE",
"147 90 OFFCURVE",
"139 91 CURVE",
"131 147 OFFCURVE",
"126 197 OFFCURVE",
"126 233 CURVE SMOOTH",
"126 260 OFFCURVE",
"129 280 OFFCURVE",
"135 289 CURVE",
"165 290 OFFCURVE",
"188 291 OFFCURVE",
"206 291 CURVE SMOOTH",
"217 291 OFFCURVE",
"226 291 OFFCURVE",
"232 290 CURVE SMOOTH",
"254 288 OFFCURVE",
"328 295 OFFCURVE",
"349 235 CURVE SMOOTH",
"356 216 OFFCURVE",
"360 198 OFFCURVE",
"360 181 CURVE SMOOTH",
"360 167 OFFCURVE",
"357 155 OFFCURVE",
"352 145 CURVE SMOOTH",
"324 96 OFFCURVE",
"290 85 OFFCURVE",
"237 85 CURVE SMOOTH"
);
},
{
closed = 1;
nodes = (
"220 379 OFFCURVE",
"204 380 OFFCURVE",
"185 381 CURVE SMOOTH",
"161 383 OFFCURVE",
"145 385 OFFCURVE",
"136 386 CURVE",
"131 405 OFFCURVE",
"130 432 OFFCURVE",
"130 466 CURVE SMOOTH",
"130 478 OFFCURVE",
"130 492 OFFCURVE",
"130 507 CURVE SMOOTH",
"132 557 OFFCURVE",
"132 590 OFFCURVE",
"131 604 CURVE",
"143 611 OFFCURVE",
"172 613 OFFCURVE",
"201 613 CURVE SMOOTH",
"212 613 OFFCURVE",
"222 613 OFFCURVE",
"232 612 CURVE SMOOTH",
"295 610 OFFCURVE",
"339 589 OFFCURVE",
"350 527 CURVE SMOOTH",
"352 517 OFFCURVE",
"353 507 OFFCURVE",
"353 497 CURVE SMOOTH",
"353 471 OFFCURVE",
"346 449 OFFCURVE",
"337 432 CURVE",
"319 392 OFFCURVE",
"293 379 OFFCURVE",
"234 379 CURVE SMOOTH"
);
}
);
width = 477;
},
{
anchors = (
{
name = bottom;
position = "{239, 0}";
},
{
name = center;
position = "{239, 361}";
},
{
name = top;
position = "{239, 722}";
}
);
hints = (
{
horizontal = 1;
place = "{295.7, 8.3}";
type = Stem;
},
{
place = "{40.25, 426.37}";
type = Stem;
},
{
place = "{82, 310}";
type = Stem;
}
);
layerId = "DF1E66B1-3A9E-4773-904B-B575E660C115";
paths = (
{
closed = 1;
nodes = (
"254 -4 OFFCURVE",
"281 -2 OFFCURVE",
"307 2 CURVE",
"333 5 OFFCURVE",
"357 12 OFFCURVE",
"378 23 CURVE SMOOTH",
"399 34 OFFCURVE",
"418 49 OFFCURVE",
"433 69 CURVE SMOOTH",
"448 88 OFFCURVE",
"458 114 OFFCURVE",
"463 145 CURVE SMOOTH",
"465 158 OFFCURVE",
"467 170 OFFCURVE",
"467 182 CURVE SMOOTH",
"467 189 OFFCURVE",
"466 196 OFFCURVE",
"465 203 CURVE SMOOTH",
"462 220 OFFCURVE",
"458 236 OFFCURVE",
"451 251 CURVE SMOOTH",
"444 265 OFFCURVE",
"435 279 OFFCURVE",
"426 292 CURVE",
"416 305 OFFCURVE",
"406 318 OFFCURVE",
"395 331 CURVE",
"392 335 OFFCURVE",
"389 338 OFFCURVE",
"388 341 CURVE SMOOTH",
"388 342 OFFCURVE",
"388 342 OFFCURVE",
"388 343 CURVE SMOOTH",
"388 345 OFFCURVE",
"389 346 OFFCURVE",
"390 352 CURVE",
"403 375 OFFCURVE",
"415 399 OFFCURVE",
"425 426 CURVE SMOOTH",
"434 453 OFFCURVE",
"439 480 OFFCURVE",
"439 508 CURVE SMOOTH",
"439 545 OFFCURVE",
"433 577 OFFCURVE",
"421 603 CURVE SMOOTH",
"409 628 OFFCURVE",
"393 649 OFFCURVE",
"372 666 CURVE SMOOTH",
"351 682 OFFCURVE",
"328 694 OFFCURVE",
"301 701 CURVE SMOOTH",
"268 710 OFFCURVE",
"231 714 OFFCURVE",
"195 714 CURVE SMOOTH",
"173 714 OFFCURVE",
"150 713 OFFCURVE",
"127 710 CURVE SMOOTH",
"97 706 OFFCURVE",
"68 700 OFFCURVE",
"42 693 CURVE",
"41 692 LINE",
"42 634 OFFCURVE",
"43 576 OFFCURVE",
"43 519 CURVE SMOOTH",
"43 462 OFFCURVE",
"42 405 OFFCURVE",
"41 348 CURVE SMOOTH",
"40 310 OFFCURVE",
"40 272 OFFCURVE",
"40 234 CURVE SMOOTH",
"40 157 OFFCURVE",
"41 81 OFFCURVE",
"44 4 CURVE",
"47 3 OFFCURVE",
"51 2 OFFCURVE",
"55 2 CURVE SMOOTH",
"58 2 OFFCURVE",
"62 2 OFFCURVE",
"66 2 CURVE",
"90 1 OFFCURVE",
"116 0 OFFCURVE",
"144 -2 CURVE SMOOTH",
"171 -4 OFFCURVE",
"199 -5 OFFCURVE",
"227 -5 CURVE"
);
},
{
closed = 1;
nodes = (
"198 32 OFFCURVE",
"181 33 OFFCURVE",
"164 34 CURVE",
"93 41 LINE",
"90 124 OFFCURVE",
"81 187 OFFCURVE",
"81 231 CURVE SMOOTH",
"81 278 OFFCURVE",
"86 290 OFFCURVE",
"87 298 CURVE",
"122 300 OFFCURVE",
"149 301 OFFCURVE",
"170 301 CURVE SMOOTH",
"194 301 OFFCURVE",
"209 300 OFFCURVE",
"216 300 CURVE",
"229 299 OFFCURVE",
"264 304 OFFCURVE",
"307 304 CURVE SMOOTH",
"350 303 OFFCURVE",
"379 280 OFFCURVE",
"395 233 CURVE SMOOTH",
"405 204 OFFCURVE",
"410 179 OFFCURVE",
"410 159 CURVE SMOOTH",
"410 146 OFFCURVE",
"408 135 OFFCURVE",
"404 126 CURVE SMOOTH",
"386 86 OFFCURVE",
"369 62 OFFCURVE",
"354 54 CURVE SMOOTH",
"338 45 OFFCURVE",
"312 39 OFFCURVE",
"275 35 CURVE SMOOTH",
"255 33 OFFCURVE",
"235 32 OFFCURVE",
"216 32 CURVE SMOOTH"
);
},
{
closed = 1;
nodes = (
"198 344 OFFCURVE",
"180 345 OFFCURVE",
"162 346 CURVE SMOOTH",
"147 347 OFFCURVE",
"134 347 OFFCURVE",
"123 347 CURVE SMOOTH",
"106 347 OFFCURVE",
"93 347 OFFCURVE",
"84 348 CURVE",
"84 366 OFFCURVE",
"81 408 OFFCURVE",
"81 467 CURVE SMOOTH",
"81 482 OFFCURVE",
"82 498 OFFCURVE",
"82 515 CURVE SMOOTH",
"83 564 OFFCURVE",
"84 602 OFFCURVE",
"84 627 CURVE SMOOTH",
"84 646 OFFCURVE",
"83 658 OFFCURVE",
"83 664 CURVE",
"93 669 OFFCURVE",
"112 673 OFFCURVE",
"141 674 CURVE SMOOTH",
"169 675 OFFCURVE",
"197 675 OFFCURVE",
"226 676 CURVE SMOOTH",
"255 676 OFFCURVE",
"288 668 OFFCURVE",
"327 653 CURVE SMOOTH",
"366 637 OFFCURVE",
"387 601 OFFCURVE",
"392 545 CURVE SMOOTH",
"393 533 OFFCURVE",
"393 523 OFFCURVE",
"393 512 CURVE SMOOTH",
"393 471 OFFCURVE",
"387 439 OFFCURVE",
"375 414 CURVE",
"361 381 OFFCURVE",
"350 363 OFFCURVE",
"342 359 CURVE SMOOTH",
"334 355 OFFCURVE",
"312 351 OFFCURVE",
"275 347 CURVE SMOOTH",
"255 345 OFFCURVE",
"235 344 OFFCURVE",
"215 344 CURVE SMOOTH"
);
}
);
width = 477;
}
);
leftKerningGroup = KO_H;
note = B;
rightKerningGroup = KO_B;
unicode = 0042;
userData = {
KernOnName = B;
};
},
{
color = 5;
glyphname = C;
lastChange = "2022-10-20 18:49:36 +0000";
layers = (
{
anchors = (
{
name = bottom;
position = "{244, 0}";
},
{
name = top;
position = "{244, 774}";
}
);
hints = (
{
horizontal = 1;
place = "{286, 135}";
type = Stem;
},
{
place = "{181, 16.27}";
type = Stem;
}
);
layerId = "9B0E9E80-6738-4704-8EC6-A4FB4E6479F4";
paths = (
{
closed = 1;
nodes = (
"237 -14 OFFCURVE",
"250 -13 OFFCURVE",
"263 -11 CURVE SMOOTH",
"295 -10 OFFCURVE",
"325 -2 OFFCURVE",
"352 11 CURVE SMOOTH",
"374 23 OFFCURVE",
"394 39 OFFCURVE",
"411 57 CURVE SMOOTH",
"438 86 OFFCURVE",
"456 123 OFFCURVE",
"464 162 CURVE SMOOTH",
"467 178 OFFCURVE",
"469 194 OFFCURVE",
"469 210 CURVE SMOOTH",
"469 233 OFFCURVE",
"466 257 OFFCURVE",
"458 280 CURVE",
"439 286 OFFCURVE",
"414 286 OFFCURVE",
"390 285 CURVE SMOOTH",
"378 285 OFFCURVE",
"366 285 OFFCURVE",
"355 285 CURVE SMOOTH",
"344 285 OFFCURVE",
"334 285 OFFCURVE",
"324 286 CURVE",
"317 253 OFFCURVE",
"326 218 OFFCURVE",
"311 187 CURVE SMOOTH",
"298 160 OFFCURVE",
"269 149 OFFCURVE",
"240 152 CURVE",
"222 157 OFFCURVE",
"210 168 OFFCURVE",
"201 183 CURVE SMOOTH",
"190 200 OFFCURVE",
"185 223 OFFCURVE",
"183 244 CURVE SMOOTH",
"181 274 OFFCURVE",
"180 314 OFFCURVE",
"180 355 CURVE SMOOTH",
"180 383 OFFCURVE",
"180 412 OFFCURVE",
"181 438 CURVE SMOOTH",
"183 488 OFFCURVE",
"185 526 OFFCURVE",
"187 529 CURVE",
"188 532 OFFCURVE",
"190 539 OFFCURVE",
"193 542 CURVE SMOOTH",
"204 553 OFFCURVE",
"226 555 OFFCURVE",
"243 558 CURVE",
"256 558 OFFCURVE",
"266 557 OFFCURVE",
"274 553 CURVE SMOOTH",
"287 547 OFFCURVE",
"295 537 OFFCURVE",
"300 525 CURVE SMOOTH",
"312 497 OFFCURVE",
"308 456 OFFCURVE",
"313 425 CURVE",
"344 419 OFFCURVE",
"372 415 OFFCURVE",
"402 415 CURVE SMOOTH",
"421 415 OFFCURVE",
"440 417 OFFCURVE",
"459 421 CURVE",
"468 446 OFFCURVE",
"472 470 OFFCURVE",
"472 494 CURVE SMOOTH",
"472 517 OFFCURVE",
"468 539 OFFCURVE",
"461 560 CURVE SMOOTH",
"447 606 OFFCURVE",
"417 646 OFFCURVE",
"379 675 CURVE SMOOTH",
"347 699 OFFCURVE",
"310 716 OFFCURVE",
"270 723 CURVE SMOOTH",
"256 725 OFFCURVE",
"242 726 OFFCURVE",
"228 726 CURVE SMOOTH",
"203 726 OFFCURVE",
"177 722 OFFCURVE",
"150 714 CURVE SMOOTH",
"96 700 OFFCURVE",
"66 667 OFFCURVE",
"44 604 CURVE SMOOTH",
"39 592 OFFCURVE",
"36 568 OFFCURVE",
"34 537 CURVE SMOOTH",
"31 494 OFFCURVE",
"30 438 OFFCURVE",
"30 379 CURVE SMOOTH",
"30 284 OFFCURVE",
"33 182 OFFCURVE",
"36 122 CURVE SMOOTH",
"40 83 OFFCURVE",
"57 54 OFFCURVE",
"81 33 CURVE SMOOTH",
"104 13 OFFCURVE",
"133 0 OFFCURVE",
"163 -7 CURVE SMOOTH",
"183 -12 OFFCURVE",
"203 -14 OFFCURVE",
"223 -14 CURVE SMOOTH"
);
}
);
width = 488;
},
{
anchors = (
{
name = bottom;
position = "{254, 0}";
},
{
name = top;
position = "{254, 774}";
}
);
hints = (
{
horizontal = 1;
place = "{296, 145}";
type = Stem;
},
{
place = "{191, 26}";
type = Stem;
}
);
layerId = "BB6A108D-08DB-4BF5-B99B-807E42D41E71";
paths = (
{
closed = 1;
nodes = (
"248 -14 OFFCURVE",
"264 -13 OFFCURVE",
"276 -11 CURVE",
"311 -9 OFFCURVE",
"346 0 OFFCURVE",
"370 12 CURVE SMOOTH",
"396 26 OFFCURVE",
"418 42 OFFCURVE",
"434 59 CURVE SMOOTH",
"465 91 OFFCURVE",
"484 126 OFFCURVE",
"492 166 CURVE SMOOTH",
"495 186 OFFCURVE",
"497 200 OFFCURVE",
"497 215 CURVE SMOOTH",
"497 241 OFFCURVE",
"493 262 OFFCURVE",
"485 287 CURVE",
"473 290 LINE SMOOTH",
"459 294 OFFCURVE",
"433 295 OFFCURVE",
"400 295 CURVE SMOOTH",
"365 295 LINE SMOOTH",
"341 295 OFFCURVE",
"342 295 OFFCURVE",
"318 298 CURVE",
"314 282 OFFCURVE",
"313 274 OFFCURVE",
"313 251 CURVE SMOOTH",
"312 221 OFFCURVE",
"310 205 OFFCURVE",
"305 194 CURVE SMOOTH",
"292 169 OFFCURVE",
"284 162 OFFCURVE",
"263 162 CURVE SMOOTH",
"249 162 OFFCURVE",
"238 171 OFFCURVE",
"226 191 CURVE SMOOTH",
"220 201 OFFCURVE",
"213 224 OFFCURVE",
"211 249 CURVE SMOOTH",
"209 277 OFFCURVE",
"208 317 OFFCURVE",
"208 360 CURVE SMOOTH",
"208 388 OFFCURVE",
"210 417 OFFCURVE",
"209 443 CURVE SMOOTH",
"207 547 OFFCURVE",
"220 560 OFFCURVE",
"253 560 CURVE SMOOTH",
"280 560 OFFCURVE",
"287 543 OFFCURVE",
"293 528 CURVE SMOOTH",
"298 518 OFFCURVE",
"300 501 OFFCURVE",
"302 466 CURVE SMOOTH",
"303 446 OFFCURVE",
"304 439 OFFCURVE",
"305 428 CURVE",
"348 419 OFFCURVE",
"380 415 OFFCURVE",
"412 415 CURVE SMOOTH",
"438 415 OFFCURVE",
"467 419 OFFCURVE",
"486 424 CURVE",
"496 452 OFFCURVE",
"500 474 OFFCURVE",
"500 499 CURVE SMOOTH",
"500 522 OFFCURVE",
"497 541 OFFCURVE",
"488 567 CURVE SMOOTH",
"475 610 OFFCURVE",
"445 650 OFFCURVE",
"400 684 CURVE SMOOTH",
"368 708 OFFCURVE",
"326 725 OFFCURVE",
"283 733 CURVE SMOOTH",
"270 735 OFFCURVE",
"253 736 OFFCURVE",
"238 736 CURVE SMOOTH",
"211 736 OFFCURVE",
"180 731 OFFCURVE",
"155 724 CURVE SMOOTH",
"94 706 OFFCURVE",
"61 680 OFFCURVE",
"37 611 CURVE SMOOTH",
"31 596 OFFCURVE",
"28 578 OFFCURVE",
"26 542 CURVE SMOOTH",
"23 503 OFFCURVE",
"22 451 OFFCURVE",
"22 384 CURVE SMOOTH",
"22 289 OFFCURVE",
"25 187 OFFCURVE",
"28 127 CURVE SMOOTH",
"32 89 OFFCURVE",
"47 62 OFFCURVE",
"79 34 CURVE SMOOTH",
"99 17 OFFCURVE",
"132 2 OFFCURVE",
"169 -7 CURVE SMOOTH",
"186 -11 OFFCURVE",
"210 -14 OFFCURVE",
"233 -14 CURVE SMOOTH"
);
}
);
width = 508;
},
{
anchors = (
{
name = bottom;
position = "{244, 0}";
},
{
name = top;
position = "{244, 777}";
}
);
layerId = "B033F76F-1B86-4758-A592-6C7B1BE8F750";
paths = (
{
closed = 1;
nodes = (
"319 -11 OFFCURVE",
"366 11 OFFCURVE",
"401 46 CURVE SMOOTH",
"445 88 OFFCURVE",
"470 150 OFFCURVE",
"470 216 CURVE SMOOTH",
"470 238 OFFCURVE",
"467 260 OFFCURVE",
"461 283 CURVE",
"453 285 OFFCURVE",
"444 285 OFFCURVE",
"434 285 CURVE SMOOTH",
"414 285 OFFCURVE",
"391 283 OFFCURVE",
"372 284 CURVE",
"373 203 OFFCURVE",
"354 141 OFFCURVE",
"314 110 CURVE SMOOTH",
"296 95 OFFCURVE",
"273 87 OFFCURVE",
"245 87 CURVE SMOOTH",
"228 87 OFFCURVE",
"209 90 OFFCURVE",
"189 96 CURVE SMOOTH",
"162 104 OFFCURVE",
"146 121 OFFCURVE",
"137 146 CURVE SMOOTH",
"128 172 OFFCURVE",
"125 207 OFFCURVE",
"125 248 CURVE SMOOTH",
"125 284 OFFCURVE",
"127 326 OFFCURVE",
"128 371 CURVE",
"125 543 OFFCURVE",
"150 602 OFFCURVE",
"202 611 CURVE SMOOTH",
"212 613 OFFCURVE",
"221 613 OFFCURVE",
"231 613 CURVE SMOOTH",
"286 613 OFFCURVE",
"336 587 OFFCURVE",
"356 543 CURVE SMOOTH",
"371 509 OFFCURVE",
"369 465 OFFCURVE",
"369 421 CURVE",
"383 418 OFFCURVE",
"398 415 OFFCURVE",
"417 415 CURVE SMOOTH",
"431 415 OFFCURVE",
"447 417 OFFCURVE",
"465 420 CURVE",
"469 439 OFFCURVE",
"471 458 OFFCURVE",
"471 476 CURVE SMOOTH",
"471 502 OFFCURVE",
"467 527 OFFCURVE",
"460 551 CURVE SMOOTH",
"448 591 OFFCURVE",
"427 627 OFFCURVE",
"399 656 CURVE SMOOTH",
"356 700 OFFCURVE",
"296 727 OFFCURVE",
"230 727 CURVE SMOOTH",
"204 727 OFFCURVE",
"177 724 OFFCURVE",
"150 714 CURVE SMOOTH",
"76 688 OFFCURVE",
"33 621 OFFCURVE",
"33 540 CURVE SMOOTH",
"33 458 OFFCURVE",
"31 392 OFFCURVE",
"31 336 CURVE SMOOTH",
"31 245 OFFCURVE",
"33 182 OFFCURVE",
"36 122 CURVE",
"41 67 OFFCURVE",
"73 34 OFFCURVE",
"115 15 CURVE SMOOTH",
"159 -6 OFFCURVE",
"214 -11 OFFCURVE",
"263 -11 CURVE SMOOTH"
);
}
);
width = 488;
},
{
anchors = (
{
name = bottom;
position = "{235, 0}";
},
{
name = top;
position = "{244, 759}";
}
);
hints = (
{
horizontal = 1;
place = "{-12, 40}";
type = Stem;
},
{
horizontal = 1;
place = "{680, 46}";
type = Stem;
},
{
place = "{32, 32.3}";
type = Stem;
},
{
place = "{423.98, 41.02}";
type = Stem;
},
{
place = "{425, 48.25}";
type = Stem;
}
);
layerId = "DF1E66B1-3A9E-4773-904B-B575E660C115";
paths = (
{
closed = 1;
nodes = (
"235 -14 OFFCURVE",
"249 -13 OFFCURVE",
"263 -11 CURVE",
"300 -10 OFFCURVE",
"333 -1 OFFCURVE",
"362 17 CURVE SMOOTH",
"391 34 OFFCURVE",
"414 57 OFFCURVE",
"432 84 CURVE SMOOTH",
"450 111 OFFCURVE",
"462 142 OFFCURVE",
"467 177 CURVE SMOOTH",
"469 193 OFFCURVE",
"471 209 OFFCURVE",
"471 226 CURVE SMOOTH",
"471 245 OFFCURVE",
"469 266 OFFCURVE",
"465 287 CURVE",
"451 285 OFFCURVE",
"436 284 OFFCURVE",
"421 283 CURVE",
"423 264 OFFCURVE",
"424 247 OFFCURVE",
"424 231 CURVE SMOOTH",
"424 174 OFFCURVE",
"412 130 OFFCURVE",
"387 98 CURVE SMOOTH",
"349 50 OFFCURVE",
"302 27 OFFCURVE",
"243 27 CURVE SMOOTH",
"204 27 OFFCURVE",
"169 36 OFFCURVE",
"137 55 CURVE SMOOTH",
"98 78 OFFCURVE",
"77 125 OFFCURVE",
"76 197 CURVE",
"76 360 LINE",
"76 375 OFFCURVE",
"75 389 OFFCURVE",
"75 403 CURVE SMOOTH",
"75 501 OFFCURVE",
"88 573 OFFCURVE",
"112 618 CURVE SMOOTH",
"134 659 OFFCURVE",
"167 680 OFFCURVE",
"209 680 CURVE SMOOTH",
"293 680 OFFCURVE",
"348 661 OFFCURVE",
"373 628 CURVE SMOOTH",
"398 595 OFFCURVE",
"413 571 OFFCURVE",
"417 554 CURVE",
"420 537 OFFCURVE",
"423 512 OFFCURVE",
"425 481 CURVE SMOOTH",
"426 462 OFFCURVE",
"427 447 OFFCURVE",
"427 436 CURVE SMOOTH",
"427 428 OFFCURVE",
"426 422 OFFCURVE",
"426 418 CURVE",
"422 415 OFFCURVE",
"437 415 OFFCURVE",
"471 420 CURVE",
"473 436 OFFCURVE",
"473 451 OFFCURVE",
"473 466 CURVE SMOOTH",
"473 482 OFFCURVE",
"473 497 OFFCURVE",
"471 511 CURVE SMOOTH",
"468 540 OFFCURVE",
"461 568 OFFCURVE",
"448 593 CURVE SMOOTH",
"435 618 OFFCURVE",
"418 640 OFFCURVE",
"397 659 CURVE SMOOTH",
"376 678 OFFCURVE",
"352 694 OFFCURVE",
"326 706 CURVE",
"295 719 OFFCURVE",
"262 727 OFFCURVE",
"226 727 CURVE SMOOTH",
"201 727 OFFCURVE",
"176 722 OFFCURVE",
"150 714 CURVE SMOOTH",
"141 711 OFFCURVE",
"132 708 OFFCURVE",
"123 705 CURVE",
"114 701 OFFCURVE",
"106 696 OFFCURVE",
"99 691 CURVE",
"86 680 OFFCURVE",
"76 667 OFFCURVE",
"67 652 CURVE SMOOTH",
"58 637 OFFCURVE",
"50 621 OFFCURVE",
"44 604 CURVE",
"40 594 OFFCURVE",
"36 572 OFFCURVE",
"33 537 CURVE",
"32 483 OFFCURVE",
"32 436 OFFCURVE",
"32 395 CURVE SMOOTH",
"32 375 OFFCURVE",
"31 355 OFFCURVE",
"31 337 CURVE SMOOTH",
"31 318 OFFCURVE",
"32 301 OFFCURVE",
"32 285 CURVE SMOOTH",
"32 252 OFFCURVE",
"32 223 OFFCURVE",
"33 197 CURVE SMOOTH",
"34 171 OFFCURVE",
"35 146 OFFCURVE",
"36 122 CURVE",
"39 94 OFFCURVE",
"48 71 OFFCURVE",
"63 52 CURVE SMOOTH",
"78 33 OFFCURVE",
"96 19 OFFCURVE",
"118 9 CURVE",
"140 -2 OFFCURVE",
"164 -9 OFFCURVE",
"189 -12 CURVE SMOOTH",
"199 -13 OFFCURVE",
"210 -14 OFFCURVE",
"220 -14 CURVE SMOOTH"
);
}
);
width = 488;
}
);
leftKerningGroup = KO_C;
note = C;
rightKerningGroup = KO_C;
unicode = 0043;
userData = {
KernOnName = C;
};
},
{
color = 5;
glyphname = D;
lastChange = "2022-10-20 22:32:18 +0000";
layers = (
{
anchors = (
{
name = bottom;
position = "{241, 0}";
},
{
name = center;
position = "{241, 361}";
},
{
name = top;
position = "{207, 739}";
}
);
hints = (
{
horizontal = 1;
place = "{1, 702}";
type = Stem;
},
{
place = "{182, 147.25}";
type = Stem;
}
);
layerId = "9B0E9E80-6738-4704-8EC6-A4FB4E6479F4";
paths = (
{
closed = 1;
nodes = (
"99 2 OFFCURVE",
"143 2 OFFCURVE",
"187 2 CURVE SMOOTH",
"231 3 OFFCURVE",
"276 3 OFFCURVE",
"320 5 CURVE",
"348 39 OFFCURVE",
"375 75 OFFCURVE",
"398 114 CURVE SMOOTH",
"405 125 OFFCURVE",
"413 139 OFFCURVE",
"421 155 CURVE SMOOTH",
"430 173 OFFCURVE",
"439 194 OFFCURVE",
"448 219 CURVE SMOOTH",
"459 251 OFFCURVE",
"462 285 OFFCURVE",
"462 320 CURVE SMOOTH",
"462 349 OFFCURVE",
"461 378 OFFCURVE",
"462 407 CURVE",
"461 428 OFFCURVE",
"460 449 OFFCURVE",
"453 470 CURVE",
"446 500 OFFCURVE",
"437 528 OFFCURVE",
"425 556 CURVE SMOOTH",
"416 577 OFFCURVE",
"406 597 OFFCURVE",
"393 617 CURVE SMOOTH",
"382 636 OFFCURVE",
"366 653 OFFCURVE",
"348 667 CURVE SMOOTH",
"329 683 OFFCURVE",
"307 695 OFFCURVE",
"284 701 CURVE",
"274 701 OFFCURVE",
"263 700 OFFCURVE",
"253 700 CURVE SMOOTH",
"221 700 OFFCURVE",
"188 702 OFFCURVE",
"155 702 CURVE SMOOTH",
"117 702 OFFCURVE",
"78 700 OFFCURVE",
"43 691 CURVE",
"41 663 OFFCURVE",
"41 631 OFFCURVE",
"41 596 CURVE SMOOTH",
"41 574 OFFCURVE",
"41 550 OFFCURVE",
"41 526 CURVE SMOOTH",
"41 470 OFFCURVE",
"40 414 OFFCURVE",
"39 359 CURVE SMOOTH",
"39 302 OFFCURVE",
"41 245 OFFCURVE",
"41 190 CURVE SMOOTH",
"41 145 OFFCURVE",
"45 112 OFFCURVE",
"57 2 CURVE"
);
},
{
closed = 1;
nodes = (
"204 213 OFFCURVE",
"192 215 OFFCURVE",
"184 222 CURVE",
"183 248 OFFCURVE",
"182 275 OFFCURVE",
"182 302 CURVE SMOOTH",
"182 320 OFFCURVE",
"183 339 OFFCURVE",
"183 357 CURVE SMOOTH",
"184 380 OFFCURVE",
"184 402 OFFCURVE",
"184 422 CURVE SMOOTH",
"184 443 OFFCURVE",
"184 463 OFFCURVE",
"182 481 CURVE SMOOTH",
"197 486 OFFCURVE",
"207 489 OFFCURVE",
"224 489 CURVE SMOOTH",
"233 489 OFFCURVE",
"245 488 OFFCURVE",
"260 486 CURVE",
"281 479 OFFCURVE",
"294 464 OFFCURVE",
"304 447 CURVE SMOOTH",
"315 426 OFFCURVE",
"321 401 OFFCURVE",
"325 379 CURVE SMOOTH",
"328 367 OFFCURVE",
"329 355 OFFCURVE",
"329 344 CURVE SMOOTH",
"329 332 OFFCURVE",
"328 322 OFFCURVE",
"326 311 CURVE SMOOTH",
"321 290 OFFCURVE",
"312 271 OFFCURVE",
"301 254 CURVE SMOOTH",
"293 242 OFFCURVE",
"283 230 OFFCURVE",
"270 222 CURVE",
"256 215 OFFCURVE",
"242 213 OFFCURVE",
"217 213 CURVE SMOOTH"
);
}
);
width = 482;
},
{
anchors = (
{
name = bottom;
position = "{251, 0}";
},
{
name = center;
position = "{251, 361}";
},
{
name = top;
position = "{210, 743}";
}
);
hints = (
{
horizontal = 1;
place = "{11, 712}";
type = Stem;
},
{
place = "{192, 157}";
type = Stem;
}
);
layerId = "BB6A108D-08DB-4BF5-B99B-807E42D41E71";
paths = (
{
closed = 1;
nodes = (
"67 -4 LINE",
"109 -4 OFFCURVE",
"153 -4 OFFCURVE",
"197 -4 CURVE SMOOTH",
"212 -4 OFFCURVE",
"226 -3 OFFCURVE",
"242 -3 CURVE SMOOTH",
"275 -3 OFFCURVE",
"310 -2 OFFCURVE",
"343 0 CURVE",
"375 39 OFFCURVE",
"403 76 OFFCURVE",
"423 110 CURVE SMOOTH",
"432 124 OFFCURVE",
"442 141 OFFCURVE",
"447 152 CURVE SMOOTH",
"459 175 OFFCURVE",
"467 194 OFFCURVE",
"475 216 CURVE SMOOTH",
"486 247 OFFCURVE",
"490 277 OFFCURVE",
"490 319 CURVE SMOOTH",
"490 329 OFFCURVE",
"490 338 OFFCURVE",
"490 348 CURVE SMOOTH",
"490 367 OFFCURVE",
"489 387 OFFCURVE",
"490 406 CURVE",
"488 438 OFFCURVE",
"486 452 OFFCURVE",
"480 470 CURVE",
"474 499 OFFCURVE",
"465 526 OFFCURVE",
"452 557 CURVE SMOOTH",
"443 578 OFFCURVE",
"432 597 OFFCURVE",
"418 619 CURVE SMOOTH",
"410 634 OFFCURVE",
"393 652 OFFCURVE",
"369 670 CURVE SMOOTH",
"352 685 OFFCURVE",
"332 698 OFFCURVE",
"305 705 CURVE",
"286 705 OFFCURVE",
"270 704 OFFCURVE",
"263 704 CURVE SMOOTH",
"248 704 OFFCURVE",
"232 704 OFFCURVE",
"215 705 CURVE SMOOTH",
"199 705 OFFCURVE",
"182 706 OFFCURVE",
"165 706 CURVE SMOOTH",
"107 706 OFFCURVE",
"64 701 OFFCURVE",
"35 691 CURVE",
"33 662 OFFCURVE",
"33 630 OFFCURVE",
"33 595 CURVE SMOOTH",
"33 572 OFFCURVE",
"33 548 OFFCURVE",
"33 525 CURVE SMOOTH",
"33 469 OFFCURVE",
"32 413 OFFCURVE",
"31 358 CURVE SMOOTH",
"31 329 OFFCURVE",
"32 300 OFFCURVE",
"32 272 CURVE SMOOTH",
"33 244 OFFCURVE",
"33 216 OFFCURVE",
"33 189 CURVE SMOOTH",
"33 144 OFFCURVE",
"37 108 OFFCURVE",
"49 -4 CURVE"
);
},
{
closed = 1;
nodes = (
"218 217 OFFCURVE",
"215 217 OFFCURVE",
"212 219 CURVE",
"211 245 OFFCURVE",
"210 273 OFFCURVE",
"210 301 CURVE SMOOTH",
"210 310 OFFCURVE",
"210 319 OFFCURVE",
"210 328 CURVE SMOOTH",
"211 338 OFFCURVE",
"211 347 OFFCURVE",
"211 356 CURVE SMOOTH",
"212 379 OFFCURVE",
"212 401 OFFCURVE",
"212 421 CURVE SMOOTH",
"212 452 OFFCURVE",
"212 465 OFFCURVE",
"210 479 CURVE",
"219 482 OFFCURVE",
"225 483 OFFCURVE",
"234 483 CURVE SMOOTH",
"241 483 OFFCURVE",
"250 482 OFFCURVE",
"263 481 CURVE",
"275 477 OFFCURVE",
"285 466 OFFCURVE",
"298 444 CURVE SMOOTH",
"305 430 OFFCURVE",
"312 407 OFFCURVE",
"317 377 CURVE",
"320 369 OFFCURVE",
"321 356 OFFCURVE",
"321 343 CURVE SMOOTH",
"321 332 OFFCURVE",
"320 321 OFFCURVE",
"318 311 CURVE SMOOTH",
"313 287 OFFCURVE",
"304 268 OFFCURVE",
"296 256 CURVE SMOOTH",
"281 234 OFFCURVE",
"272 224 OFFCURVE",
"250 219 CURVE SMOOTH",
"237 216 OFFCURVE",
"232 217 OFFCURVE",
"227 217 CURVE SMOOTH"
);
}
);
width = 502;
},
{
anchors = (
{
name = bottom;
position = "{232, 2}";
},
{
name = center;
position = "{241, 361}";
},
{
name = top;
position = "{202, 735}";
}
);
layerId = "B033F76F-1B86-4758-A592-6C7B1BE8F750";
paths = (
{
closed = 1;
nodes = (
"141 2 OFFCURVE",
"232 2 OFFCURVE",
"320 5 CURVE",
"363 59 OFFCURVE",
"411 129 OFFCURVE",
"432 179 CURVE SMOOTH",
"457 244 OFFCURVE",
"466 285 OFFCURVE",
"466 337 CURVE SMOOTH",
"466 358 OFFCURVE",
"464 380 OFFCURVE",
"462 407 CURVE SMOOTH",
"456 479 OFFCURVE",
"431 556 OFFCURVE",
"393 617 CURVE SMOOTH",
"369 656 OFFCURVE",
"327 690 OFFCURVE",
"284 701 CURVE",
"272 701 OFFCURVE",
"261 700 OFFCURVE",
"251 700 CURVE SMOOTH",
"217 700 OFFCURVE",
"189 702 OFFCURVE",
"159 702 CURVE SMOOTH",
"125 702 OFFCURVE",
"90 699 OFFCURVE",
"40 687 CURVE",
"41 653 OFFCURVE",
"41 619 OFFCURVE",
"41 584 CURVE SMOOTH",
"41 500 OFFCURVE",
"39 416 OFFCURVE",
"39 334 CURVE SMOOTH",
"39 219 OFFCURVE",
"42 107 OFFCURVE",
"57 2 CURVE"
);
},
{
closed = 1;
nodes = (
"165 129 OFFCURVE",
"146 130 OFFCURVE",
"139 135 CURVE",
"138 156 OFFCURVE",
"136 193 OFFCURVE",
"134 245 CURVE SMOOTH",
"133 275 OFFCURVE",
"132 301 OFFCURVE",
"132 322 CURVE SMOOTH",
"132 336 OFFCURVE",
"133 348 OFFCURVE",
"133 357 CURVE SMOOTH",
"134 379 OFFCURVE",
"135 415 OFFCURVE",
"135 465 CURVE SMOOTH",
"135 515 OFFCURVE",
"134 550 OFFCURVE",
"131 571 CURVE",
"136 571 LINE",
"184 575 OFFCURVE",
"216 576 OFFCURVE",
"232 575 CURVE",
"242 575 OFFCURVE",
"253 574 OFFCURVE",
"266 573 CURVE",
"307 565 OFFCURVE",
"363 498 OFFCURVE",
"373 386 CURVE SMOOTH",
"374 374 OFFCURVE",
"375 362 OFFCURVE",
"375 350 CURVE SMOOTH",
"375 338 OFFCURVE",
"374 326 OFFCURVE",
"373 314 CURVE",
"363 255 OFFCURVE",
"348 212 OFFCURVE",
"329 187 CURVE SMOOTH",
"294 141 OFFCURVE",
"291 131 OFFCURVE",
"194 129 CURVE SMOOTH"
);
}
);
width = 482;
},
{
anchors = (
{
name = bottom;
position = "{204, 0}";
},
{
name = center;
position = "{241, 361}";
},
{
name = top;
position = "{210, 722}";
}
);
hints = (
{
horizontal = 1;
place = "{590.12, 72.88}";
type = Stem;
},
{
place = "{39, 423}";
type = Stem;
}
);
layerId = "DF1E66B1-3A9E-4773-904B-B575E660C115";
paths = (
{
closed = 1;
nodes = (
"57 2 LINE",
"99 2 OFFCURVE",
"142 2 OFFCURVE",
"187 3 CURVE SMOOTH",
"232 3 OFFCURVE",
"276 4 OFFCURVE",
"320 5 CURVE",
"345 36 OFFCURVE",
"370 70 OFFCURVE",
"393 105 CURVE SMOOTH",
"416 140 OFFCURVE",
"430 168 OFFCURVE",
"437 188 CURVE SMOOTH",
"444 208 OFFCURVE",
"459 254 OFFCURVE",
"459 313 CURVE",
"460 344 OFFCURVE",
"461 376 OFFCURVE",
"462 407 CURVE",
"461 418 OFFCURVE",
"461 428 OFFCURVE",
"460 439 CURVE SMOOTH",
"459 449 OFFCURVE",
"456 459 OFFCURVE",
"453 470 CURVE",
"447 497 OFFCURVE",
"439 522 OFFCURVE",
"429 547 CURVE SMOOTH",
"419 571 OFFCURVE",
"407 594 OFFCURVE",
"393 617 CURVE SMOOTH",
"354 679 OFFCURVE",
"336 687 OFFCURVE",
"284 701 CURVE",
"265 700 OFFCURVE",
"245 700 OFFCURVE",
"225 701 CURVE SMOOTH",
"204 702 OFFCURVE",
"184 702 OFFCURVE",
"163 703 CURVE",
"93 703 OFFCURVE",
"82 699 OFFCURVE",
"65 696 CURVE",
"64 695 OFFCURVE",
"50 691 OFFCURVE",
"40 690 CURVE",
"41 649 OFFCURVE",
"41 606 OFFCURVE",
"41 564 CURVE SMOOTH",
"41 547 OFFCURVE",
"41 529 OFFCURVE",
"41 512 CURVE SMOOTH",
"40 453 OFFCURVE",
"39 394 OFFCURVE",
"39 336 CURVE SMOOTH",
"39 278 OFFCURVE",
"40 221 OFFCURVE",
"42 165 CURVE SMOOTH",
"44 108 OFFCURVE",
"49 54 OFFCURVE",
"56 1 CURVE"
);
},
{
closed = 1;
nodes = (
"116 46 OFFCURVE",
"99 47 OFFCURVE",
"94 49 CURVE",
"93 69 OFFCURVE",
"90 120 OFFCURVE",
"86 201 CURVE SMOOTH",
"84 242 OFFCURVE",
"84 273 OFFCURVE",
"84 298 CURVE SMOOTH",
"84 323 OFFCURVE",
"84 342 OFFCURVE",
"84 357 CURVE",
"86 379 OFFCURVE",
"87 429 OFFCURVE",
"87 508 CURVE SMOOTH",
"87 587 OFFCURVE",
"87 636 OFFCURVE",
"80 657 CURVE",
"88 657 LINE",
"165 661 OFFCURVE",
"210 663 OFFCURVE",
"223 663 CURVE",
"236 662 OFFCURVE",
"253 662 OFFCURVE",
"273 661 CURVE SMOOTH",
"293 660 OFFCURVE",
"318 643 OFFCURVE",
"348 608 CURVE SMOOTH",
"377 573 OFFCURVE",
"400 518 OFFCURVE",
"417 441 CURVE",
"420 415 OFFCURVE",
"421 388 OFFCURVE",
"421 362 CURVE SMOOTH",
"421 340 OFFCURVE",
"420 318 OFFCURVE",
"418 296 CURVE",
"400 206 OFFCURVE",
"380 148 OFFCURVE",
"358 122 CURVE",
"290 50 LINE",
"259 50 LINE",
"247 49 OFFCURVE",
"218 47 OFFCURVE",
"173 46 CURVE SMOOTH",
"162 46 OFFCURVE",
"152 46 OFFCURVE",
"143 46 CURVE SMOOTH"
);
}
);
width = 482;
}
);
leftKerningGroup = KO_H;
note = D;
rightKerningGroup = KO_D;
unicode = 0044;
},
{
color = 5;
glyphname = Eth;
lastChange = "2022-10-20 19:04:39 +0000";
layers = (
{
anchors = (
{
name = bottom;
position = "{241, 0}";
},
{
name = center;
position = "{241, 361}";
},
{
name = top;
position = "{207, 739}";
}
);
hints = (
{
horizontal = 1;
place = "{204.39, 73.11}";
type = Stem;
},
{
horizontal = 1;
place = "{405.5, 128}";
type = Stem;
},
{
place = "{230, 102}";
type = Stem;
},
{
horizontal = 1;
place = "{1, 702}";
type = Stem;
},
{
place = "{182, 147.25}";
type = Stem;
}
);
layerId = "9B0E9E80-6738-4704-8EC6-A4FB4E6479F4";
paths = (
{
closed = 1;
nodes = (
"25 272 LINE SMOOTH",
"27 272 OFFCURVE",
"32 272 OFFCURVE",
"40 273 CURVE",
"41 245 OFFCURVE",
"41 217 OFFCURVE",
"41 190 CURVE SMOOTH",
"41 145 OFFCURVE",
"45 112 OFFCURVE",
"57 2 CURVE",
"187 2 LINE SMOOTH",
"231 3 OFFCURVE",
"276 3 OFFCURVE",
"320 5 CURVE",
"348 39 OFFCURVE",
"375 75 OFFCURVE",
"398 114 CURVE SMOOTH",
"405 125 OFFCURVE",
"413 139 OFFCURVE",
"421 155 CURVE SMOOTH",
"430 173 OFFCURVE",
"439 194 OFFCURVE",
"448 219 CURVE SMOOTH",
"459 251 OFFCURVE",
"462 285 OFFCURVE",
"462 320 CURVE SMOOTH",
"462 349 OFFCURVE",
"461 378 OFFCURVE",
"462 407 CURVE SMOOTH",
"461 428 OFFCURVE",
"460 449 OFFCURVE",
"453 470 CURVE",
"446 500 OFFCURVE",
"437 528 OFFCURVE",
"425 556 CURVE SMOOTH",
"416 577 OFFCURVE",
"406 597 OFFCURVE",
"393 617 CURVE SMOOTH",
"382 636 OFFCURVE",
"366 653 OFFCURVE",
"348 667 CURVE SMOOTH",
"329 683 OFFCURVE",
"307 695 OFFCURVE",
"284 701 CURVE",
"274 701 OFFCURVE",
"263 700 OFFCURVE",
"253 700 CURVE SMOOTH",
"221 700 OFFCURVE",
"188 702 OFFCURVE",
"155 702 CURVE SMOOTH",
"117 702 OFFCURVE",
"78 700 OFFCURVE",
"43 691 CURVE",
"41 663 OFFCURVE",
"41 631 OFFCURVE",
"41 596 CURVE SMOOTH",
"41 526 LINE SMOOTH",
"41 487 OFFCURVE",
"41 448 OFFCURVE",
"40 409 CURVE",
"-5 410 LINE",
"-6 379 OFFCURVE",
"-5 354 OFFCURVE",
"-4 333 CURVE SMOOTH",
"-2 312 OFFCURVE",
"-1 291 OFFCURVE",
"-1 272 CURVE"
);
},
{
closed = 1;
nodes = (
"197 486 OFFCURVE",
"207 489 OFFCURVE",
"224 489 CURVE SMOOTH",
"233 489 OFFCURVE",
"245 488 OFFCURVE",
"260 486 CURVE",
"281 479 OFFCURVE",
"294 464 OFFCURVE",
"304 447 CURVE SMOOTH",
"315 426 OFFCURVE",
"321 401 OFFCURVE",
"325 379 CURVE SMOOTH",
"328 367 OFFCURVE",
"329 355 OFFCURVE",
"329 344 CURVE SMOOTH",
"329 332 OFFCURVE",
"328 322 OFFCURVE",
"326 311 CURVE SMOOTH",
"321 290 OFFCURVE",
"312 271 OFFCURVE",
"301 254 CURVE SMOOTH",
"293 242 OFFCURVE",
"283 230 OFFCURVE",
"270 222 CURVE SMOOTH",
"256 215 OFFCURVE",
"242 213 OFFCURVE",
"217 213 CURVE SMOOTH",
"204 213 OFFCURVE",
"192 215 OFFCURVE",
"184 222 CURVE",
"183 240 OFFCURVE",
"183 259 OFFCURVE",
"182 278 CURVE",
"230 277 LINE",
"230 312 LINE SMOOTH",
"229 325 OFFCURVE",
"229 337 OFFCURVE",
"229 350 CURVE SMOOTH",
"228 362 OFFCURVE",
"228 373 OFFCURVE",
"228 384 CURVE SMOOTH",
"227 405 LINE",
"184 406 LINE",
"184 422 LINE SMOOTH",
"184 443 OFFCURVE",
"184 463 OFFCURVE",
"182 481 CURVE"
);
}
);
width = 482;
},
{
anchors = (
{
name = bottom;
position = "{291, 0}";
},
{
name = center;
position = "{291, 361}";
},
{
name = top;
position = "{250, 743}";
}
);
hints = (
{
horizontal = 1;
place = "{214, 83}";
type = Stem;
},
{
horizontal = 1;
place = "{416, 138}";
type = Stem;
},
{
place = "{240, 112}";
type = Stem;
},
{
horizontal = 1;
place = "{11, 712}";
type = Stem;
},
{
place = "{232, 157}";
type = Stem;
}
);
layerId = "BB6A108D-08DB-4BF5-B99B-807E42D41E71";
paths = (
{
closed = 1;
nodes = (
"46 272 OFFCURVE",
"59 272 OFFCURVE",
"72 272 CURVE",
"73 244 OFFCURVE",
"73 216 OFFCURVE",
"73 189 CURVE SMOOTH",
"73 144 OFFCURVE",
"77 108 OFFCURVE",
"89 -4 CURVE",
"107 -4 LINE",
"237 -4 LINE SMOOTH",
"252 -4 OFFCURVE",
"266 -3 OFFCURVE",
"282 -3 CURVE SMOOTH",
"315 -3 OFFCURVE",
"350 -2 OFFCURVE",
"383 0 CURVE",
"415 39 OFFCURVE",
"443 76 OFFCURVE",
"463 110 CURVE SMOOTH",
"472 124 OFFCURVE",
"482 141 OFFCURVE",
"487 152 CURVE SMOOTH",
"499 175 OFFCURVE",
"507 194 OFFCURVE",
"515 216 CURVE SMOOTH",
"526 247 OFFCURVE",
"530 277 OFFCURVE",
"530 319 CURVE SMOOTH",
"530 348 LINE SMOOTH",
"530 367 OFFCURVE",
"529 387 OFFCURVE",
"530 406 CURVE",
"528 438 OFFCURVE",
"526 452 OFFCURVE",
"520 470 CURVE",
"514 499 OFFCURVE",
"505 526 OFFCURVE",
"492 557 CURVE SMOOTH",
"483 578 OFFCURVE",
"472 597 OFFCURVE",
"458 619 CURVE SMOOTH",
"450 634 OFFCURVE",
"433 652 OFFCURVE",
"409 670 CURVE SMOOTH",
"392 685 OFFCURVE",
"372 698 OFFCURVE",
"345 705 CURVE",
"326 705 OFFCURVE",
"310 704 OFFCURVE",
"303 704 CURVE SMOOTH",
"288 704 OFFCURVE",
"272 704 OFFCURVE",
"255 705 CURVE SMOOTH",
"239 705 OFFCURVE",
"222 706 OFFCURVE",
"205 706 CURVE SMOOTH",
"147 706 OFFCURVE",
"104 701 OFFCURVE",
"75 691 CURVE",
"73 662 OFFCURVE",
"73 630 OFFCURVE",
"73 595 CURVE SMOOTH",
"73 525 LINE SMOOTH",
"73 488 OFFCURVE",
"73 451 OFFCURVE",
"72 414 CURVE",
"27 415 LINE",
"26 382 OFFCURVE",
"27 356 OFFCURVE",
"28 333 CURVE SMOOTH",
"30 313 OFFCURVE",
"31 291 OFFCURVE",
"31 272 CURVE"
);
},
{
closed = 1;
nodes = (
"259 482 OFFCURVE",
"265 483 OFFCURVE",
"274 483 CURVE SMOOTH",
"281 483 OFFCURVE",
"290 482 OFFCURVE",
"303 481 CURVE",
"315 477 OFFCURVE",
"325 466 OFFCURVE",
"338 444 CURVE SMOOTH",
"345 430 OFFCURVE",
"352 407 OFFCURVE",
"357 377 CURVE",
"360 369 OFFCURVE",
"361 356 OFFCURVE",
"361 343 CURVE SMOOTH",
"361 332 OFFCURVE",
"360 321 OFFCURVE",
"358 311 CURVE SMOOTH",
"353 287 OFFCURVE",
"344 268 OFFCURVE",
"336 256 CURVE SMOOTH",
"321 234 OFFCURVE",
"312 224 OFFCURVE",
"290 219 CURVE SMOOTH",
"277 216 OFFCURVE",
"272 217 OFFCURVE",
"267 217 CURVE SMOOTH",
"258 217 OFFCURVE",
"255 217 OFFCURVE",
"252 219 CURVE",
"251 236 OFFCURVE",
"251 254 OFFCURVE",
"250 273 CURVE",
"298 272 LINE",
"298 312 LINE SMOOTH",
"297 325 OFFCURVE",
"297 337 OFFCURVE",
"297 350 CURVE SMOOTH",
"296 362 OFFCURVE",
"296 373 OFFCURVE",
"296 384 CURVE SMOOTH",
"295 410 LINE",
"252 411 LINE",
"252 421 LINE SMOOTH",
"252 452 OFFCURVE",
"252 465 OFFCURVE",
"250 479 CURVE"
);
}
);
width = 542;
},
{
layerId = "B033F76F-1B86-4758-A592-6C7B1BE8F750";
paths = (
{
closed = 1;
nodes = (
"249 1 OFFCURVE",
"285 2 OFFCURVE",
"319 6 CURVE",
"342 24 OFFCURVE",
"369 49 OFFCURVE",
"394 90 CURVE SMOOTH",
"425 141 OFFCURVE",
"439 185 OFFCURVE",
"446 218 CURVE",
"447 219 LINE",
"458 269 OFFCURVE",
"460 322 OFFCURVE",
"460 374 CURVE SMOOTH",
"460 385 OFFCURVE",
"460 396 OFFCURVE",
"460 407 CURVE",
"458 431 OFFCURVE",
"455 455 OFFCURVE",
"448 478 CURVE",
"424 586 OFFCURVE",
"369 681 OFFCURVE",
"273 701 CURVE",
"252 702 OFFCURVE",
"230 703 OFFCURVE",
"207 703 CURVE SMOOTH",
"153 703 OFFCURVE",
"97 699 OFFCURVE",
"47 689 CURVE",
"45 676 OFFCURVE",
"44 657 OFFCURVE",
"44 636 CURVE SMOOTH",
"44 600 OFFCURVE",
"46 558 OFFCURVE",
"46 529 CURVE SMOOTH",
"46 482 OFFCURVE",
"45 436 OFFCURVE",
"45 391 CURVE",
"22 391 LINE",
"-3 391 LINE",
"-3 353 OFFCURVE",
"-3 324 OFFCURVE",
"-3 297 CURVE",
"12 296 OFFCURVE",
"29 295 OFFCURVE",
"45 295 CURVE",
"45 198 OFFCURVE",
"47 102 OFFCURVE",
"56 2 CURVE",
"56 3 LINE",
"106 4 OFFCURVE",
"160 1 OFFCURVE",
"214 1 CURVE SMOOTH"
);
},
{
closed = 1;
nodes = (
"162 104 OFFCURVE",
"135 105 OFFCURVE",
"131 111 CURVE",
"129 131 OFFCURVE",
"124 246 OFFCURVE",
"124 298 CURVE",
"150 298 OFFCURVE",
"173 297 OFFCURVE",
"193 297 CURVE SMOOTH",
"229 297 LINE",
"228 327 OFFCURVE",
"226 372 OFFCURVE",
"226 390 CURVE",
"143 390 LINE",
"126 390 LINE",
"127 410 OFFCURVE",
"128 438 OFFCURVE",
"128 474 CURVE SMOOTH",
"128 530 OFFCURVE",
"127 570 OFFCURVE",
"123 590 CURVE",
"172 593 OFFCURVE",
"213 600 OFFCURVE",
"233 597 CURVE",
"244 597 OFFCURVE",
"257 595 OFFCURVE",
"270 593 CURVE",
"310 577 OFFCURVE",
"365 507 OFFCURVE",
"375 386 CURVE",
"375 376 OFFCURVE",
"376 365 OFFCURVE",
"376 354 CURVE SMOOTH",
"376 338 OFFCURVE",
"375 322 OFFCURVE",
"374 306 CURVE",
"355 193 OFFCURVE",
"330 162 OFFCURVE",
"298 127 CURVE",
"274 112 OFFCURVE",
"261 108 OFFCURVE",
"195 105 CURVE SMOOTH"
);
}
);
width = 476;
},
{
anchors = (
{
name = bottom;
position = "{241, 0}";
},
{
name = center;
position = "{241, 361}";
},
{
name = top;
position = "{210, 722}";
}
);
hints = (
{
horizontal = 1;
place = "{1, 702}";
type = Stem;
},
{
place = "{29, 10}";
type = Stem;
},
{
place = "{86, 184.52}";
type = Stem;
},
{
place = "{228, 193.25}";
type = Stem;
},
{
horizontal = 1;
place = "{46, 271}";
type = Stem;
},
{
horizontal = 1;
place = "{375, 288}";
type = Stem;
},
{
horizontal = 1;
place = "{590.12, 72.88}";
type = Stem;
},
{
place = "{39, 423}";
type = Stem;
}
);
layerId = "DF1E66B1-3A9E-4773-904B-B575E660C115";
paths = (
{
closed = 1;
nodes = (
"231 325 LINE",
"230 336 OFFCURVE",
"231 342 OFFCURVE",
"231 349 CURVE SMOOTH",
"231 355 OFFCURVE",
"231 361 OFFCURVE",
"229 371 CURVE",
"94 371 LINE",
"85 371 LINE",
"86 397 OFFCURVE",
"87 443 OFFCURVE",
"87 508 CURVE SMOOTH",
"87 587 OFFCURVE",
"87 636 OFFCURVE",
"80 657 CURVE",
"88 657 LINE SMOOTH",
"165 661 OFFCURVE",
"210 663 OFFCURVE",
"223 663 CURVE SMOOTH",
"236 662 OFFCURVE",
"253 662 OFFCURVE",
"273 661 CURVE SMOOTH",
"293 660 OFFCURVE",
"318 643 OFFCURVE",
"348 608 CURVE SMOOTH",
"377 573 OFFCURVE",
"400 518 OFFCURVE",
"417 441 CURVE",
"420 415 OFFCURVE",
"421 388 OFFCURVE",
"421 362 CURVE SMOOTH",
"421 340 OFFCURVE",
"420 318 OFFCURVE",
"418 296 CURVE",
"400 206 OFFCURVE",
"380 148 OFFCURVE",
"358 122 CURVE SMOOTH",
"290 50 LINE",
"259 50 LINE SMOOTH",
"247 49 OFFCURVE",
"218 47 OFFCURVE",
"173 46 CURVE SMOOTH",
"143 46 LINE SMOOTH",
"116 46 OFFCURVE",
"99 47 OFFCURVE",
"94 49 CURVE",
"86 201 LINE SMOOTH",
"84 242 OFFCURVE",
"84 273 OFFCURVE",
"84 298 CURVE SMOOTH",
"84 326 LINE",
"84 326 OFFCURVE",
"85 326 OFFCURVE",
"85 326 CURVE",
"109 326 LINE SMOOTH",
"141 325 OFFCURVE",
"182 325 OFFCURVE",
"191 325 CURVE SMOOTH"
);
},
{
closed = 1;
nodes = (
"32 328 LINE",
"39 328 LINE",
"39 273 OFFCURVE",
"40 218 OFFCURVE",
"42 165 CURVE SMOOTH",
"44 108 OFFCURVE",
"49 54 OFFCURVE",
"56 1 CURVE",
"57 2 LINE",
"99 2 OFFCURVE",
"142 2 OFFCURVE",
"187 3 CURVE SMOOTH",
"232 3 OFFCURVE",
"276 4 OFFCURVE",
"320 5 CURVE",
"345 36 OFFCURVE",
"370 70 OFFCURVE",
"393 105 CURVE SMOOTH",
"416 140 OFFCURVE",
"430 168 OFFCURVE",
"437 188 CURVE SMOOTH",
"444 208 OFFCURVE",
"459 254 OFFCURVE",
"459 313 CURVE SMOOTH",
"462 407 LINE",
"461 418 OFFCURVE",
"461 428 OFFCURVE",
"460 439 CURVE SMOOTH",
"459 449 OFFCURVE",
"456 459 OFFCURVE",
"453 470 CURVE SMOOTH",
"447 497 OFFCURVE",
"439 522 OFFCURVE",
"429 547 CURVE SMOOTH",
"419 571 OFFCURVE",
"407 594 OFFCURVE",
"393 617 CURVE SMOOTH",
"354 679 OFFCURVE",
"336 687 OFFCURVE",
"284 701 CURVE",
"265 700 OFFCURVE",
"245 700 OFFCURVE",
"225 701 CURVE SMOOTH",
"204 702 OFFCURVE",
"184 702 OFFCURVE",
"163 703 CURVE SMOOTH",
"93 703 OFFCURVE",
"82 699 OFFCURVE",
"65 696 CURVE",
"64 695 OFFCURVE",
"50 691 OFFCURVE",
"40 690 CURVE",
"41 649 OFFCURVE",
"41 606 OFFCURVE",
"41 564 CURVE SMOOTH",
"41 512 LINE SMOOTH",
"40 464 OFFCURVE",
"39 417 OFFCURVE",
"39 370 CURVE",
"25 370 LINE SMOOTH",
"11 369 OFFCURVE",
"4 369 OFFCURVE",
"3 369 CURVE",
"-1 330 LINE"
);
}
);
width = 482;
}
);
leftKerningGroup = KO_Dcroat;
note = Eth;
rightKerningGroup = KO_D;
rightMetricsKey = D;
unicode = 00D0;
},
{
color = 5;
glyphname = E;
lastChange = "2022-10-21 19:08:37 +0000";
layers = (
{
anchors = (
{
name = bottom;
position = "{241, 0}";
},
{
name = ogonek;
position = "{409, 10}";
},
{
name = top;
position = "{253, 739}";
},
{
name = topleft;
position = "{20, 722}";
}
);
hints = (
{
horizontal = 1;
place = "{141, 132}";
type = Stem;
},
{
horizontal = 1;
place = "{419, 124}";
type = Stem;
},
{
place = "{39.25, 424.75}";
type = Stem;
}
);
layerId = "9B0E9E80-6738-4704-8EC6-A4FB4E6479F4";
paths = (
{
closed = 1;
nodes = (
"203 -5 OFFCURVE",
"225 -5 OFFCURVE",
"248 -4 CURVE SMOOTH",
"299 -3 OFFCURVE",
"350 -2 OFFCURVE",
"400 -2 CURVE SMOOTH",
"418 -2 OFFCURVE",
"437 -2 OFFCURVE",
"455 -2 CURVE",
"460 18 OFFCURVE",
"463 40 OFFCURVE",
"464 63 CURVE",
"463 131 LINE",
"447 131 OFFCURVE",
"430 130 OFFCURVE",
"414 130 CURVE SMOOTH",
"386 130 OFFCURVE",
"358 131 OFFCURVE",
"331 133 CURVE SMOOTH",
"312 134 OFFCURVE",
"238 136 OFFCURVE",
"200 137 CURVE",
"199 157 OFFCURVE",
"197 183 OFFCURVE",
"197 215 CURVE SMOOTH",
"197 232 OFFCURVE",
"198 248 OFFCURVE",
"200 262 CURVE",
"203 265 OFFCURVE",
"210 266 OFFCURVE",
"219 267 CURVE SMOOTH",
"228 268 OFFCURVE",
"239 268 OFFCURVE",
"251 268 CURVE SMOOTH",
"273 268 OFFCURVE",
"307 269 OFFCURVE",
"321 273 CURVE",
"320 304 OFFCURVE",
"322 332 OFFCURVE",
"322 361 CURVE SMOOTH",
"322 378 OFFCURVE",
"321 396 OFFCURVE",
"319 412 CURVE",
"298 414 OFFCURVE",
"278 414 OFFCURVE",
"257 414 CURVE SMOOTH",
"236 414 OFFCURVE",
"216 415 OFFCURVE",
"196 416 CURVE",
"194 477 LINE",
"196 505 LINE",
"198 535 LINE",
"220 537 OFFCURVE",
"242 538 OFFCURVE",
"264 538 CURVE SMOOTH",
"286 538 OFFCURVE",
"308 538 OFFCURVE",
"330 538 CURVE",
"352 537 OFFCURVE",
"374 538 OFFCURVE",
"396 539 CURVE SMOOTH",
"417 540 OFFCURVE",
"439 543 OFFCURVE",
"460 548 CURVE SMOOTH",
"460 571 OFFCURVE",
"461 595 OFFCURVE",
"463 619 CURVE",
"464 643 OFFCURVE",
"463 667 OFFCURVE",
"460 690 CURVE",
"460 691 OFFCURVE",
"453 691 OFFCURVE",
"440 692 CURVE SMOOTH",
"427 693 OFFCURVE",
"409 693 OFFCURVE",
"387 693 CURVE SMOOTH",
"365 693 OFFCURVE",
"340 693 OFFCURVE",
"311 692 CURVE SMOOTH",
"282 691 OFFCURVE",
"253 691 OFFCURVE",
"222 690 CURVE SMOOTH",
"191 689 OFFCURVE",
"161 689 OFFCURVE",
"131 688 CURVE SMOOTH",
"100 687 OFFCURVE",
"72 685 OFFCURVE",
"46 684 CURVE",
"43 627 OFFCURVE",
"41 570 OFFCURVE",
"40 513 CURVE SMOOTH",
"40 485 OFFCURVE",
"39 456 OFFCURVE",
"39 428 CURVE SMOOTH",
"39 400 OFFCURVE",
"40 372 OFFCURVE",
"40 343 CURVE SMOOTH",
"41 286 OFFCURVE",
"42 230 OFFCURVE",
"43 173 CURVE SMOOTH",
"44 116 OFFCURVE",
"45 58 OFFCURVE",
"45 0 CURVE",
"89 -3 OFFCURVE",
"134 -5 OFFCURVE",
"181 -5 CURVE SMOOTH"
);
}
);
width = 481;
},
{
anchors = (
{
name = bottom;
position = "{251, 0}";
},
{
name = ogonek;
position = "{451, 10}";
},
{
name = top;
position = "{272, 736}";
},
{
name = topleft;
position = "{20, 722}";
}
);
hints = (
{
horizontal = 1;
place = "{151, 142}";
type = Stem;
},
{
horizontal = 1;
place = "{429, 134}";
type = Stem;
},
{
place = "{49, 435}";
type = Stem;
}
);
layerId = "BB6A108D-08DB-4BF5-B99B-807E42D41E71";
paths = (
{
closed = 1;
nodes = (
"213 -4 OFFCURVE",
"236 -4 OFFCURVE",
"259 -3 CURVE SMOOTH",
"309 -2 OFFCURVE",
"360 -1 OFFCURVE",
"410 -1 CURVE SMOOTH",
"434 -1 OFFCURVE",
"458 -1 OFFCURVE",
"481 -1 CURVE",
"488 23 OFFCURVE",
"492 44 OFFCURVE",
"492 69 CURVE SMOOTH",
"491 142 LINE",
"473 142 LINE",
"465 142 OFFCURVE",
"456 142 OFFCURVE",
"448 141 CURVE SMOOTH",
"440 141 OFFCURVE",
"432 141 OFFCURVE",
"424 141 CURVE SMOOTH",
"396 141 OFFCURVE",
"369 142 OFFCURVE",
"342 144 CURVE SMOOTH",
"330 145 OFFCURVE",
"288 146 OFFCURVE",
"228 148 CURVE",
"228 151 OFFCURVE",
"227 154 OFFCURVE",
"227 157 CURVE SMOOTH",
"226 175 OFFCURVE",
"225 196 OFFCURVE",
"225 221 CURVE SMOOTH",
"225 238 OFFCURVE",
"226 256 OFFCURVE",
"228 268 CURVE",
"236 268 OFFCURVE",
"251 269 OFFCURVE",
"261 269 CURVE SMOOTH",
"272 269 OFFCURVE",
"285 269 OFFCURVE",
"298 270 CURVE SMOOTH",
"310 270 OFFCURVE",
"328 272 OFFCURVE",
"349 274 CURVE",
"348 293 OFFCURVE",
"349 315 OFFCURVE",
"349 333 CURVE SMOOTH",
"350 344 OFFCURVE",
"350 356 OFFCURVE",
"350 367 CURVE SMOOTH",
"350 385 OFFCURVE",
"347 402 OFFCURVE",
"347 418 CURVE SMOOTH",
"347 424 LINE",
"330 424 LINE",
"309 425 OFFCURVE",
"288 425 OFFCURVE",
"267 425 CURVE SMOOTH",
"252 425 OFFCURVE",
"238 426 OFFCURVE",
"224 426 CURVE",
"222 483 LINE",
"224 511 LINE",
"226 537 LINE",
"242 538 OFFCURVE",
"257 539 OFFCURVE",
"274 539 CURVE SMOOTH",
"296 539 OFFCURVE",
"318 539 OFFCURVE",
"340 539 CURVE SMOOTH",
"362 538 OFFCURVE",
"385 539 OFFCURVE",
"407 540 CURVE SMOOTH",
"430 541 OFFCURVE",
"454 544 OFFCURVE",
"473 548 CURVE",
"488 553 LINE",
"488 554 LINE SMOOTH",
"488 577 OFFCURVE",
"489 601 OFFCURVE",
"491 625 CURVE SMOOTH",
"492 650 OFFCURVE",
"491 673 OFFCURVE",
"488 696 CURVE",
"459 702 OFFCURVE",
"444 704 OFFCURVE",
"397 704 CURVE SMOOTH",
"375 704 OFFCURVE",
"349 704 OFFCURVE",
"320 703 CURVE SMOOTH",
"305 702 OFFCURVE",
"291 702 OFFCURVE",
"276 702 CURVE SMOOTH",
"262 702 OFFCURVE",
"246 701 OFFCURVE",
"231 701 CURVE SMOOTH",
"216 700 OFFCURVE",
"201 700 OFFCURVE",
"186 700 CURVE SMOOTH",
"171 700 OFFCURVE",
"155 699 OFFCURVE",
"140 699 CURVE SMOOTH",
"122 698 OFFCURVE",
"106 698 OFFCURVE",
"90 697 CURVE SMOOTH",
"78 696 OFFCURVE",
"66 695 OFFCURVE",
"55 695 CURVE",
"38 695 LINE",
"35 638 OFFCURVE",
"33 577 OFFCURVE",
"32 519 CURVE SMOOTH",
"32 505 OFFCURVE",
"32 491 OFFCURVE",
"32 477 CURVE SMOOTH",
"31 462 OFFCURVE",
"31 448 OFFCURVE",
"31 434 CURVE SMOOTH",
"31 420 OFFCURVE",
"31 406 OFFCURVE",
"31 392 CURVE SMOOTH",
"32 378 OFFCURVE",
"32 364 OFFCURVE",
"32 349 CURVE SMOOTH",
"32 321 OFFCURVE",
"33 292 OFFCURVE",
"34 264 CURVE SMOOTH",
"34 236 OFFCURVE",
"34 208 OFFCURVE",
"35 179 CURVE SMOOTH",
"36 122 OFFCURVE",
"37 59 OFFCURVE",
"37 1 CURVE",
"54 1 LINE",
"97 -2 OFFCURVE",
"143 -4 OFFCURVE",
"191 -4 CURVE SMOOTH"
);
}
);
width = 501;
},
{
anchors = (
{
name = bottom;
position = "{241, 0}";
},
{
name = ogonek;
position = "{357, 27}";
},
{
name = top;
position = "{253, 734}";
},
{
name = topleft;
position = "{20, 722}";
}
);
layerId = "B033F76F-1B86-4758-A592-6C7B1BE8F750";
paths = (
{
closed = 1;
nodes = (
"278 0 OFFCURVE",
"368 4 OFFCURVE",
"455 3 CURVE",
"461 29 OFFCURVE",
"461 59 OFFCURVE",
"460 86 CURVE",
"460 88 LINE",
"446 88 OFFCURVE",
"432 87 OFFCURVE",
"420 87 CURVE SMOOTH",
"343 87 OFFCURVE",
"284 94 OFFCURVE",
"144 93 CURVE",
"143 94 LINE",
"144 148 OFFCURVE",
"142 192 OFFCURVE",
"142 228 CURVE SMOOTH",
"142 255 OFFCURVE",
"143 276 OFFCURVE",
"146 293 CURVE",
"150 296 OFFCURVE",
"167 297 OFFCURVE",
"196 298 CURVE SMOOTH",
"289 300 OFFCURVE",
"266 298 OFFCURVE",
"321 303 CURVE",
"320 316 OFFCURVE",
"321 331 OFFCURVE",
"321 348 CURVE SMOOTH",
"321 361 OFFCURVE",
"321 375 OFFCURVE",
"319 390 CURVE",
"319 391 LINE",
"290 393 OFFCURVE",
"270 393 OFFCURVE",
"244 393 CURVE SMOOTH",
"219 393 OFFCURVE",
"190 393 OFFCURVE",
"142 394 CURVE",
"141 395 LINE",
"138 406 OFFCURVE",
"137 421 OFFCURVE",
"137 441 CURVE SMOOTH",
"137 458 OFFCURVE",
"138 479 OFFCURVE",
"139 504 CURVE SMOOTH",
"142 548 OFFCURVE",
"143 579 OFFCURVE",
"142 595 CURVE",
"199 599 OFFCURVE",
"205 599 OFFCURVE",
"277 599 CURVE SMOOTH",
"332 599 LINE SMOOTH",
"376 599 OFFCURVE",
"416 601 OFFCURVE",
"459 604 CURVE",
"459 614 LINE SMOOTH",
"459 634 OFFCURVE",
"461 653 OFFCURVE",
"461 673 CURVE SMOOTH",
"461 680 OFFCURVE",
"461 688 OFFCURVE",
"460 695 CURVE",
"460 697 OFFCURVE",
"431 698 OFFCURVE",
"387 698 CURVE SMOOTH",
"299 698 OFFCURVE",
"149 694 OFFCURVE",
"46 689 CURVE",
"41 609 OFFCURVE",
"40 529 OFFCURVE",
"40 449 CURVE SMOOTH",
"40 302 OFFCURVE",
"45 155 OFFCURVE",
"45 5 CURVE",
"92 1 OFFCURVE",
"140 0 OFFCURVE",
"190 0 CURVE SMOOTH"
);
}
);
width = 481;
},
{
anchors = (
{
name = bottom;
position = "{241, 0}";
},
{
name = ogonek;
position = "{372, 22}";
},
{
name = top;
position = "{253, 734}";
},
{
name = topleft;
position = "{20, 700}";
}
);
hints = (
{
horizontal = 1;
place = "{45, 280}";
type = Stem;
},
{
horizontal = 1;
place = "{366, 291}";
type = Stem;
},
{
place = "{39.25, 420.75}";
type = Stem;
}
);
layerId = "DF1E66B1-3A9E-4773-904B-B575E660C115";
paths = (
{
closed = 1;
nodes = (
"203 0 OFFCURVE",
"225 0 OFFCURVE",
"248 1 CURVE SMOOTH",
"318 3 OFFCURVE",
"235 3 OFFCURVE",
"455 3 CURVE",
"457 43 LINE",
"425 44 OFFCURVE",
"393 42 OFFCURVE",
"362 42 CURVE SMOOTH",
"349 42 OFFCURVE",
"337 42 OFFCURVE",
"325 43 CURVE SMOOTH",
"282 45 OFFCURVE",
"208 46 OFFCURVE",
"91 46 CURVE",
"93 105 OFFCURVE",
"94 154 OFFCURVE",
"94 193 CURVE SMOOTH",
"94 206 OFFCURVE",
"94 218 OFFCURVE",
"94 228 CURVE SMOOTH",
"93 269 OFFCURVE",
"94 300 OFFCURVE",
"97 319 CURVE",
"100 322 OFFCURVE",
"125 324 OFFCURVE",
"170 325 CURVE SMOOTH",
"185 325 OFFCURVE",
"193 325 OFFCURVE",
"205 325 CURVE SMOOTH",
"227 325 OFFCURVE",
"243 325 OFFCURVE",
"251 325 CURVE SMOOTH",
"260 325 OFFCURVE",
"270 326 OFFCURVE",
"274 326 CURVE SMOOTH",
"281 326 OFFCURVE",
"293 326 OFFCURVE",
"320 327 CURVE",
"320 336 LINE",
"320 342 OFFCURVE",
"320 352 OFFCURVE",
"319 364 CURVE",
"319 365 LINE",
"298 366 OFFCURVE",
"278 366 OFFCURVE",
"257 366 CURVE SMOOTH",
"236 366 OFFCURVE",
"185 367 OFFCURVE",
"93 367 CURVE",
"90 377 OFFCURVE",
"88 396 OFFCURVE",
"88 424 CURVE SMOOTH",
"88 447 OFFCURVE",
"89 475 OFFCURVE",
"91 509 CURVE SMOOTH",
"95 585 OFFCURVE",
"98 633 OFFCURVE",
"96 652 CURVE",
"100 653 LINE",
"269 657 LINE",
"291 657 OFFCURVE",
"313 657 OFFCURVE",
"335 657 CURVE",
"361 656 OFFCURVE",
"386 658 OFFCURVE",
"410 658 CURVE SMOOTH",
"425 658 OFFCURVE",
"442 657 OFFCURVE",
"459 657 CURVE",
"461 698 LINE",
"440 697 LINE",
"427 698 OFFCURVE",
"409 698 OFFCURVE",
"387 698 CURVE SMOOTH",
"365 698 OFFCURVE",
"340 698 OFFCURVE",
"311 697 CURVE SMOOTH",
"282 696 OFFCURVE",
"253 696 OFFCURVE",
"222 695 CURVE SMOOTH",
"191 694 OFFCURVE",
"161 694 OFFCURVE",
"131 693 CURVE SMOOTH",
"100 692 OFFCURVE",
"72 690 OFFCURVE",
"46 689 CURVE",
"43 632 OFFCURVE",
"41 575 OFFCURVE",
"40 518 CURVE SMOOTH",
"40 490 OFFCURVE",
"39 461 OFFCURVE",
"39 433 CURVE SMOOTH",
"39 405 OFFCURVE",
"40 377 OFFCURVE",
"40 348 CURVE SMOOTH",
"41 291 OFFCURVE",
"42 235 OFFCURVE",
"43 178 CURVE SMOOTH",
"44 121 OFFCURVE",
"45 63 OFFCURVE",
"45 5 CURVE",
"89 2 OFFCURVE",
"134 0 OFFCURVE",
"181 0 CURVE SMOOTH"
);
}
);
width = 481;
}
);
leftKerningGroup = KO_E;
note = E;
rightKerningGroup = KO_E;
unicode = 0045;
userData = {
KernOnName = E;
};
},
{
color = 5;
glyphname = F;
lastChange = "2022-10-20 18:48:20 +0000";
layers = (
{
hints = (
{
horizontal = 1;
place = "{391, 189}";
type = Stem;
},
{
place = "{41, 449.25}";
type = Stem;
}
);
layerId = "B033F76F-1B86-4758-A592-6C7B1BE8F750";
paths = (
{
closed = 1;
nodes = (
"107 -2 OFFCURVE",
"129 -1 OFFCURVE",
"151 1 CURVE",
"151 35 OFFCURVE",
"151 71 OFFCURVE",
"152 108 CURVE SMOOTH",
"155 280 LINE",
"217 282 OFFCURVE",
"257 284 OFFCURVE",
"273 285 CURVE SMOOTH",
"332 288 OFFCURVE",
"321 287 OFFCURVE",
"354 290 CURVE",
"353 306 OFFCURVE",
"356 334 OFFCURVE",
"356 359 CURVE SMOOTH",
"356 371 OFFCURVE",
"355 382 OFFCURVE",
"353 392 CURVE",
"340 391 OFFCURVE",
"326 391 OFFCURVE",
"306 391 CURVE SMOOTH",
"278 391 OFFCURVE",
"229 391 OFFCURVE",
"158 392 CURVE SMOOTH",
"152 392 OFFCURVE",
"149 430 OFFCURVE",
"149 451 CURVE SMOOTH",
"149 475 OFFCURVE",
"150 518 OFFCURVE",
"154 580 CURVE",
"248 586 OFFCURVE",
"264 587 OFFCURVE",
"308 589 CURVE SMOOTH",
"345 591 OFFCURVE",
"376 592 OFFCURVE",
"414 592 CURVE SMOOTH",
"436 592 OFFCURVE",
"460 591 OFFCURVE",
"489 591 CURVE",
"490 603 OFFCURVE",
"490 620 OFFCURVE",
"490 637 CURVE SMOOTH",
"490 654 OFFCURVE",
"490 671 OFFCURVE",
"490 682 CURVE",
"446 693 OFFCURVE",
"379 697 OFFCURVE",
"309 697 CURVE SMOOTH",
"200 697 OFFCURVE",
"85 687 OFFCURVE",
"43 680 CURVE",
"41 489 OFFCURVE",
"41 389 OFFCURVE",
"41 290 CURVE SMOOTH",
"41 209 OFFCURVE",
"41 129 OFFCURVE",
"42 1 CURVE",
"60 -2 OFFCURVE",
"78 -4 OFFCURVE",
"95 -3 CURVE"
);
}
);
width = 494;
},
{
layerId = "BB6A108D-08DB-4BF5-B99B-807E42D41E71";
paths = (
{
closed = 1;
nodes = (
"159 -8 OFFCURVE",
"221 -6 OFFCURVE",
"244 -2 CURVE",
"244 15 OFFCURVE",
"244 32 OFFCURVE",
"244 49 CURVE SMOOTH",
"245 66 OFFCURVE",
"245 84 OFFCURVE",
"245 102 CURVE SMOOTH",
"246 149 OFFCURVE",
"248 191 OFFCURVE",
"252 239 CURVE",
"277 239 OFFCURVE",
"278 240 OFFCURVE",
"363 256 CURVE SMOOTH",
"361 256 OFFCURVE",
"384 262 OFFCURVE",
"384 263 CURVE SMOOTH",
"383 278 OFFCURVE",
"382 292 OFFCURVE",
"382 305 CURVE SMOOTH",
"382 310 OFFCURVE",
"383 340 OFFCURVE",
"383 339 CURVE SMOOTH",
"384 359 OFFCURVE",
"384 378 OFFCURVE",
"384 393 CURVE SMOOTH",
"384 414 OFFCURVE",
"384 421 OFFCURVE",
"379 432 CURVE",
"362 432 LINE",
"347 431 OFFCURVE",
"310 429 OFFCURVE",
"280 429 CURVE SMOOTH",
"262 429 OFFCURVE",
"255 429 OFFCURVE",
"251 430 CURVE",
"246 437 OFFCURVE",
"242 458 OFFCURVE",
"242 474 CURVE SMOOTH",
"242 487 OFFCURVE",
"245 503 OFFCURVE",
"249 514 CURVE",
"289 518 OFFCURVE",
"334 520 OFFCURVE",
"378 522 CURVE SMOOTH",
"408 524 OFFCURVE",
"435 525 OFFCURVE",
"461 527 CURVE SMOOTH",
"475 528 OFFCURVE",
"489 528 OFFCURVE",
"501 529 CURVE",
"518 534 LINE",
"519 543 OFFCURVE",
"519 553 OFFCURVE",
"519 580 CURVE SMOOTH",
"519 600 OFFCURVE",
"519 622 OFFCURVE",
"518 642 CURVE SMOOTH",
"518 658 OFFCURVE",
"518 673 OFFCURVE",
"518 683 CURVE",
"499 690 OFFCURVE",
"460 695 OFFCURVE",
"404 700 CURVE SMOOTH",
"376 701 OFFCURVE",
"344 702 OFFCURVE",
"313 702 CURVE SMOOTH",
"294 702 OFFCURVE",
"274 702 OFFCURVE",
"255 701 CURVE SMOOTH",
"208 699 OFFCURVE",
"163 697 OFFCURVE",
"126 694 CURVE SMOOTH",
"90 691 OFFCURVE",
"63 687 OFFCURVE",
"50 685 CURVE",
"35 680 LINE",
"35 536 OFFCURVE",
"35 432 OFFCURVE",
"34 338 CURVE SMOOTH",
"34 257 OFFCURVE",
"34 201 OFFCURVE",
"33 157 CURVE SMOOTH",
"33 92 OFFCURVE",
"32 49 OFFCURVE",
"34 -3 CURVE",
"56 -6 OFFCURVE",
"80 -8 OFFCURVE",
"112 -8 CURVE SMOOTH"
);
}
);
width = 514;
},
{
layerId = "9B0E9E80-6738-4704-8EC6-A4FB4E6479F4";
paths = (
{
closed = 1;
nodes = (
"140 -1 OFFCURVE",
"187 0 OFFCURVE",
"216 3 CURVE",
"216 35 OFFCURVE",
"217 69 OFFCURVE",
"217 104 CURVE SMOOTH",
"218 151 OFFCURVE",
"220 200 OFFCURVE",
"224 248 CURVE",
"225 248 LINE SMOOTH",
"266 248 OFFCURVE",
"312 256 OFFCURVE",
"353 263 CURVE SMOOTH",
"355 263 OFFCURVE",
"356 264 OFFCURVE",
"356 265 CURVE SMOOTH",
"355 277 OFFCURVE",
"354 292 OFFCURVE",
"354 307 CURVE SMOOTH",
"354 318 OFFCURVE",
"355 330 OFFCURVE",
"355 341 CURVE SMOOTH",
"356 361 OFFCURVE",
"356 380 OFFCURVE",
"356 395 CURVE SMOOTH",
"356 411 OFFCURVE",
"356 423 OFFCURVE",
"353 429 CURVE",
"339 428 OFFCURVE",
"301 426 OFFCURVE",
"270 426 CURVE SMOOTH",
"247 426 OFFCURVE",
"228 427 OFFCURVE",
"225 430 CURVE",
"218 442 OFFCURVE",
"214 458 OFFCURVE",
"214 476 CURVE SMOOTH",
"214 490 OFFCURVE",
"217 505 OFFCURVE",
"223 520 CURVE",
"266 524 OFFCURVE",
"317 527 OFFCURVE",
"367 529 CURVE SMOOTH",
"412 532 OFFCURVE",
"456 534 OFFCURVE",
"490 536 CURVE",
"491 547 OFFCURVE",
"491 564 OFFCURVE",
"491 582 CURVE SMOOTH",
"491 618 OFFCURVE",
"490 661 OFFCURVE",
"490 684 CURVE",
"464 690 OFFCURVE",
"430 694 OFFCURVE",
"393 697 CURVE SMOOTH",
"365 698 OFFCURVE",
"334 699 OFFCURVE",
"303 699 CURVE SMOOTH",
"284 699 OFFCURVE",
"265 699 OFFCURVE",
"246 698 CURVE SMOOTH",
"199 696 OFFCURVE",
"155 694 OFFCURVE",
"118 691 CURVE SMOOTH",
"85 688 OFFCURVE",
"59 685 OFFCURVE",
"43 682 CURVE",
"43 681 LINE SMOOTH",
"43 538 OFFCURVE",
"43 434 OFFCURVE",
"42 340 CURVE SMOOTH",
"42 141 OFFCURVE",
"43 108 OFFCURVE",
"42 3 CURVE",
"47 0 OFFCURVE",
"71 -1 OFFCURVE",
"102 -1 CURVE SMOOTH"
);
}
);
width = 494;
},
{
hints = (
{
horizontal = 1;
place = "{-2.75, 700.75}";
type = Stem;
},
{
place = "{87, 179.96}";
type = Stem;
},
{
horizontal = 1;
place = "{358, 285}";
type = Stem;
}
);
layerId = "DF1E66B1-3A9E-4773-904B-B575E660C115";
paths = (
{
closed = 1;
nodes = (
"87 39 OFFCURVE",
"87 79 OFFCURVE",
"88 121 CURVE SMOOTH",
"88 138 OFFCURVE",
"89 159 OFFCURVE",
"89 184 CURVE SMOOTH",
"89 220 OFFCURVE",
"88 263 OFFCURVE",
"87 314 CURVE",
"140 315 LINE",
"355 321 LINE",
"355 324 OFFCURVE",
"355 335 OFFCURVE",
"355 343 CURVE SMOOTH",
"355 350 OFFCURVE",
"354 355 OFFCURVE",
"353 358 CURVE",
"346 357 OFFCURVE",
"338 357 OFFCURVE",
"330 357 CURVE SMOOTH",
"321 357 OFFCURVE",
"310 357 OFFCURVE",
"297 358 CURVE",
"284 358 OFFCURVE",
"261 358 OFFCURVE",
"228 358 CURVE SMOOTH",
"195 358 OFFCURVE",
"149 358 OFFCURVE",
"90 358 CURVE SMOOTH",
"89 358 OFFCURVE",
"89 358 OFFCURVE",
"88 359 CURVE",
"86 373 OFFCURVE",
"84 392 OFFCURVE",
"84 417 CURVE SMOOTH",
"84 438 OFFCURVE",
"85 512 OFFCURVE",
"85 643 CURVE",
"160 647 OFFCURVE",
"209 650 OFFCURVE",
"233 651 CURVE SMOOTH",
"262 652 OFFCURVE",
"294 655 OFFCURVE",
"324 655 CURVE SMOOTH",
"341 655 OFFCURVE",
"358 655 OFFCURVE",
"374 654 CURVE SMOOTH",
"397 653 OFFCURVE",
"435 651 OFFCURVE",
"489 648 CURVE",
"490 662 OFFCURVE",
"490 673 OFFCURVE",
"490 682 CURVE",
"471 687 OFFCURVE",
"449 690 OFFCURVE",
"423 693 CURVE SMOOTH",
"397 696 OFFCURVE",
"369 697 OFFCURVE",
"340 698 CURVE SMOOTH",
"311 698 OFFCURVE",
"281 698 OFFCURVE",
"251 697 CURVE SMOOTH",
"220 696 OFFCURVE",
"192 694 OFFCURVE",
"165 692 CURVE SMOOTH",
"138 690 OFFCURVE",
"113 688 OFFCURVE",
"92 686 CURVE",
"43 679 LINE",
"43 538 LINE",
"43 495 OFFCURVE",
"43 456 OFFCURVE",
"43 419 CURVE SMOOTH",
"42 382 OFFCURVE",
"42 348 OFFCURVE",
"42 315 CURVE SMOOTH",
"42 282 OFFCURVE",
"42 249 OFFCURVE",
"42 216 CURVE SMOOTH",
"41 183 OFFCURVE",
"41 150 OFFCURVE",
"41 115 CURVE SMOOTH",
"41 80 OFFCURVE",
"41 42 OFFCURVE",
"41 2 CURVE",
"58 0 OFFCURVE",
"73 0 OFFCURVE",
"86 1 CURVE"
);
}
);
width = 494;
}
);
leftKerningGroup = KO_E;
note = F;
rightKerningGroup = KO_F;
unicode = 0046;
},
{
color = 5;
glyphname = G;
lastChange = "2022-10-20 18:02:40 +0000";
layers = (
{
anchors = (
{
name = bottom;
position = "{241, -41}";
},
{
name = top;
position = "{241, 741}";
}
);
hints = (
{
horizontal = 1;
place = "{76.5, 199.5}";
type = Stem;
},
{
horizontal = 1;
place = "{358.5, 115.5}";
type = Stem;
},
{
place = "{115.57, 124.43}";
type = Stem;
}
);
layerId = "B033F76F-1B86-4758-A592-6C7B1BE8F750";
paths = (
{
closed = 1;
nodes = (
"275 -15 OFFCURVE",
"318 -5 OFFCURVE",
"356 6 CURVE SMOOTH",
"407 25 OFFCURVE",
"444 57 OFFCURVE",
"451 125 CURVE",
"457 157 OFFCURVE",
"459 191 OFFCURVE",
"459 225 CURVE SMOOTH",
"459 268 OFFCURVE",
"455 311 OFFCURVE",
"451 351 CURVE",
"448 352 LINE",
"431 352 OFFCURVE",
"370 358 OFFCURVE",
"317 358 CURVE SMOOTH",
"285 358 OFFCURVE",
"256 356 OFFCURVE",
"243 348 CURVE",
"240 345 LINE",
"243 316 OFFCURVE",
"241 303 OFFCURVE",
"244 278 CURVE",
"250 276 OFFCURVE",
"260 276 OFFCURVE",
"272 276 CURVE SMOOTH",
"281 276 OFFCURVE",
"297 277 OFFCURVE",
"318 276 CURVE",
"340 276 OFFCURVE",
"354 276 OFFCURVE",
"358 275 CURVE",
"362 258 OFFCURVE",
"370 226 OFFCURVE",
"370 194 CURVE SMOOTH",
"370 179 OFFCURVE",
"368 164 OFFCURVE",
"364 151 CURVE SMOOTH",
"353 114 OFFCURVE",
"331 98 OFFCURVE",
"307 87 CURVE SMOOTH",
"293 81 OFFCURVE",
"275 76 OFFCURVE",
"252 76 CURVE SMOOTH",
"236 76 OFFCURVE",
"218 78 OFFCURVE",
"198 84 CURVE",
"144 105 OFFCURVE",
"130 140 OFFCURVE",
"118 259 CURVE",
"116 285 OFFCURVE",
"116 311 OFFCURVE",
"116 338 CURVE SMOOTH",
"116 411 OFFCURVE",
"122 484 OFFCURVE",
"134 530 CURVE SMOOTH",
"147 583 OFFCURVE",
"176 616 OFFCURVE",
"257 610 CURVE",
"310 608 OFFCURVE",
"354 565 OFFCURVE",
"356 534 CURVE",
"357 489 OFFCURVE",
"352 475 OFFCURVE",
"357 474 CURVE SMOOTH",
"363 473 OFFCURVE",
"371 472 OFFCURVE",
"380 472 CURVE SMOOTH",
"407 472 OFFCURVE",
"441 477 OFFCURVE",
"449 475 CURVE",
"449 477 OFFCURVE",
"450 479 OFFCURVE",
"450 481 CURVE",
"451 491 OFFCURVE",
"452 502 OFFCURVE",
"452 511 CURVE SMOOTH",
"452 533 OFFCURVE",
"449 554 OFFCURVE",
"444 572 CURVE SMOOTH",
"433 607 OFFCURVE",
"414 635 OFFCURVE",
"388 655 CURVE SMOOTH",
"350 686 OFFCURVE",
"297 702 OFFCURVE",
"239 702 CURVE SMOOTH",
"224 702 OFFCURVE",
"209 701 OFFCURVE",
"194 699 CURVE SMOOTH",
"131 690 OFFCURVE",
"93 665 OFFCURVE",
"69 631 CURVE SMOOTH",
"29 574 OFFCURVE",
"30 490 OFFCURVE",
"28 416 CURVE SMOOTH",
"27 394 OFFCURVE",
"27 375 OFFCURVE",
"27 357 CURVE SMOOTH",
"27 295 OFFCURVE",
"31 253 OFFCURVE",
"38 187 CURVE SMOOTH",
"44 132 OFFCURVE",
"54 90 OFFCURVE",
"73 58 CURVE SMOOTH",
"90 32 OFFCURVE",
"112 12 OFFCURVE",
"144 -1 CURVE SMOOTH",
"171 -12 OFFCURVE",
"202 -16 OFFCURVE",
"233 -16 CURVE SMOOTH"
);
}
);
width = 481;
},
{
anchors = (
{
name = bottom;
position = "{241, -42}";
},
{
name = top;
position = "{241, 745}";
}
);
layerId = "9B0E9E80-6738-4704-8EC6-A4FB4E6479F4";
paths = (
{
closed = 1;
nodes = (
"268 -13 OFFCURVE",
"286 -10 OFFCURVE",
"304 -7 CURVE",
"322 -3 OFFCURVE",
"339 1 OFFCURVE",
"356 6 CURVE",
"381 15 OFFCURVE",
"403 29 OFFCURVE",
"420 47 CURVE SMOOTH",
"437 65 OFFCURVE",
"448 91 OFFCURVE",
"451 125 CURVE",
"458 161 OFFCURVE",
"461 198 OFFCURVE",
"459 239 CURVE SMOOTH",
"457 272 OFFCURVE",
"457 291 OFFCURVE",
"448 352 CURVE SMOOTH",
"441 352 OFFCURVE",
"429 353 OFFCURVE",
"410 355 CURVE",
"391 356 OFFCURVE",
"370 357 OFFCURVE",
"348 358 CURVE SMOOTH",
"326 359 OFFCURVE",
"305 359 OFFCURVE",
"286 358 CURVE SMOOTH",
"267 357 OFFCURVE",
"253 359 OFFCURVE",
"240 352 CURVE",
"242 315 LINE",
"242 307 OFFCURVE",
"242 299 OFFCURVE",
"242 292 CURVE",
"241 284 OFFCURVE",
"241 276 OFFCURVE",
"242 268 CURVE",
"242 260 OFFCURVE",
"243 251 OFFCURVE",
"244 240 CURVE",
"253 237 OFFCURVE",
"275 237 OFFCURVE",
"280 238 CURVE",
"287 238 OFFCURVE",
"295 238 OFFCURVE",
"302 239 CURVE",
"309 239 OFFCURVE",
"314 239 OFFCURVE",
"318 238 CURVE",
"320 237 OFFCURVE",
"321 234 OFFCURVE",
"322 229 CURVE",
"322 219 OFFCURVE",
"321 198 OFFCURVE",
"320 192 CURVE SMOOTH",
"319 185 OFFCURVE",
"318 181 OFFCURVE",
"317 178 CURVE SMOOTH",
"311 161 OFFCURVE",
"301 149 OFFCURVE",
"286 142 CURVE",
"277 139 OFFCURVE",
"267 136 OFFCURVE",
"256 134 CURVE SMOOTH",
"245 132 OFFCURVE",
"234 132 OFFCURVE",
"224 133 CURVE",
"197 139 OFFCURVE",
"183 154 OFFCURVE",
"176 183 CURVE SMOOTH",
"172 200 OFFCURVE",
"169 216 OFFCURVE",
"168 231 CURVE SMOOTH",
"165 263 OFFCURVE",
"164 297 OFFCURVE",
"164 333 CURVE SMOOTH",
"164 352 OFFCURVE",
"164 371 OFFCURVE",
"165 389 CURVE SMOOTH",
"166 414 OFFCURVE",
"169 438 OFFCURVE",
"172 461 CURVE SMOOTH",
"175 484 OFFCURVE",
"178 503 OFFCURVE",
"183 519 CURVE",
"183 521 OFFCURVE",
"190 542 OFFCURVE",
"194 546 CURVE SMOOTH",
"202 554 OFFCURVE",
"211 558 OFFCURVE",
"222 558 CURVE SMOOTH",
"233 558 OFFCURVE",
"244 558 OFFCURVE",
"255 557 CURVE",
"265 557 OFFCURVE",
"274 554 OFFCURVE",
"281 548 CURVE",
"288 541 OFFCURVE",
"295 534 OFFCURVE",
"301 526 CURVE",
"306 517 OFFCURVE",
"311 508 OFFCURVE",
"315 499 CURVE",
"318 489 OFFCURVE",
"321 481 OFFCURVE",
"323 474 CURVE",
"333 473 OFFCURVE",
"342 472 OFFCURVE",
"349 471 CURVE SMOOTH",
"356 470 OFFCURVE",
"364 470 OFFCURVE",
"371 470 CURVE SMOOTH",
"378 470 OFFCURVE",
"385 470 OFFCURVE",
"392 471 CURVE",
"399 471 OFFCURVE",
"407 471 OFFCURVE",
"417 471 CURVE",
"428 472 OFFCURVE",
"435 472 OFFCURVE",
"440 472 CURVE",
"449 475 LINE",
"450 481 LINE",
"451 493 OFFCURVE",
"452 504 OFFCURVE",
"452 514 CURVE SMOOTH",
"452 541 OFFCURVE",
"448 565 OFFCURVE",
"439 587 CURVE SMOOTH",
"427 616 OFFCURVE",
"409 640 OFFCURVE",
"385 658 CURVE SMOOTH",
"361 676 OFFCURVE",
"332 689 OFFCURVE",
"299 696 CURVE SMOOTH",
"280 700 OFFCURVE",
"260 702 OFFCURVE",
"239 702 CURVE SMOOTH",
"224 702 OFFCURVE",
"209 701 OFFCURVE",
"194 699 CURVE SMOOTH",
"176 696 OFFCURVE",
"159 692 OFFCURVE",
"142 687 CURVE SMOOTH",
"125 682 OFFCURVE",
"110 673 OFFCURVE",
"97 662 CURVE",
"78 649 OFFCURVE",
"64 632 OFFCURVE",
"56 611 CURVE",
"47 590 OFFCURVE",
"41 569 OFFCURVE",
"38 547 CURVE SMOOTH",
"35 526 OFFCURVE",
"32 504 OFFCURVE",
"31 482 CURVE SMOOTH",
"30 459 OFFCURVE",
"29 437 OFFCURVE",
"28 416 CURVE SMOOTH",
"28 404 OFFCURVE",
"27 392 OFFCURVE",
"27 381 CURVE SMOOTH",
"27 371 OFFCURVE",
"28 361 OFFCURVE",
"28 351 CURVE",
"28 332 OFFCURVE",
"29 314 OFFCURVE",
"30 297 CURVE SMOOTH",
"31 280 OFFCURVE",
"32 262 OFFCURVE",
"33 245 CURVE SMOOTH",
"34 228 OFFCURVE",
"36 208 OFFCURVE",
"38 187 CURVE SMOOTH",
"39 174 OFFCURVE",
"41 161 OFFCURVE",
"44 148 CURVE",
"46 135 OFFCURVE",
"48 124 OFFCURVE",
"50 117 CURVE SMOOTH",
"58 88 OFFCURVE",
"69 64 OFFCURVE",
"83 45 CURVE SMOOTH",
"97 26 OFFCURVE",
"117 10 OFFCURVE",
"144 -1 CURVE SMOOTH",
"160 -8 OFFCURVE",
"177 -12 OFFCURVE",
"195 -14 CURVE SMOOTH",
"212 -16 OFFCURVE",
"230 -16 OFFCURVE",
"249 -15 CURVE"
);
}
);
width = 481;
},
{
anchors = (
{
name = bottom;
position = "{251, -51}";
},
{
name = top;
position = "{251, 745}";
}
);
layerId = "BB6A108D-08DB-4BF5-B99B-807E42D41E71";
paths = (
{
closed = 1;
nodes = (
"278 -13 OFFCURVE",
"291 -11 OFFCURVE",
"317 -7 CURVE SMOOTH",
"345 -1 OFFCURVE",
"363 4 OFFCURVE",
"375 8 CURVE SMOOTH",
"404 18 OFFCURVE",
"428 33 OFFCURVE",
"443 49 CURVE SMOOTH",
"466 73 OFFCURVE",
"476 95 OFFCURVE",
"479 129 CURVE",
"486 169 OFFCURVE",
"489 204 OFFCURVE",
"487 244 CURVE SMOOTH",
"487 249 OFFCURVE",
"486 254 OFFCURVE",
"486 259 CURVE SMOOTH",
"485 284 OFFCURVE",
"484 305 OFFCURVE",
"476 358 CURVE",
"458 362 LINE",
"452 362 OFFCURVE",
"441 363 OFFCURVE",
"421 365 CURVE SMOOTH",
"402 366 OFFCURVE",
"380 367 OFFCURVE",
"359 368 CURVE SMOOTH",
"337 369 OFFCURVE",
"314 369 OFFCURVE",
"295 368 CURVE SMOOTH",
"291 368 OFFCURVE",
"289 368 OFFCURVE",
"283 368 CURVE SMOOTH",
"262 367 OFFCURVE",
"240 364 OFFCURVE",
"233 360 CURVE",
"233 339 LINE",
"234 297 LINE",
"233 290 OFFCURVE",
"234 268 OFFCURVE",
"236 250 CURVE SMOOTH",
"236 248 OFFCURVE",
"236 242 OFFCURVE",
"236 240 CURVE",
"248 240 LINE",
"256 238 OFFCURVE",
"285 237 OFFCURVE",
"293 238 CURVE SMOOTH",
"303 238 OFFCURVE",
"309 238 OFFCURVE",
"314 239 CURVE",
"314 226 OFFCURVE",
"313 202 OFFCURVE",
"312 198 CURVE SMOOTH",
"312 194 OFFCURVE",
"310 186 OFFCURVE",
"310 185 CURVE",
"303 166 OFFCURVE",
"297 155 OFFCURVE",
"288 152 CURVE",
"279 148 OFFCURVE",
"278 147 OFFCURVE",
"263 144 CURVE SMOOTH",
"254 142 OFFCURVE",
"248 142 OFFCURVE",
"239 143 CURVE SMOOTH",
"220 147 OFFCURVE",
"211 159 OFFCURVE",
"204 189 CURVE SMOOTH",
"199 207 OFFCURVE",
"197 222 OFFCURVE",
"196 236 CURVE SMOOTH",
"193 265 OFFCURVE",
"192 298 OFFCURVE",
"192 338 CURVE SMOOTH",
"192 357 OFFCURVE",
"192 376 OFFCURVE",
"193 394 CURVE SMOOTH",
"194 420 OFFCURVE",
"197 444 OFFCURVE",
"200 465 CURVE SMOOTH",
"204 497 OFFCURVE",
"206 513 OFFCURVE",
"215 539 CURVE SMOOTH",
"218 547 OFFCURVE",
"231 558 OFFCURVE",
"245 558 CURVE SMOOTH",
"256 558 OFFCURVE",
"265 557 OFFCURVE",
"278 548 CURVE SMOOTH",
"294 536 OFFCURVE",
"303 514 OFFCURVE",
"312 489 CURVE SMOOTH",
"313 485 OFFCURVE",
"314 483 OFFCURVE",
"316 475 CURVE",
"337 473 OFFCURVE",
"346 473 OFFCURVE",
"356 471 CURVE SMOOTH",
"360 470 OFFCURVE",
"394 470 OFFCURVE",
"404 471 CURVE",
"416 471 OFFCURVE",
"444 472 OFFCURVE",
"450 472 CURVE SMOOTH",
"449 472 OFFCURVE",
"469 476 OFFCURVE",
"476 477 CURVE",
"478 485 LINE",
"479 499 OFFCURVE",
"480 509 OFFCURVE",
"480 519 CURVE SMOOTH",
"480 547 OFFCURVE",
"476 569 OFFCURVE",
"466 594 CURVE SMOOTH",
"454 622 OFFCURVE",
"435 645 OFFCURVE",
"406 667 CURVE SMOOTH",
"383 684 OFFCURVE",
"349 698 OFFCURVE",
"313 706 CURVE SMOOTH",
"295 710 OFFCURVE",
"272 712 OFFCURVE",
"249 712 CURVE SMOOTH",
"233 712 OFFCURVE",
"216 711 OFFCURVE",
"201 709 CURVE SMOOTH",
"181 706 OFFCURVE",
"163 701 OFFCURVE",
"147 697 CURVE SMOOTH",
"125 690 OFFCURVE",
"104 679 OFFCURVE",
"92 668 CURVE",
"70 652 OFFCURVE",
"56 636 OFFCURVE",
"49 618 CURVE SMOOTH",
"39 593 OFFCURVE",
"33 574 OFFCURVE",
"30 553 CURVE SMOOTH",
"27 530 OFFCURVE",
"24 508 OFFCURVE",
"23 487 CURVE SMOOTH",
"22 464 OFFCURVE",
"21 442 OFFCURVE",
"20 421 CURVE SMOOTH",
"20 420 OFFCURVE",
"19 394 OFFCURVE",
"19 386 CURVE SMOOTH",
"19 382 OFFCURVE",
"19 378 OFFCURVE",
"20 371 CURVE SMOOTH",
"18 401 OFFCURVE",
"23 283 OFFCURVE",
"24 276 CURVE SMOOTH",
"24 262 OFFCURVE",
"25 257 OFFCURVE",
"25 250 CURVE SMOOTH",
"26 234 OFFCURVE",
"28 214 OFFCURVE",
"30 192 CURVE SMOOTH",
"31 180 OFFCURVE",
"40 132 OFFCURVE",
"43 121 CURVE SMOOTH",
"50 93 OFFCURVE",
"61 70 OFFCURVE",
"79 47 CURVE SMOOTH",
"92 29 OFFCURVE",
"117 12 OFFCURVE",
"147 -1 CURVE SMOOTH",
"161 -7 OFFCURVE",
"182 -12 OFFCURVE",
"203 -14 CURVE SMOOTH",
"218 -16 OFFCURVE",
"238 -16 OFFCURVE",
"260 -15 CURVE SMOOTH"
);
}
);
width = 501;
},
{
anchors = (
{
name = bottom;
position = "{241, -51}";
},
{
name = top;
position = "{241, 745}";
}
);
hints = (
{
horizontal = 1;
place = "{295.64, 19.36}";
type = Stem;
},
{
place = "{70, 135.79}";
type = Stem;
}
);
layerId = "DF1E66B1-3A9E-4773-904B-B575E660C115";
paths = (
{
closed = 1;
nodes = (
"268 -13 OFFCURVE",
"286 -10 OFFCURVE",
"304 -7 CURVE",
"322 -3 OFFCURVE",
"339 1 OFFCURVE",
"356 6 CURVE",
"381 15 OFFCURVE",
"403 29 OFFCURVE",
"420 47 CURVE SMOOTH",
"437 65 OFFCURVE",
"448 91 OFFCURVE",
"451 125 CURVE",
"457 155 OFFCURVE",
"459 187 OFFCURVE",
"459 220 CURVE SMOOTH",
"459 271 OFFCURVE",
"455 298 OFFCURVE",
"450 339 CURVE",
"448 352 LINE",
"410 355 LINE",
"391 356 OFFCURVE",
"370 357 OFFCURVE",
"348 358 CURVE SMOOTH",
"326 359 OFFCURVE",
"305 359 OFFCURVE",
"286 358 CURVE SMOOTH",
"263 357 OFFCURVE",
"253 354 OFFCURVE",
"240 350 CURVE",
"241 338 OFFCURVE",
"241 321 OFFCURVE",
"243 314 CURVE",
"260 315 LINE",
"281 315 LINE",
"288 315 OFFCURVE",
"309 315 OFFCURVE",
"343 315 CURVE SMOOTH",
"376 314 OFFCURVE",
"395 314 OFFCURVE",
"399 313 CURVE",
"402 307 OFFCURVE",
"404 293 OFFCURVE",
"406 286 CURVE SMOOTH",
"408 279 OFFCURVE",
"410 262 OFFCURVE",
"413 233 CURVE SMOOTH",
"414 223 OFFCURVE",
"414 211 OFFCURVE",
"414 199 CURVE SMOOTH",
"414 177 OFFCURVE",
"413 152 OFFCURVE",
"411 124 CURVE",
"404 83 OFFCURVE",
"384 60 OFFCURVE",
"369 50 CURVE SMOOTH",
"346 35 OFFCURVE",
"305 21 OFFCURVE",
"270 20 CURVE SMOOTH",
"219 18 OFFCURVE",
"185 28 OFFCURVE",
"142 56 CURVE",
"129 66 OFFCURVE",
"116 81 OFFCURVE",
"103 100 CURVE",
"89 119 OFFCURVE",
"78 170 OFFCURVE",
"71 253 CURVE SMOOTH",
"70 268 OFFCURVE",
"69 283 OFFCURVE",
"69 298 CURVE SMOOTH",
"69 309 OFFCURVE",
"70 320 OFFCURVE",
"70 331 CURVE SMOOTH",
"71 358 OFFCURVE",
"72 382 OFFCURVE",
"74 405 CURVE",
"75 427 OFFCURVE",
"77 451 OFFCURVE",
"78 478 CURVE SMOOTH",
"79 504 OFFCURVE",
"81 519 OFFCURVE",
"86 541 CURVE",
"87 546 OFFCURVE",
"90 559 OFFCURVE",
"95 579 CURVE SMOOTH",
"100 599 OFFCURVE",
"111 616 OFFCURVE",
"130 631 CURVE SMOOTH",
"149 646 OFFCURVE",
"172 656 OFFCURVE",
"200 662 CURVE SMOOTH",
"212 664 OFFCURVE",
"225 666 OFFCURVE",
"239 666 CURVE SMOOTH",
"259 666 OFFCURVE",
"282 663 OFFCURVE",
"307 658 CURVE SMOOTH",
"350 649 OFFCURVE",
"378 628 OFFCURVE",
"389 595 CURVE SMOOTH",
"399 566 OFFCURVE",
"402 545 OFFCURVE",
"402 526 CURVE SMOOTH",
"402 509 OFFCURVE",
"400 480 OFFCURVE",
"402 472 CURVE",
"420 472 OFFCURVE",
"435 472 OFFCURVE",
"440 472 CURVE SMOOTH",
"445 472 OFFCURVE",
"448 475 OFFCURVE",
"449 475 CURVE",
"450 481 LINE",
"451 493 OFFCURVE",
"452 504 OFFCURVE",
"452 514 CURVE SMOOTH",
"452 541 OFFCURVE",
"448 565 OFFCURVE",
"439 587 CURVE SMOOTH",
"427 616 OFFCURVE",
"409 640 OFFCURVE",
"385 658 CURVE SMOOTH",
"361 676 OFFCURVE",
"332 689 OFFCURVE",
"299 696 CURVE SMOOTH",
"280 700 OFFCURVE",
"260 702 OFFCURVE",
"239 702 CURVE SMOOTH",
"224 702 OFFCURVE",
"209 701 OFFCURVE",
"194 699 CURVE SMOOTH",
"176 696 OFFCURVE",
"159 692 OFFCURVE",
"142 687 CURVE SMOOTH",
"125 682 OFFCURVE",
"110 673 OFFCURVE",
"97 662 CURVE",
"78 649 OFFCURVE",
"64 632 OFFCURVE",
"56 611 CURVE",
"47 590 OFFCURVE",
"41 569 OFFCURVE",
"38 547 CURVE SMOOTH",
"35 526 OFFCURVE",
"32 504 OFFCURVE",
"31 482 CURVE SMOOTH",
"30 459 OFFCURVE",
"29 437 OFFCURVE",
"28 416 CURVE SMOOTH",
"28 404 OFFCURVE",
"27 392 OFFCURVE",
"27 381 CURVE SMOOTH",
"27 371 OFFCURVE",
"28 361 OFFCURVE",
"28 351 CURVE",
"28 332 OFFCURVE",
"29 314 OFFCURVE",
"30 297 CURVE SMOOTH",
"31 280 OFFCURVE",
"32 262 OFFCURVE",
"33 245 CURVE SMOOTH",
"34 228 OFFCURVE",
"36 208 OFFCURVE",
"38 187 CURVE SMOOTH",
"39 174 OFFCURVE",
"41 161 OFFCURVE",
"44 148 CURVE",
"46 135 OFFCURVE",
"48 124 OFFCURVE",
"50 117 CURVE SMOOTH",
"58 88 OFFCURVE",
"69 64 OFFCURVE",
"83 45 CURVE SMOOTH",
"97 26 OFFCURVE",
"117 10 OFFCURVE",
"144 -1 CURVE SMOOTH",
"160 -8 OFFCURVE",
"177 -12 OFFCURVE",
"195 -14 CURVE SMOOTH",
"212 -16 OFFCURVE",
"230 -16 OFFCURVE",
"249 -15 CURVE"
);
}
);
width = 481;
}
);
leftKerningGroup = KO_G;
note = G;
rightKerningGroup = KO_G;
unicode = 0047;
},
{
color = 5;
glyphname = H;
lastChange = "2022-10-20 18:49:36 +0000";
layers = (
{
anchors = (
{
name = bottom;
position = "{250, 0}";
},
{
name = center;
position = "{250, 361}";
},
{
name = top;
position = "{250, 757}";
},
{
name = topleft;
position = "{20, 722}";
}
);
hints = (
{
horizontal = 1;
place = "{0.16, 706.59}";
type = Stem;
},
{
place = "{143, 218}";
type = Stem;
},
{
place = "{121, 232}";
type = Stem;
}
);
layerId = "B033F76F-1B86-4758-A592-6C7B1BE8F750";
paths = (
{
closed = 1;
nodes = (
"125 0 OFFCURVE",
"134 1 OFFCURVE",
"141 4 CURVE",
"142 25 OFFCURVE",
"142 41 OFFCURVE",
"142 57 CURVE SMOOTH",
"142 91 OFFCURVE",
"141 119 OFFCURVE",
"141 167 CURVE SMOOTH",
"141 199 OFFCURVE",
"141 239 OFFCURVE",
"143 296 CURVE",
"180 300 OFFCURVE",
"215 302 OFFCURVE",
"248 302 CURVE SMOOTH",
"271 302 OFFCURVE",
"294 301 OFFCURVE",
"315 299 CURVE",
"361 299 LINE",
"369 152 OFFCURVE",
"362 128 OFFCURVE",
"375 3 CURVE",
"387 3 OFFCURVE",
"401 3 OFFCURVE",
"416 3 CURVE SMOOTH",
"434 3 OFFCURVE",
"453 3 OFFCURVE",
"469 6 CURVE",
"442 706 LINE",
"436 707 OFFCURVE",
"429 707 OFFCURVE",
"421 707 CURVE SMOOTH",
"399 707 OFFCURVE",
"373 705 OFFCURVE",
"353 700 CURVE",
"354 637 OFFCURVE",
"355 581 OFFCURVE",
"355 528 CURVE SMOOTH",
"355 483 OFFCURVE",
"354 441 OFFCURVE",
"353 398 CURVE",
"329 396 OFFCURVE",
"285 393 OFFCURVE",
"226 393 CURVE SMOOTH",
"200 393 OFFCURVE",
"171 393 OFFCURVE",
"140 395 CURVE",
"127 482 OFFCURVE",
"129 582 OFFCURVE",
"121 696 CURVE",
"115 698 OFFCURVE",
"104 698 OFFCURVE",
"93 698 CURVE SMOOTH",
"73 698 OFFCURVE",
"50 697 OFFCURVE",
"40 698 CURVE",
"39 666 OFFCURVE",
"39 630 OFFCURVE",
"39 591 CURVE SMOOTH",
"39 381 OFFCURVE",
"47 96 OFFCURVE",
"54 1 CURVE",
"57 2 OFFCURVE",
"62 3 OFFCURVE",
"67 3 CURVE SMOOTH",
"80 3 OFFCURVE",
"99 0 OFFCURVE",
"115 0 CURVE SMOOTH"
);
}
);
width = 499;
},
{
anchors = (
{
name = bottom;
position = "{250, 0}";
},
{
name = center;
position = "{250, 361}";
},
{
name = top;
position = "{250, 751}";
},
{
name = topleft;
position = "{20, 722}";
}
);
layerId = "9B0E9E80-6738-4704-8EC6-A4FB4E6479F4";
paths = (
{
closed = 1;
nodes = (
"195 20 OFFCURVE",
"195 50 OFFCURVE",
"196 72 CURVE",
"196 92 OFFCURVE",
"194 183 OFFCURVE",
"194 206 CURVE",
"193 229 OFFCURVE",
"194 252 OFFCURVE",
"196 275 CURVE",
"215 280 OFFCURVE",
"235 282 OFFCURVE",
"254 282 CURVE SMOOTH",
"280 282 OFFCURVE",
"295 280 OFFCURVE",
"313 276 CURVE",
"316 255 OFFCURVE",
"317 232 OFFCURVE",
"318 209 CURVE SMOOTH",
"319 190 OFFCURVE",
"321 92 OFFCURVE",
"322 69 CURVE SMOOTH",
"323 45 OFFCURVE",
"325 22 OFFCURVE",
"328 0 CURVE",
"329 0 LINE",
"337 1 OFFCURVE",
"347 1 OFFCURVE",
"359 1 CURVE SMOOTH",
"370 1 OFFCURVE",
"441 4 OFFCURVE",
"454 4 CURVE",
"469 6 LINE",
"442 706 LINE",
"432 707 OFFCURVE",
"421 707 OFFCURVE",
"409 708 CURVE",
"396 708 OFFCURVE",
"384 708 OFFCURVE",
"371 707 CURVE SMOOTH",
"358 706 OFFCURVE",
"346 704 OFFCURVE",
"335 702 CURVE SMOOTH",
"323 700 OFFCURVE",
"313 698 OFFCURVE",
"305 695 CURVE",
"307 647 OFFCURVE",
"308 603 OFFCURVE",
"308 563 CURVE SMOOTH",
"307 523 OFFCURVE",
"305 480 OFFCURVE",
"301 434 CURVE",
"283 433 OFFCURVE",
"265 431 OFFCURVE",
"246 430 CURVE",
"240 429 OFFCURVE",
"233 429 OFFCURVE",
"227 429 CURVE SMOOTH",
"215 429 OFFCURVE",
"203 430 OFFCURVE",
"192 433 CURVE",
"183 476 OFFCURVE",
"179 519 OFFCURVE",
"179 562 CURVE SMOOTH",
"179 605 OFFCURVE",
"176 650 OFFCURVE",
"170 696 CURVE",
"161 699 OFFCURVE",
"151 700 OFFCURVE",
"140 700 CURVE SMOOTH",
"129 700 OFFCURVE",
"119 700 OFFCURVE",
"108 699 CURVE SMOOTH",
"97 698 OFFCURVE",
"86 698 OFFCURVE",
"75 697 CURVE SMOOTH",
"71 697 OFFCURVE",
"69 697 OFFCURVE",
"67 697 CURVE SMOOTH",
"61 697 OFFCURVE",
"57 697 OFFCURVE",
"40 698 CURVE SMOOTH",
"40 664 OFFCURVE",
"39 626 OFFCURVE",
"39 584 CURVE SMOOTH",
"39 563 OFFCURVE",
"38 541 OFFCURVE",
"38 519 CURVE SMOOTH",
"38 497 OFFCURVE",
"39 475 OFFCURVE",
"39 452 CURVE SMOOTH",
"40 406 OFFCURVE",
"41 360 OFFCURVE",
"42 315 CURVE SMOOTH",
"43 270 OFFCURVE",
"44 227 OFFCURVE",
"45 187 CURVE SMOOTH",
"46 146 OFFCURVE",
"48 110 OFFCURVE",
"50 78 CURVE SMOOTH",
"51 45 OFFCURVE",
"53 20 OFFCURVE",
"54 1 CURVE",
"86 0 LINE",
"99 -1 OFFCURVE",
"145 0 OFFCURVE",
"158 0 CURVE",
"192 -1 LINE"
);
}
);
width = 499;
},
{
anchors = (
{
name = bottom;
position = "{260, 0}";
},
{
name = center;
position = "{260, 361}";
},
{
name = top;
position = "{260, 750}";
},
{
name = topleft;
position = "{20, 722}";
}
);
layerId = "BB6A108D-08DB-4BF5-B99B-807E42D41E71";
paths = (
{
closed = 1;
nodes = (
"221 13 OFFCURVE",
"222 25 OFFCURVE",
"223 57 CURVE SMOOTH",
"224 64 OFFCURVE",
"224 71 OFFCURVE",
"224 77 CURVE SMOOTH",
"224 87 OFFCURVE",
"224 113 OFFCURVE",
"223 140 CURVE SMOOTH",
"223 169 OFFCURVE",
"222 199 OFFCURVE",
"222 211 CURVE SMOOTH",
"221 231 OFFCURVE",
"222 244 OFFCURVE",
"224 269 CURVE",
"237 272 OFFCURVE",
"249 273 OFFCURVE",
"264 273 CURVE SMOOTH",
"282 273 OFFCURVE",
"293 272 OFFCURVE",
"305 270 CURVE",
"308 251 OFFCURVE",
"309 236 OFFCURVE",
"310 214 CURVE SMOOTH",
"311 204 OFFCURVE",
"311 172 OFFCURVE",
"312 141 CURVE SMOOTH",
"313 99 OFFCURVE",
"314 83 OFFCURVE",
"314 74 CURVE SMOOTH",
"315 49 OFFCURVE",
"317 23 OFFCURVE",
"320 0 CURVE",
"339 0 LINE",
"347 0 OFFCURVE",
"355 1 OFFCURVE",
"369 1 CURVE SMOOTH",
"375 1 OFFCURVE",
"394 2 OFFCURVE",
"414 2 CURVE SMOOTH",
"439 3 OFFCURVE",
"464 4 OFFCURVE",
"466 4 CURVE SMOOTH",
"497 8 LINE",
"470 711 LINE",
"454 716 LINE",
"436 716 OFFCURVE",
"423 718 OFFCURVE",
"420 718 CURVE SMOOTH",
"407 718 OFFCURVE",
"393 718 OFFCURVE",
"380 717 CURVE SMOOTH",
"368 716 OFFCURVE",
"356 715 OFFCURVE",
"342 712 CURVE SMOOTH",
"325 709 OFFCURVE",
"313 707 OFFCURVE",
"309 705 CURVE SMOOTH",
"297 700 LINE",
"299 652 OFFCURVE",
"300 607 OFFCURVE",
"300 568 CURVE SMOOTH",
"299 523 OFFCURVE",
"297 489 OFFCURVE",
"293 451 CURVE",
"290 451 OFFCURVE",
"287 450 OFFCURVE",
"283 450 CURVE SMOOTH",
"260 448 OFFCURVE",
"243 447 OFFCURVE",
"237 447 CURVE SMOOTH",
"230 447 OFFCURVE",
"225 447 OFFCURVE",
"219 448 CURVE",
"211 487 OFFCURVE",
"207 523 OFFCURVE",
"207 567 CURVE SMOOTH",
"207 610 OFFCURVE",
"204 654 OFFCURVE",
"198 702 CURVE",
"186 706 LINE SMOOTH",
"179 708 OFFCURVE",
"164 710 OFFCURVE",
"150 710 CURVE SMOOTH",
"139 710 OFFCURVE",
"128 710 OFFCURVE",
"116 709 CURVE SMOOTH",
"112 709 OFFCURVE",
"109 708 OFFCURVE",
"101 708 CURVE SMOOTH",
"78 707 OFFCURVE",
"59 707 OFFCURVE",
"32 709 CURVE",
"32 691 OFFCURVE",
"32 672 OFFCURVE",
"32 652 CURVE SMOOTH",
"31 632 OFFCURVE",
"31 611 OFFCURVE",
"31 589 CURVE SMOOTH",
"31 579 OFFCURVE",
"31 568 OFFCURVE",
"31 557 CURVE SMOOTH",
"30 546 OFFCURVE",
"30 535 OFFCURVE",
"30 524 CURVE SMOOTH",
"30 513 OFFCURVE",
"30 502 OFFCURVE",
"30 491 CURVE SMOOTH",
"31 480 OFFCURVE",
"31 469 OFFCURVE",
"31 457 CURVE SMOOTH",
"32 411 OFFCURVE",
"33 365 OFFCURVE",
"34 320 CURVE SMOOTH",
"35 273 OFFCURVE",
"36 230 OFFCURVE",
"37 192 CURVE SMOOTH",
"38 151 OFFCURVE",
"40 115 OFFCURVE",
"42 83 CURVE SMOOTH",
"43 60 OFFCURVE",
"44 40 OFFCURVE",
"45 24 CURVE SMOOTH",
"46 12 OFFCURVE",
"46 9 OFFCURVE",
"46 2 CURVE",
"95 0 LINE SMOOTH",
"104 0 OFFCURVE",
"133 0 OFFCURVE",
"152 0 CURVE SMOOTH",
"159 0 OFFCURVE",
"165 0 OFFCURVE",
"168 0 CURVE SMOOTH",
"219 -2 LINE"
);
}
);
width = 519;
},
{
anchors = (
{
name = bottom;
position = "{250, 0}";
},
{
name = center;
position = "{250, 361}";
},
{
name = top;
position = "{250, 757}";
},
{
name = topleft;
position = "{20, 722}";
}
);
hints = (
{
horizontal = 1;
place = "{1, 705.25}";
type = Stem;
},
{
place = "{90, 324}";
type = Stem;
},
{
place = "{70.82, 331.18}";
type = Stem;
}
);
layerId = "DF1E66B1-3A9E-4773-904B-B575E660C115";
paths = (
{
closed = 1;
nodes = (
"469 0 LINE",
"437 706 LINE",
"427 707 OFFCURVE",
"414 706 OFFCURVE",
"397 705 CURVE",
"397 672 OFFCURVE",
"397 641 OFFCURVE",
"397 610 CURVE SMOOTH",
"397 518 OFFCURVE",
"398 441 OFFCURVE",
"400 367 CURVE",
"383 366 OFFCURVE",
"348 364 OFFCURVE",
"299 363 CURVE SMOOTH",
"250 362 OFFCURVE",
"179 362 OFFCURVE",
"92 362 CURVE",
"85 452 OFFCURVE",
"94 541 OFFCURVE",
"83 697 CURVE",
"40 698 LINE",
"39 584 LINE",
"39 563 OFFCURVE",
"38 541 OFFCURVE",
"38 519 CURVE SMOOTH",
"38 497 OFFCURVE",
"39 475 OFFCURVE",
"39 452 CURVE SMOOTH",
"40 406 OFFCURVE",
"41 360 OFFCURVE",
"42 315 CURVE SMOOTH",
"43 270 OFFCURVE",
"44 227 OFFCURVE",
"45 187 CURVE SMOOTH",
"46 146 OFFCURVE",
"48 110 OFFCURVE",
"50 78 CURVE SMOOTH",
"51 45 OFFCURVE",
"53 20 OFFCURVE",
"54 1 CURVE",
"63 1 OFFCURVE",
"81 1 OFFCURVE",
"98 2 CURVE",
"97 23 OFFCURVE",
"96 45 OFFCURVE",
"97 67 CURVE",
"97 88 OFFCURVE",
"97 110 OFFCURVE",
"96 133 CURVE SMOOTH",
"95 156 OFFCURVE",
"95 217 OFFCURVE",
"95 317 CURVE",
"152 321 OFFCURVE",
"217 323 OFFCURVE",
"260 323 CURVE SMOOTH",
"286 323 OFFCURVE",
"307 322 OFFCURVE",
"318 321 CURVE",
"404 322 LINE",
"407 227 OFFCURVE",
"408 168 OFFCURVE",
"409 145 CURVE",
"409 122 OFFCURVE",
"412 69 OFFCURVE",
"417 0 CURVE"
);
}
);
width = 499;
}
);
leftKerningGroup = KO_H;
note = H;
rightKerningGroup = KO_H;
unicode = 0048;
userData = {
KernOnName = H;
};
},
{
color = 5;
glyphname = I;
lastChange = "2022-10-20 18:48:20 +0000";
layers = (
{
anchors = (
{
name = bottom;
position = "{130, 0}";
},
{
name = ogonek;
position = "{135, 22}";
},
{
name = top;
position = "{135, 722}";
},
{
name = topleft;
position = "{20, 722}";
}
);
hints = (
{
horizontal = 1;
place = "{-4, 712.63}";
type = Stem;
},
{
place = "{66, 122}";
type = Stem;
}
);
layerId = "B033F76F-1B86-4758-A592-6C7B1BE8F750";
paths = (
{
closed = 1;
nodes = (
"73 -3 OFFCURVE",
"82 -2 OFFCURVE",
"92 -2 CURVE SMOOTH",
"109 -2 OFFCURVE",
"129 -3 OFFCURVE",
"147 -3 CURVE SMOOTH",
"165 -3 OFFCURVE",
"180 -2 OFFCURVE",
"187 3 CURVE",
"184 75 OFFCURVE",
"183 148 OFFCURVE",
"183 220 CURVE SMOOTH",
"183 380 OFFCURVE",
"188 541 OFFCURVE",
"188 699 CURVE SMOOTH",
"188 703 LINE",
"129 704 OFFCURVE",
"121 708 OFFCURVE",
"102 708 CURVE SMOOTH",
"95 708 OFFCURVE",
"87 708 OFFCURVE",
"75 706 CURVE",
"69 650 OFFCURVE",
"66 592 OFFCURVE",
"66 534 CURVE",
"67 461 OFFCURVE",
"69 374 OFFCURVE",
"70 274 CURVE SMOOTH",
"71 241 OFFCURVE",
"71 209 OFFCURVE",
"71 177 CURVE SMOOTH",
"71 113 OFFCURVE",
"70 53 OFFCURVE",
"67 -4 CURVE"
);
}
);
width = 260;
},
{
anchors = (
{
name = bottom;
position = "{130, 0}";
},
{
name = ogonek;
position = "{176, 10}";
},
{
name = top;
position = "{130, 722}";
},
{
name = topleft;
position = "{20, 722}";
}
);
layerId = "9B0E9E80-6738-4704-8EC6-A4FB4E6479F4";
paths = (
{
closed = 1;
nodes = (
"152 -6 OFFCURVE",
"171 -6 OFFCURVE",
"188 -5 CURVE SMOOTH",
"205 -4 OFFCURVE",
"216 0 OFFCURVE",
"221 5 CURVE",
"218 62 OFFCURVE",
"216 119 OFFCURVE",
"215 177 CURVE SMOOTH",
"215 194 OFFCURVE",
"215 211 OFFCURVE",
"215 228 CURVE SMOOTH",
"215 269 OFFCURVE",
"215 310 OFFCURVE",
"216 352 CURVE SMOOTH",
"217 410 OFFCURVE",
"218 468 OFFCURVE",
"220 526 CURVE",
"222 703 LINE",
"198 703 LINE SMOOTH",
"168 703 OFFCURVE",
"145 703 OFFCURVE",
"130 704 CURVE SMOOTH",
"114 705 OFFCURVE",
"100 705 OFFCURVE",
"88 706 CURVE",
"83 706 OFFCURVE",
"76 707 OFFCURVE",
"67 708 CURVE SMOOTH",
"57 709 OFFCURVE",
"50 708 OFFCURVE",
"47 708 CURVE",
"41 647 OFFCURVE",
"38 589 OFFCURVE",
"39 535 CURVE",
"39 476 OFFCURVE",
"40 417 OFFCURVE",
"42 358 CURVE SMOOTH",
"43 298 OFFCURVE",
"44 238 OFFCURVE",
"45 177 CURVE SMOOTH",
"45 167 OFFCURVE",
"45 157 OFFCURVE",
"45 147 CURVE SMOOTH",
"45 96 OFFCURVE",
"43 46 OFFCURVE",
"39 -4 CURVE",
"46 -2 OFFCURVE",
"58 -2 OFFCURVE",
"76 -3 CURVE SMOOTH",
"94 -4 OFFCURVE",
"113 -4 OFFCURVE",
"133 -5 CURVE SMOOTH"
);
}
);
width = 260;
},
{
anchors = (
{
name = bottom;
position = "{140, 0}";
},
{
name = ogonek;
position = "{178, 10}";
},
{
name = top;
position = "{140, 722}";
},
{
name = topleft;
position = "{20, 722}";
}
);
layerId = "BB6A108D-08DB-4BF5-B99B-807E42D41E71";
paths = (
{
closed = 1;
nodes = (
"162 -6 OFFCURVE",
"183 -6 OFFCURVE",
"199 -5 CURVE SMOOTH",
"221 -4 OFFCURVE",
"244 -5 OFFCURVE",
"244 -1 CURVE SMOOTH",
"245 67 OFFCURVE",
"244 101 OFFCURVE",
"243 182 CURVE SMOOTH",
"243 198 OFFCURVE",
"243 217 OFFCURVE",
"243 233 CURVE SMOOTH",
"243 274 OFFCURVE",
"243 315 OFFCURVE",
"244 357 CURVE SMOOTH",
"245 415 OFFCURVE",
"247 473 OFFCURVE",
"248 531 CURVE SMOOTH",
"250 713 LINE",
"208 713 LINE SMOOTH",
"178 713 OFFCURVE",
"157 713 OFFCURVE",
"141 714 CURVE SMOOTH",
"134 714 OFFCURVE",
"126 715 OFFCURVE",
"120 715 CURVE SMOOTH",
"92 716 OFFCURVE",
"78 718 OFFCURVE",
"57 718 CURVE",
"39 718 LINE",
"33 653 OFFCURVE",
"30 592 OFFCURVE",
"31 540 CURVE SMOOTH",
"31 480 OFFCURVE",
"32 421 OFFCURVE",
"34 363 CURVE SMOOTH",
"35 303 OFFCURVE",
"36 243 OFFCURVE",
"37 182 CURVE SMOOTH",
"37 172 OFFCURVE",
"37 162 OFFCURVE",
"37 152 CURVE SMOOTH",
"37 101 OFFCURVE",
"35 48 OFFCURVE",
"31 -1 CURVE",
"60 -1 LINE",
"69 -1 OFFCURVE",
"104 -4 OFFCURVE",
"114 -4 CURVE SMOOTH",
"128 -4 OFFCURVE",
"134 -5 OFFCURVE",
"142 -5 CURVE SMOOTH"
);
}
);
width = 280;
},
{
anchors = (
{
name = bottom;
position = "{130, 0}";
},
{
name = ogonek;
position = "{128, 10}";
},
{
name = top;
position = "{129, 700}";
},
{
name = topleft;
position = "{20, 700}";
}
);
hints = (
{
horizontal = 1;
place = "{-4, 712.38}";
type = Stem;
},
{
place = "{96, 59}";
type = Stem;
}
);
layerId = "DF1E66B1-3A9E-4773-904B-B575E660C115";
paths = (
{
closed = 1;
nodes = (
"103 -2 OFFCURVE",
"120 0 OFFCURVE",
"129 0 CURVE",
"154 1 LINE",
"152 45 OFFCURVE",
"151 90 OFFCURVE",
"151 133 CURVE SMOOTH",
"151 148 OFFCURVE",
"151 163 OFFCURVE",
"151 177 CURVE SMOOTH",
"152 206 OFFCURVE",
"152 235 OFFCURVE",
"152 264 CURVE SMOOTH",
"152 293 OFFCURVE",
"152 323 OFFCURVE",
"151 352 CURVE SMOOTH",
"151 368 OFFCURVE",
"151 383 OFFCURVE",
"151 399 CURVE SMOOTH",
"151 441 OFFCURVE",
"152 484 OFFCURVE",
"153 526 CURVE SMOOTH",
"154 584 OFFCURVE",
"155 643 OFFCURVE",
"155 699 CURVE SMOOTH",
"155 703 LINE",
"104 706 LINE",
"98 650 OFFCURVE",
"95 593 OFFCURVE",
"96 535 CURVE",
"96 476 OFFCURVE",
"96 392 OFFCURVE",
"97 283 CURVE SMOOTH",
"97 251 OFFCURVE",
"97 220 OFFCURVE",
"97 190 CURVE SMOOTH",
"97 118 OFFCURVE",
"97 53 OFFCURVE",
"96 -4 CURVE"
);
}
);
width = 260;
}
);
leftKerningGroup = KO_I;
note = I;
rightKerningGroup = KO_I;
unicode = 0049;
},
{
color = 5;
glyphname = J;
lastChange = "2022-10-21 19:06:45 +0000";
layers = (
{
anchors = (
{
name = bottom;
position = "{232, 0}";
},
{
name = top;
position = "{164, 722}";
}
);
hints = (
{
horizontal = 1;
place = "{-8, 720}";
type = Stem;
},
{
place = "{159, 118}";
type = Stem;
}
);
layerId = "9B0E9E80-6738-4704-8EC6-A4FB4E6479F4";
paths = (
{
closed = 1;
nodes = (
"244 -8 OFFCURVE",
"281 0 OFFCURVE",
"313 16 CURVE",
"344 27 OFFCURVE",
"367 45 OFFCURVE",
"383 69 CURVE SMOOTH",
"398 93 OFFCURVE",
"409 120 OFFCURVE",
"416 149 CURVE SMOOTH",
"422 178 OFFCURVE",
"425 209 OFFCURVE",
"426 241 CURVE SMOOTH",
"427 272 OFFCURVE",
"428 302 OFFCURVE",
"429 329 CURVE SMOOTH",
"429 353 OFFCURVE",
"430 376 OFFCURVE",
"430 400 CURVE SMOOTH",
"430 441 OFFCURVE",
"429 481 OFFCURVE",
"427 522 CURVE",
"425 712 LINE",
"279 710 LINE",
"279 703 LINE",
"277 653 OFFCURVE",
"276 603 OFFCURVE",
"276 553 CURVE SMOOTH",
"276 524 OFFCURVE",
"277 495 OFFCURVE",
"277 466 CURVE SMOOTH",
"278 387 OFFCURVE",
"279 311 OFFCURVE",
"280 236 CURVE",
"279 226 OFFCURVE",
"278 217 OFFCURVE",
"275 208 CURVE SMOOTH",
"272 199 OFFCURVE",
"269 191 OFFCURVE",
"264 184 CURVE SMOOTH",
"259 177 OFFCURVE",
"252 171 OFFCURVE",
"245 168 CURVE SMOOTH",
"240 166 OFFCURVE",
"235 165 OFFCURVE",
"229 165 CURVE SMOOTH",
"226 165 OFFCURVE",
"223 165 OFFCURVE",
"219 166 CURVE",
"207 167 OFFCURVE",
"197 171 OFFCURVE",
"190 179 CURVE SMOOTH",
"183 187 OFFCURVE",
"177 197 OFFCURVE",
"172 209 CURVE SMOOTH",
"167 220 OFFCURVE",
"164 233 OFFCURVE",
"163 246 CURVE",
"161 259 OFFCURVE",
"160 272 OFFCURVE",
"159 280 CURVE",
"159 285 LINE",
"147 288 OFFCURVE",
"134 290 OFFCURVE",
"120 291 CURVE SMOOTH",
"105 292 OFFCURVE",
"91 293 OFFCURVE",
"77 293 CURVE SMOOTH",
"63 293 OFFCURVE",
"50 293 OFFCURVE",
"37 292 CURVE SMOOTH",
"24 291 OFFCURVE",
"13 290 OFFCURVE",
"4 288 CURVE",
"3 263 OFFCURVE",
"3 235 OFFCURVE",
"6 205 CURVE",
"8 174 OFFCURVE",
"13 145 OFFCURVE",
"22 118 CURVE SMOOTH",
"31 90 OFFCURVE",
"43 65 OFFCURVE",
"60 44 CURVE SMOOTH",
"77 23 OFFCURVE",
"99 8 OFFCURVE",
"126 0 CURVE",
"151 -6 OFFCURVE",
"178 -8 OFFCURVE",
"205 -8 CURVE SMOOTH"
);
}
);
width = 463;
},
{
anchors = (
{
name = bottom;
position = "{242, 0}";
},
{
name = top;
position = "{140, 722}";
}
);
hints = (
{
horizontal = 1;
place = "{2, 730}";
type = Stem;
},
{
place = "{169, 128}";
type = Stem;
}
);
layerId = "BB6A108D-08DB-4BF5-B99B-807E42D41E71";
paths = (
{
closed = 1;
nodes = (
"327 -8 OFFCURVE",
"416 42 OFFCURVE",
"444 153 CURVE SMOOTH",
"450 182 OFFCURVE",
"453 211 OFFCURVE",
"454 246 CURVE SMOOTH",
"455 277 OFFCURVE",
"456 307 OFFCURVE",
"457 334 CURVE SMOOTH",
"457 346 OFFCURVE",
"457 358 OFFCURVE",
"457 369 CURVE SMOOTH",
"458 381 OFFCURVE",
"458 393 OFFCURVE",
"458 405 CURVE SMOOTH",
"458 446 OFFCURVE",
"455 486 OFFCURVE",
"455 527 CURVE SMOOTH",
"453 722 LINE",
"271 720 LINE",
"271 708 LINE SMOOTH",
"271 659 OFFCURVE",
"268 609 OFFCURVE",
"268 558 CURVE SMOOTH",
"268 544 OFFCURVE",
"268 529 OFFCURVE",
"269 514 CURVE SMOOTH",
"269 500 OFFCURVE",
"269 486 OFFCURVE",
"269 471 CURVE SMOOTH",
"270 359 OFFCURVE",
"272 246 OFFCURVE",
"268 215 CURVE SMOOTH",
"266 202 OFFCURVE",
"261 188 OFFCURVE",
"253 180 CURVE SMOOTH",
"248 175 OFFCURVE",
"243 175 OFFCURVE",
"239 175 CURVE SMOOTH",
"232 175 OFFCURVE",
"222 177 OFFCURVE",
"214 187 CURVE SMOOTH",
"204 198 OFFCURVE",
"193 228 OFFCURVE",
"191 252 CURVE SMOOTH",
"190 257 OFFCURVE",
"187 282 OFFCURVE",
"187 290 CURVE",
"173 295 LINE",
"163 297 OFFCURVE",
"147 300 OFFCURVE",
"131 301 CURVE SMOOTH",
"116 302 OFFCURVE",
"102 303 OFFCURVE",
"87 303 CURVE SMOOTH",
"73 303 OFFCURVE",
"59 303 OFFCURVE",
"46 302 CURVE SMOOTH",
"27 301 OFFCURVE",
"16 299 OFFCURVE",
"10 298 CURVE",
"-4 293 LINE",
"-5 262 OFFCURVE",
"-5 237 OFFCURVE",
"-2 210 CURVE SMOOTH",
"0 177 OFFCURVE",
"5 150 OFFCURVE",
"15 121 CURVE SMOOTH",
"24 93 OFFCURVE",
"37 70 OFFCURVE",
"56 46 CURVE SMOOTH",
"72 26 OFFCURVE",
"99 10 OFFCURVE",
"131 0 CURVE SMOOTH",
"153 -5 OFFCURVE",
"182 -8 OFFCURVE",
"215 -8 CURVE SMOOTH"
);
}
);
width = 483;
},
{
anchors = (
{
name = bottom;
position = "{232, 0}";
},
{
name = top;
position = "{200, 722}";
}
);
layerId = "B033F76F-1B86-4758-A592-6C7B1BE8F750";
paths = (
{
closed = 1;
nodes = (
"236 -8 OFFCURVE",
"277 0 OFFCURVE",
"313 16 CURVE SMOOTH",
"373 43 OFFCURVE",
"397 80 OFFCURVE",
"411 131 CURVE SMOOTH",
"429 194 OFFCURVE",
"426 269 OFFCURVE",
"429 329 CURVE SMOOTH",
"429 346 OFFCURVE",
"430 363 OFFCURVE",
"430 381 CURVE SMOOTH",
"430 474 OFFCURVE",
"424 569 OFFCURVE",
"424 661 CURVE SMOOTH",
"424 678 OFFCURVE",
"425 695 OFFCURVE",
"425 712 CURVE",
"393 711 OFFCURVE",
"361 711 OFFCURVE",
"329 710 CURVE",
"329 703 LINE SMOOTH",
"329 597 OFFCURVE",
"328 490 OFFCURVE",
"328 389 CURVE SMOOTH",
"328 339 OFFCURVE",
"328 290 OFFCURVE",
"329 243 CURVE",
"328 227 OFFCURVE",
"333 172 OFFCURVE",
"301 136 CURVE SMOOTH",
"283 117 OFFCURVE",
"254 101 OFFCURVE",
"209 101 CURVE SMOOTH",
"172 101 OFFCURVE",
"148 117 OFFCURVE",
"133 139 CURVE SMOOTH",
"103 181 OFFCURVE",
"103 245 OFFCURVE",
"102 265 CURVE",
"102 271 OFFCURVE",
"101 277 OFFCURVE",
"101 282 CURVE SMOOTH",
"101 286 LINE",
"84 289 OFFCURVE",
"62 290 OFFCURVE",
"42 290 CURVE SMOOTH",
"28 290 OFFCURVE",
"14 290 OFFCURVE",
"4 288 CURVE",
"4 278 OFFCURVE",
"3 268 OFFCURVE",
"3 257 CURVE SMOOTH",
"3 204 OFFCURVE",
"10 143 OFFCURVE",
"31 94 CURVE SMOOTH",
"50 49 OFFCURVE",
"80 14 OFFCURVE",
"126 0 CURVE",
"149 -5 OFFCURVE",
"172 -8 OFFCURVE",
"196 -8 CURVE SMOOTH"
);
}
);
width = 463;
},
{
anchors = (
{
name = bottom;
position = "{232, 0}";
},
{
name = top;
position = "{205, 700}";
}
);
hints = (
{
horizontal = 1;
place = "{-8, 720}";
type = Stem;
},
{
place = "{361.48, 17.52}";
type = Stem;
}
);
layerId = "DF1E66B1-3A9E-4773-904B-B575E660C115";
paths = (
{
closed = 1;
nodes = (
"244 -8 OFFCURVE",
"281 0 OFFCURVE",
"313 16 CURVE",
"344 27 OFFCURVE",
"367 45 OFFCURVE",
"383 69 CURVE SMOOTH",
"398 93 OFFCURVE",
"409 120 OFFCURVE",
"416 149 CURVE SMOOTH",
"422 178 OFFCURVE",
"425 209 OFFCURVE",
"426 241 CURVE SMOOTH",
"427 272 OFFCURVE",
"428 302 OFFCURVE",
"429 329 CURVE SMOOTH",
"429 353 OFFCURVE",
"430 376 OFFCURVE",
"430 400 CURVE SMOOTH",
"430 441 OFFCURVE",
"429 481 OFFCURVE",
"427 522 CURVE",
"425 712 LINE",
"379 710 LINE",
"379 703 LINE",
"377 653 OFFCURVE",
"376 603 OFFCURVE",
"376 553 CURVE SMOOTH",
"376 524 OFFCURVE",
"377 495 OFFCURVE",
"377 466 CURVE SMOOTH",
"378 387 OFFCURVE",
"378 315 OFFCURVE",
"378 250 CURVE",
"377 240 OFFCURVE",
"376 220 OFFCURVE",
"375 191 CURVE SMOOTH",
"373 161 OFFCURVE",
"366 131 OFFCURVE",
"353 101 CURVE SMOOTH",
"340 70 OFFCURVE",
"300 50 OFFCURVE",
"231 39 CURVE SMOOTH",
"214 36 OFFCURVE",
"199 35 OFFCURVE",
"185 35 CURVE SMOOTH",
"141 35 OFFCURVE",
"111 48 OFFCURVE",
"93 75 CURVE SMOOTH",
"70 110 OFFCURVE",
"57 144 OFFCURVE",
"54 177 CURVE SMOOTH",
"51 210 OFFCURVE",
"48 233 OFFCURVE",
"47 246 CURVE",
"45 259 OFFCURVE",
"44 272 OFFCURVE",
"43 280 CURVE",
"43 285 LINE",
"43 286 LINE",
"31 288 OFFCURVE",
"18 289 OFFCURVE",
"4 288 CURVE",
"3 263 OFFCURVE",
"3 235 OFFCURVE",
"6 205 CURVE",
"8 174 OFFCURVE",
"13 145 OFFCURVE",
"22 118 CURVE SMOOTH",
"31 90 OFFCURVE",
"43 65 OFFCURVE",
"60 44 CURVE SMOOTH",
"77 23 OFFCURVE",
"99 8 OFFCURVE",
"126 0 CURVE",
"151 -6 OFFCURVE",
"178 -8 OFFCURVE",
"205 -8 CURVE SMOOTH"
);
}
);
width = 463;
}
);
leftKerningGroup = KO_J;
note = J;
rightKerningGroup = KO_U;
unicode = 004A;
userData = {
KernOnName = J;
};
},
{
color = 5;
glyphname = K;
lastChange = "2022-10-21 19:06:45 +0000";
layers = (
{
anchors = (
{
name = bottom;
position = "{230, -47}";
},
{
name = top;
position = "{230, 722}";
}
);
hints = (
{
horizontal = 1;
place = "{-2, 701.75}";
type = Stem;
},
{
place = "{38.62, 424.38}";
type = Stem;
}
);
layerId = "9B0E9E80-6738-4704-8EC6-A4FB4E6479F4";
paths = (
{
closed = 1;
nodes = (
"138 -2 OFFCURVE",
"170 -1 OFFCURVE",
"189 5 CURVE",
"189 24 OFFCURVE",
"189 44 OFFCURVE",
"189 66 CURVE",
"188 88 OFFCURVE",
"188 110 OFFCURVE",
"187 133 CURVE SMOOTH",
"186 156 OFFCURVE",
"186 178 OFFCURVE",
"186 201 CURVE",
"185 223 OFFCURVE",
"185 244 OFFCURVE",
"186 263 CURVE",
"197 244 OFFCURVE",
"207 223 OFFCURVE",
"218 200 CURVE SMOOTH",
"229 177 OFFCURVE",
"240 153 OFFCURVE",
"251 129 CURVE SMOOTH",
"262 105 OFFCURVE",
"273 82 OFFCURVE",
"285 60 CURVE SMOOTH",
"297 37 OFFCURVE",
"310 18 OFFCURVE",
"324 2 CURVE",
"375 1 OFFCURVE",
"437 -2 OFFCURVE",
"463 0 CURVE",
"292 359 LINE",
"304 387 OFFCURVE",
"318 415 OFFCURVE",
"334 443 CURVE SMOOTH",
"350 471 OFFCURVE",
"366 499 OFFCURVE",
"383 527 CURVE SMOOTH",
"399 555 OFFCURVE",
"414 583 OFFCURVE",
"429 611 CURVE SMOOTH",
"443 639 OFFCURVE",
"454 667 OFFCURVE",
"462 695 CURVE",
"446 697 OFFCURVE",
"429 698 OFFCURVE",
"412 698 CURVE SMOOTH",
"381 698 OFFCURVE",
"352 697 OFFCURVE",
"326 698 CURVE",
"312 678 OFFCURVE",
"300 658 OFFCURVE",
"289 638 CURVE SMOOTH",
"278 618 OFFCURVE",
"267 598 OFFCURVE",
"257 578 CURVE",
"246 558 OFFCURVE",
"235 538 OFFCURVE",
"224 519 CURVE SMOOTH",
"217 507 OFFCURVE",
"207 489 OFFCURVE",
"183 459 CURVE",
"180 577 LINE",
"180 589 OFFCURVE",
"180 601 OFFCURVE",
"180 613 CURVE SMOOTH",
"180 642 OFFCURVE",
"180 670 OFFCURVE",
"179 697 CURVE",
"158 697 OFFCURVE",
"136 698 OFFCURVE",
"113 699 CURVE SMOOTH",
"102 700 OFFCURVE",
"90 700 OFFCURVE",
"79 700 CURVE SMOOTH",
"67 700 OFFCURVE",
"56 700 OFFCURVE",
"45 699 CURVE",
"45 678 OFFCURVE",
"45 658 OFFCURVE",
"45 637 CURVE SMOOTH",
"45 541 OFFCURVE",
"43 446 OFFCURVE",
"41 351 CURVE SMOOTH",
"39 303 OFFCURVE",
"39 254 OFFCURVE",
"39 206 CURVE SMOOTH",
"39 139 OFFCURVE",
"40 72 OFFCURVE",
"43 5 CURVE",
"52 3 OFFCURVE",
"63 1 OFFCURVE",
"76 0 CURVE SMOOTH",
"89 -1 OFFCURVE",
"102 -2 OFFCURVE",
"116 -2 CURVE SMOOTH"
);
}
);
width = 459;
},
{
anchors = (
{
name = bottom;
position = "{240, -48}";
},
{
name = top;
position = "{240, 745}";
}
);
hints = (
{
horizontal = 1;
place = "{8, 712}";
type = Stem;
},
{
place = "{49, 434}";
type = Stem;
}
);
layerId = "BB6A108D-08DB-4BF5-B99B-807E42D41E71";
paths = (
{
closed = 1;
nodes = (
"152 -2 OFFCURVE",
"173 -2 OFFCURVE",
"217 10 CURVE",
"217 71 LINE",
"216 82 OFFCURVE",
"216 93 OFFCURVE",
"216 105 CURVE SMOOTH",
"216 121 OFFCURVE",
"215 129 OFFCURVE",
"215 138 CURVE SMOOTH",
"214 159 OFFCURVE",
"214 178 OFFCURVE",
"214 199 CURVE",
"245 132 LINE SMOOTH",
"257 106 OFFCURVE",
"267 85 OFFCURVE",
"279 63 CURVE SMOOTH",
"289 43 OFFCURVE",
"302 24 OFFCURVE",
"320 4 CURVE",
"333 2 LINE",
"341 2 OFFCURVE",
"351 1 OFFCURVE",
"360 1 CURVE SMOOTH",
"392 -1 OFFCURVE",
"464 1 OFFCURVE",
"492 4 CURVE",
"319 364 LINE",
"332 394 OFFCURVE",
"346 421 OFFCURVE",
"360 446 CURVE SMOOTH",
"376 474 OFFCURVE",
"394 506 OFFCURVE",
"409 529 CURVE",
"423 556 OFFCURVE",
"433 573 OFFCURVE",
"455 614 CURVE SMOOTH",
"472 647 OFFCURVE",
"483 675 OFFCURVE",
"490 702 CURVE",
"475 706 OFFCURVE",
"448 708 OFFCURVE",
"422 708 CURVE SMOOTH",
"391 708 LINE SMOOTH",
"366 708 OFFCURVE",
"344 707 OFFCURVE",
"323 709 CURVE",
"307 686 OFFCURVE",
"294 666 OFFCURVE",
"283 645 CURVE SMOOTH",
"272 625 OFFCURVE",
"259 601 OFFCURVE",
"251 585 CURVE SMOOTH",
"240 565 OFFCURVE",
"226 542 OFFCURVE",
"218 527 CURVE SMOOTH",
"210 512 LINE",
"208 582 LINE",
"208 618 LINE SMOOTH",
"208 649 OFFCURVE",
"208 678 OFFCURVE",
"207 707 CURVE",
"182 706 OFFCURVE",
"154 708 OFFCURVE",
"124 709 CURVE SMOOTH",
"113 710 OFFCURVE",
"100 710 OFFCURVE",
"89 710 CURVE SMOOTH",
"71 710 OFFCURVE",
"52 710 OFFCURVE",
"37 706 CURVE",
"37 642 LINE SMOOTH",
"37 546 OFFCURVE",
"35 451 OFFCURVE",
"33 356 CURVE SMOOTH",
"31 308 OFFCURVE",
"31 259 OFFCURVE",
"31 211 CURVE SMOOTH",
"31 136 OFFCURVE",
"30 61 OFFCURVE",
"33 0 CURVE",
"64 3 OFFCURVE",
"57 2 OFFCURVE",
"85 0 CURVE SMOOTH",
"98 -1 OFFCURVE",
"111 -2 OFFCURVE",
"126 -2 CURVE SMOOTH"
);
}
);
width = 479;
},
{
anchors = (
{
name = bottom;
position = "{230, 0}";
},
{
name = top;
position = "{230, 751}";
}
);
layerId = "B033F76F-1B86-4758-A592-6C7B1BE8F750";
paths = (
{
closed = 1;
nodes = (
"114 0 OFFCURVE",
"131 1 OFFCURVE",
"144 5 CURVE",
"144 42 OFFCURVE",
"140 124 OFFCURVE",
"140 188 CURVE SMOOTH",
"140 198 OFFCURVE",
"140 209 OFFCURVE",
"140 218 CURVE",
"142 248 OFFCURVE",
"142 273 OFFCURVE",
"142 292 CURVE",
"193 227 OFFCURVE",
"225 150 OFFCURVE",
"363 2 CURVE",
"380 2 OFFCURVE",
"399 1 OFFCURVE",
"418 1 CURVE SMOOTH",
"433 1 OFFCURVE",
"448 2 OFFCURVE",
"463 4 CURVE",
"379 122 OFFCURVE",
"296 242 OFFCURVE",
"212 360 CURVE",
"323 494 OFFCURVE",
"373 558 OFFCURVE",
"462 693 CURVE",
"450 694 OFFCURVE",
"438 695 OFFCURVE",
"425 695 CURVE SMOOTH",
"404 695 OFFCURVE",
"382 694 OFFCURVE",
"362 695 CURVE",
"322 641 OFFCURVE",
"292 595 OFFCURVE",
"232 527 CURVE",
"139 429 LINE",
"138 476 OFFCURVE",
"138 515 OFFCURVE",
"138 550 CURVE SMOOTH",
"138 605 OFFCURVE",
"138 650 OFFCURVE",
"137 697 CURVE",
"107 697 OFFCURVE",
"75 699 OFFCURVE",
"45 699 CURVE",
"46 532 OFFCURVE",
"39 366 OFFCURVE",
"39 201 CURVE SMOOTH",
"39 136 OFFCURVE",
"40 70 OFFCURVE",
"43 5 CURVE",
"57 2 OFFCURVE",
"77 0 OFFCURVE",
"97 0 CURVE SMOOTH"
);
}
);
width = 459;
},
{
anchors = (
{
name = bottom;
position = "{230, -33}";
},
{
name = top;
position = "{230, 747}";
}
);
hints = (
{
horizontal = 1;
place = "{2, 697}";
type = Stem;
},
{
place = "{96, 108.11}";
type = Stem;
}
);
layerId = "DF1E66B1-3A9E-4773-904B-B575E660C115";
paths = (
{
closed = 1;
nodes = (
"99 19 OFFCURVE",
"98 58 OFFCURVE",
"96 107 CURVE SMOOTH",
"95 129 OFFCURVE",
"95 150 OFFCURVE",
"95 169 CURVE SMOOTH",
"95 193 OFFCURVE",
"95 216 OFFCURVE",
"97 236 CURVE SMOOTH",
"99 273 OFFCURVE",
"99 302 OFFCURVE",
"98 322 CURVE",
"124 299 OFFCURVE",
"155 269 OFFCURVE",
"190 230 CURVE SMOOTH",
"225 191 OFFCURVE",
"290 107 OFFCURVE",
"403 2 CURVE",
"463 4 LINE",
"133 362 LINE",
"204 427 OFFCURVE",
"248 469 OFFCURVE",
"266 489 CURVE SMOOTH",
"284 509 OFFCURVE",
"312 538 OFFCURVE",
"351 576 CURVE SMOOTH",
"389 613 OFFCURVE",
"414 639 OFFCURVE",
"462 692 CURVE",
"398 692 LINE",
"381 671 OFFCURVE",
"361 649 OFFCURVE",
"338 627 CURVE SMOOTH",
"315 605 OFFCURVE",
"283 574 OFFCURVE",
"242 535 CURVE SMOOTH",
"200 496 OFFCURVE",
"166 463 OFFCURVE",
"139 438 CURVE",
"98 401 LINE",
"97 454 OFFCURVE",
"97 499 OFFCURVE",
"97 536 CURVE SMOOTH",
"97 551 OFFCURVE",
"97 565 OFFCURVE",
"97 577 CURVE SMOOTH",
"98 619 OFFCURVE",
"96 653 OFFCURVE",
"96 697 CURVE",
"45 699 LINE",
"45 678 OFFCURVE",
"45 658 OFFCURVE",
"45 637 CURVE SMOOTH",
"45 541 OFFCURVE",
"43 446 OFFCURVE",
"41 351 CURVE SMOOTH",
"39 303 OFFCURVE",
"39 254 OFFCURVE",
"39 205 CURVE SMOOTH",
"39 138 OFFCURVE",
"40 70 OFFCURVE",
"43 3 CURVE",
"99 0 LINE"
);
}
);
width = 459;
}
);
leftKerningGroup = KO_E;
note = K;
rightKerningGroup = KO_K;
unicode = 004B;
userData = {
KernOnName = K;
};
},
{
color = 5;
glyphname = L;
lastChange = "2022-10-20 18:02:40 +0000";
layers = (
{
anchors = (
{
name = bottom;
position = "{231, -42}";
},
{
name = center;
position = "{231, 361}";
},
{
name = top;
position = "{115, 742}";
},
{
name = topright;
position = "{250, 966}";
}
);
hints = (
{
horizontal = 1;
place = "{103.56, 26.44}";
type = Stem;
},
{
place = "{36, 423}";
type = Stem;
}
);
layerId = "9B0E9E80-6738-4704-8EC6-A4FB4E6479F4";
paths = (
{
closed = 1;
nodes = (
"278 -3 OFFCURVE",
"316 -3 OFFCURVE",
"344 -2 CURVE SMOOTH",
"371 -1 OFFCURVE",
"391 -1 OFFCURVE",
"403 0 CURVE SMOOTH",
"414 1 OFFCURVE",
"424 1 OFFCURVE",
"431 0 CURVE",
"438 0 OFFCURVE",
"444 0 OFFCURVE",
"448 1 CURVE",
"452 1 OFFCURVE",
"455 4 OFFCURVE",
"457 10 CURVE",
"458 15 OFFCURVE",
"459 24 OFFCURVE",
"459 37 CURVE SMOOTH",
"459 49 OFFCURVE",
"458 67 OFFCURVE",
"457 91 CURVE",
"456 96 OFFCURVE",
"456 103 OFFCURVE",
"457 110 CURVE",
"458 130 LINE",
"459 137 OFFCURVE",
"459 145 OFFCURVE",
"459 152 CURVE",
"454 151 OFFCURVE",
"444 151 OFFCURVE",
"431 152 CURVE",
"417 152 OFFCURVE",
"401 152 OFFCURVE",
"384 153 CURVE SMOOTH",
"366 154 OFFCURVE",
"347 155 OFFCURVE",
"328 156 CURVE SMOOTH",
"308 157 OFFCURVE",
"289 157 OFFCURVE",
"272 158 CURVE SMOOTH",
"255 159 OFFCURVE",
"240 159 OFFCURVE",
"227 160 CURVE",
"214 160 OFFCURVE",
"205 160 OFFCURVE",
"200 158 CURVE",
"200 159 LINE SMOOTH",
"200 202 OFFCURVE",
"201 246 OFFCURVE",
"201 292 CURVE SMOOTH",
"200 337 OFFCURVE",
"200 383 OFFCURVE",
"199 429 CURVE SMOOTH",
"198 475 OFFCURVE",
"198 521 OFFCURVE",
"198 567 CURVE SMOOTH",
"198 580 OFFCURVE",
"198 593 OFFCURVE",
"198 606 CURVE SMOOTH",
"198 638 OFFCURVE",
"198 670 OFFCURVE",
"199 700 CURVE",
"190 704 OFFCURVE",
"177 707 OFFCURVE",
"162 709 CURVE SMOOTH",
"147 711 OFFCURVE",
"131 712 OFFCURVE",
"115 712 CURVE SMOOTH",
"99 712 OFFCURVE",
"84 711 OFFCURVE",
"70 710 CURVE",
"56 708 OFFCURVE",
"46 706 OFFCURVE",
"39 703 CURVE",
"40 656 OFFCURVE",
"40 614 OFFCURVE",
"41 576 CURVE SMOOTH",
"42 537 OFFCURVE",
"42 501 OFFCURVE",
"43 467 CURVE SMOOTH",
"44 433 OFFCURVE",
"44 400 OFFCURVE",
"44 367 CURVE SMOOTH",
"44 334 OFFCURVE",
"44 301 OFFCURVE",
"44 266 CURVE SMOOTH",
"43 231 OFFCURVE",
"42 193 OFFCURVE",
"41 153 CURVE SMOOTH",
"40 112 OFFCURVE",
"38 61 OFFCURVE",
"36 17 CURVE",
"36 -1 LINE",
"117 -2 OFFCURVE",
"181 -3 OFFCURVE",
"230 -3 CURVE SMOOTH"
);
}
);
width = 461;
},
{
anchors = (
{
name = bottom;
position = "{241, -43}";
},
{
name = center;
position = "{241, 361}";
},
{
name = top;
position = "{118, 743}";
},
{
name = topright;
position = "{268, 962}";
}
);
hints = (
{
horizontal = 1;
place = "{114, 36}";
type = Stem;
},
{
place = "{46, 433}";
type = Stem;
}
);
layerId = "BB6A108D-08DB-4BF5-B99B-807E42D41E71";
paths = (
{
closed = 1;
nodes = (
"288 -3 OFFCURVE",
"339 -3 OFFCURVE",
"355 -2 CURVE SMOOTH",
"403 1 OFFCURVE",
"437 0 OFFCURVE",
"484 0 CURVE",
"486 24 OFFCURVE",
"487 35 OFFCURVE",
"487 42 CURVE SMOOTH",
"487 51 OFFCURVE",
"486 63 OFFCURVE",
"486 78 CURVE SMOOTH",
"485 84 OFFCURVE",
"484 108 OFFCURVE",
"485 115 CURVE",
"486 135 LINE SMOOTH",
"486 141 OFFCURVE",
"487 151 OFFCURVE",
"487 162 CURVE",
"477 162 OFFCURVE",
"460 162 OFFCURVE",
"442 162 CURVE SMOOTH",
"428 162 OFFCURVE",
"412 162 OFFCURVE",
"395 163 CURVE SMOOTH",
"339 166 LINE SMOOTH",
"330 166 OFFCURVE",
"319 167 OFFCURVE",
"310 167 CURVE SMOOTH",
"300 167 OFFCURVE",
"267 170 OFFCURVE",
"238 170 CURVE SMOOTH",
"228 170 LINE",
"229 211 OFFCURVE",
"229 253 OFFCURVE",
"229 297 CURVE SMOOTH",
"228 319 OFFCURVE",
"228 343 OFFCURVE",
"228 366 CURVE SMOOTH",
"228 388 OFFCURVE",
"227 411 OFFCURVE",
"227 434 CURVE SMOOTH",
"226 480 OFFCURVE",
"226 526 OFFCURVE",
"226 572 CURVE SMOOTH",
"226 611 LINE SMOOTH",
"226 643 OFFCURVE",
"226 675 OFFCURVE",
"227 705 CURVE",
"216 710 LINE SMOOTH",
"210 713 OFFCURVE",
"192 717 OFFCURVE",
"174 719 CURVE SMOOTH",
"161 721 OFFCURVE",
"143 722 OFFCURVE",
"125 722 CURVE SMOOTH",
"111 722 OFFCURVE",
"97 721 OFFCURVE",
"77 720 CURVE",
"59 717 OFFCURVE",
"46 714 OFFCURVE",
"42 713 CURVE",
"31 708 LINE",
"31 686 OFFCURVE",
"32 665 OFFCURVE",
"32 644 CURVE SMOOTH",
"32 622 OFFCURVE",
"32 601 OFFCURVE",
"33 581 CURVE SMOOTH",
"33 562 OFFCURVE",
"34 544 OFFCURVE",
"34 526 CURVE SMOOTH",
"34 508 OFFCURVE",
"34 490 OFFCURVE",
"35 472 CURVE SMOOTH",
"36 438 OFFCURVE",
"36 405 OFFCURVE",
"36 372 CURVE SMOOTH",
"36 339 OFFCURVE",
"37 305 OFFCURVE",
"36 271 CURVE SMOOTH",
"33 158 LINE SMOOTH",
"32 117 OFFCURVE",
"28 66 OFFCURVE",
"28 22 CURVE SMOOTH",
"28 -1 LINE",
"51 -1 OFFCURVE",
"75 -1 OFFCURVE",
"96 -2 CURVE SMOOTH",
"153 -2 OFFCURVE",
"201 -3 OFFCURVE",
"240 -3 CURVE SMOOTH"
);
}
);
width = 481;
},
{
anchors = (
{
name = bottom;
position = "{231, -36}";
},
{
name = center;
position = "{231, 361}";
},
{
name = top;
position = "{94, 740}";
},
{
name = topright;
position = "{201, 968}";
}
);
layerId = "B033F76F-1B86-4758-A592-6C7B1BE8F750";
paths = (
{
closed = 1;
nodes = (
"383 -3 OFFCURVE",
"411 0 OFFCURVE",
"431 0 CURVE SMOOTH",
"447 0 OFFCURVE",
"450 3 OFFCURVE",
"452 12 CURVE SMOOTH",
"454 19 OFFCURVE",
"455 30 OFFCURVE",
"455 46 CURVE",
"454 64 OFFCURVE",
"457 83 OFFCURVE",
"457 97 CURVE",
"453 96 OFFCURVE",
"447 96 OFFCURVE",
"439 96 CURVE SMOOTH",
"395 96 OFFCURVE",
"299 104 OFFCURVE",
"245 104 CURVE SMOOTH",
"213 104 OFFCURVE",
"150 102 OFFCURVE",
"147 102 CURVE",
"148 136 OFFCURVE",
"149 167 OFFCURVE",
"149 195 CURVE SMOOTH",
"149 232 OFFCURVE",
"149 263 OFFCURVE",
"149 289 CURVE SMOOTH",
"149 352 OFFCURVE",
"148 416 OFFCURVE",
"147 480 CURVE SMOOTH",
"147 517 OFFCURVE",
"146 554 OFFCURVE",
"146 591 CURVE SMOOTH",
"146 627 OFFCURVE",
"147 663 OFFCURVE",
"148 698 CURVE",
"131 705 OFFCURVE",
"105 708 OFFCURVE",
"82 708 CURVE SMOOTH",
"64 708 OFFCURVE",
"47 706 OFFCURVE",
"39 703 CURVE",
"41 558 OFFCURVE",
"43 460 OFFCURVE",
"44 358 CURVE SMOOTH",
"44 307 OFFCURVE",
"43 255 OFFCURVE",
"42 195 CURVE SMOOTH",
"41 143 OFFCURVE",
"39 85 OFFCURVE",
"36 17 CURVE",
"36 -1 LINE",
"131 -2 OFFCURVE",
"201 -3 OFFCURVE",
"255 -3 CURVE SMOOTH"
);
}
);
width = 461;
},
{
anchors = (
{
name = bottom;
position = "{231, -36}";
},
{
name = center;
position = "{231, 361}";
},
{
name = top;
position = "{65, 739}";
},
{
name = topright;
position = "{164, 958}";
}
);
hints = (
{
horizontal = 1;
place = "{-3, 708.5}";
type = Stem;
},
{
place = "{36, 420}";
type = Stem;
}
);
layerId = "DF1E66B1-3A9E-4773-904B-B575E660C115";
paths = (
{
closed = 1;
nodes = (
"278 -3 OFFCURVE",
"316 -3 OFFCURVE",
"344 -2 CURVE SMOOTH",
"371 -1 OFFCURVE",
"391 0 OFFCURVE",
"403 0 CURVE SMOOTH",
"412 0 OFFCURVE",
"420 -1 OFFCURVE",
"429 -1 CURVE SMOOTH",
"437 -1 OFFCURVE",
"445 0 OFFCURVE",
"454 1 CURVE",
"456 43 LINE",
"451 42 OFFCURVE",
"441 42 OFFCURVE",
"428 43 CURVE",
"414 43 OFFCURVE",
"398 43 OFFCURVE",
"381 44 CURVE SMOOTH",
"363 45 OFFCURVE",
"344 46 OFFCURVE",
"325 47 CURVE SMOOTH",
"305 48 OFFCURVE",
"286 48 OFFCURVE",
"269 49 CURVE SMOOTH",
"261 50 OFFCURVE",
"248 50 OFFCURVE",
"232 50 CURVE SMOOTH",
"216 50 OFFCURVE",
"197 50 OFFCURVE",
"173 49 CURVE SMOOTH",
"126 48 OFFCURVE",
"100 47 OFFCURVE",
"95 46 CURVE SMOOTH",
"95 161 OFFCURVE",
"99 242 OFFCURVE",
"99 288 CURVE SMOOTH",
"98 333 OFFCURVE",
"98 379 OFFCURVE",
"97 425 CURVE SMOOTH",
"96 471 OFFCURVE",
"96 517 OFFCURVE",
"96 563 CURVE SMOOTH",
"96 576 OFFCURVE",
"96 589 OFFCURVE",
"96 602 CURVE SMOOTH",
"96 634 OFFCURVE",
"96 666 OFFCURVE",
"97 696 CURVE",
"88 700 OFFCURVE",
"77 703 OFFCURVE",
"66 705 CURVE",
"62 705 OFFCURVE",
"58 706 OFFCURVE",
"55 706 CURVE SMOOTH",
"49 706 OFFCURVE",
"43 705 OFFCURVE",
"39 703 CURVE",
"40 656 OFFCURVE",
"40 614 OFFCURVE",
"41 576 CURVE SMOOTH",
"42 537 OFFCURVE",
"42 501 OFFCURVE",
"43 467 CURVE SMOOTH",
"44 433 OFFCURVE",
"44 400 OFFCURVE",
"44 367 CURVE SMOOTH",
"44 334 OFFCURVE",
"44 301 OFFCURVE",
"44 266 CURVE SMOOTH",
"43 231 OFFCURVE",
"42 193 OFFCURVE",
"41 153 CURVE SMOOTH",
"40 112 OFFCURVE",
"38 61 OFFCURVE",
"36 17 CURVE",
"36 -1 LINE",
"117 -2 OFFCURVE",
"181 -3 OFFCURVE",
"230 -3 CURVE SMOOTH"
);
}
);
width = 461;
}
);
leftKerningGroup = KO_H;
note = L;
rightKerningGroup = KO_L;
unicode = 004C;
},
{
color = 5;
glyphname = M;
lastChange = "2022-10-20 21:39:25 +0000";
layers = (
{
anchors = (
{
name = bottom;
position = "{251, 0}";
},
{
name = top;
position = "{251, 722}";
}
);
hints = (
{
horizontal = 1;
place = "{-1, 698}";
type = Stem;
},
{
place = "{180, 141}";
type = Stem;
}
);
layerId = "9B0E9E80-6738-4704-8EC6-A4FB4E6479F4";
paths = (
{
closed = 1;
nodes = (
"151 -1 OFFCURVE",
"171 1 OFFCURVE",
"188 3 CURVE",
"184 65 OFFCURVE",
"181 128 OFFCURVE",
"180 192 CURVE SMOOTH",
"179 209 OFFCURVE",
"179 225 OFFCURVE",
"179 241 CURVE SMOOTH",
"179 289 OFFCURVE",
"181 335 OFFCURVE",
"185 382 CURVE",
"189 372 LINE",
"191 365 OFFCURVE",
"194 357 OFFCURVE",
"197 347 CURVE SMOOTH",
"200 337 OFFCURVE",
"204 326 OFFCURVE",
"209 314 CURVE SMOOTH",
"214 302 OFFCURVE",
"218 291 OFFCURVE",
"223 280 CURVE",
"227 269 OFFCURVE",
"231 261 OFFCURVE",
"236 254 CURVE",
"240 247 OFFCURVE",
"244 243 OFFCURVE",
"247 243 CURVE SMOOTH",
"250 243 OFFCURVE",
"254 249 OFFCURVE",
"259 262 CURVE SMOOTH",
"264 275 OFFCURVE",
"270 289 OFFCURVE",
"276 306 CURVE SMOOTH",
"282 323 OFFCURVE",
"288 339 OFFCURVE",
"294 355 CURVE SMOOTH",
"300 370 OFFCURVE",
"305 382 OFFCURVE",
"310 389 CURVE",
"313 361 OFFCURVE",
"316 330 OFFCURVE",
"318 297 CURVE SMOOTH",
"319 264 OFFCURVE",
"320 230 OFFCURVE",
"321 195 CURVE",
"321 160 OFFCURVE",
"321 126 OFFCURVE",
"322 93 CURVE",
"322 60 OFFCURVE",
"323 29 OFFCURVE",
"324 0 CURVE",
"332 0 OFFCURVE",
"342 0 OFFCURVE",
"353 1 CURVE",
"364 1 OFFCURVE",
"375 1 OFFCURVE",
"387 1 CURVE SMOOTH",
"399 1 OFFCURVE",
"411 1 OFFCURVE",
"423 1 CURVE",
"456 -1 LINE",
"459 318 LINE",
"461 355 OFFCURVE",
"462 392 OFFCURVE",
"462 429 CURVE SMOOTH",
"462 455 OFFCURVE",
"461 482 OFFCURVE",
"460 508 CURVE SMOOTH",
"459 539 OFFCURVE",
"458 570 OFFCURVE",
"458 602 CURVE SMOOTH",
"458 633 OFFCURVE",
"459 665 OFFCURVE",
"460 697 CURVE",
"449 697 OFFCURVE",
"437 697 OFFCURVE",
"422 697 CURVE",
"407 696 OFFCURVE",
"392 696 OFFCURVE",
"378 695 CURVE SMOOTH",
"363 694 OFFCURVE",
"350 694 OFFCURVE",
"338 693 CURVE SMOOTH",
"325 692 OFFCURVE",
"317 692 OFFCURVE",
"312 693 CURVE",
"306 685 OFFCURVE",
"300 672 OFFCURVE",
"294 655 CURVE",
"287 638 OFFCURVE",
"282 620 OFFCURVE",
"277 603 CURVE SMOOTH",
"272 585 OFFCURVE",
"267 569 OFFCURVE",
"263 556 CURVE",
"258 543 OFFCURVE",
"255 536 OFFCURVE",
"253 537 CURVE",
"251 537 OFFCURVE",
"249 538 OFFCURVE",
"247 540 CURVE",
"242 548 OFFCURVE",
"237 559 OFFCURVE",
"232 573 CURVE SMOOTH",
"227 587 OFFCURVE",
"221 602 OFFCURVE",
"216 617 CURVE SMOOTH",
"211 632 OFFCURVE",
"205 647 OFFCURVE",
"199 661 CURVE SMOOTH",
"193 674 OFFCURVE",
"187 684 OFFCURVE",
"180 691 CURVE",
"169 690 OFFCURVE",
"157 690 OFFCURVE",
"145 691 CURVE",
"133 691 OFFCURVE",
"121 691 OFFCURVE",
"109 692 CURVE",
"97 692 OFFCURVE",
"85 692 OFFCURVE",
"74 691 CURVE SMOOTH",
"63 690 OFFCURVE",
"53 689 OFFCURVE",
"44 686 CURVE",
"43 595 OFFCURVE",
"43 516 OFFCURVE",
"43 448 CURVE SMOOTH",
"42 380 OFFCURVE",
"42 321 OFFCURVE",
"42 272 CURVE SMOOTH",
"41 223 OFFCURVE",
"41 181 OFFCURVE",
"41 148 CURVE SMOOTH",
"41 115 OFFCURVE",
"41 88 OFFCURVE",
"42 68 CURVE",
"42 47 OFFCURVE",
"42 32 OFFCURVE",
"43 22 CURVE SMOOTH",
"44 12 OFFCURVE",
"44 6 OFFCURVE",
"45 3 CURVE",
"48 0 LINE",
"70 0 OFFCURVE",
"102 -1 OFFCURVE",
"131 -1 CURVE SMOOTH"
);
}
);
width = 501;
},
{
anchors = (
{
name = bottom;
position = "{261, 0}";
},
{
name = top;
position = "{261, 722}";
}
);
hints = (
{
horizontal = 1;
place = "{9, 708}";
type = Stem;
},
{
place = "{190, 151}";
type = Stem;
}
);
layerId = "BB6A108D-08DB-4BF5-B99B-807E42D41E71";
paths = (
{
closed = 1;
nodes = (
"487 321 LINE SMOOTH",
"487 358 OFFCURVE",
"490 394 OFFCURVE",
"490 432 CURVE SMOOTH",
"490 458 OFFCURVE",
"489 485 OFFCURVE",
"488 511 CURVE SMOOTH",
"487 541 OFFCURVE",
"486 572 OFFCURVE",
"486 604 CURVE SMOOTH",
"486 637 OFFCURVE",
"487 670 OFFCURVE",
"488 704 CURVE",
"431 704 LINE SMOOTH",
"424 704 OFFCURVE",
"420 703 OFFCURVE",
"409 703 CURVE SMOOTH",
"389 703 OFFCURVE",
"377 701 OFFCURVE",
"347 700 CURVE SMOOTH",
"331 699 OFFCURVE",
"322 699 OFFCURVE",
"308 698 CURVE",
"298 686 OFFCURVE",
"293 675 OFFCURVE",
"287 659 CURVE SMOOTH",
"279 638 OFFCURVE",
"273 620 OFFCURVE",
"270 606 CURVE SMOOTH",
"266 587 OFFCURVE",
"265 578 OFFCURVE",
"262 551 CURVE",
"257 567 OFFCURVE",
"256 582 OFFCURVE",
"253 593 CURVE SMOOTH",
"249 606 OFFCURVE",
"247 609 OFFCURVE",
"243 621 CURVE SMOOTH",
"239 632 OFFCURVE",
"234 646 OFFCURVE",
"225 665 CURVE SMOOTH",
"219 679 OFFCURVE",
"213 686 OFFCURVE",
"200 699 CURVE",
"184 697 OFFCURVE",
"172 697 OFFCURVE",
"156 698 CURVE SMOOTH",
"137 698 OFFCURVE",
"130 698 OFFCURVE",
"120 699 CURVE SMOOTH",
"108 699 OFFCURVE",
"94 699 OFFCURVE",
"82 698 CURVE SMOOTH",
"66 696 OFFCURVE",
"54 695 OFFCURVE",
"48 693 CURVE SMOOTH",
"36 688 LINE",
"35 597 OFFCURVE",
"35 519 OFFCURVE",
"35 451 CURVE SMOOTH",
"34 383 OFFCURVE",
"34 324 OFFCURVE",
"34 275 CURVE SMOOTH",
"33 226 OFFCURVE",
"33 184 OFFCURVE",
"33 152 CURVE SMOOTH",
"33 119 OFFCURVE",
"33 92 OFFCURVE",
"34 72 CURVE SMOOTH",
"34 43 OFFCURVE",
"34 35 OFFCURVE",
"35 26 CURVE SMOOTH",
"36 16 LINE",
"36 0 LINE",
"94 -1 LINE SMOOTH",
"109 -1 OFFCURVE",
"125 -2 OFFCURVE",
"141 -2 CURVE SMOOTH",
"171 -2 OFFCURVE",
"202 2 OFFCURVE",
"216 4 CURVE",
"212 74 OFFCURVE",
"209 137 OFFCURVE",
"208 195 CURVE SMOOTH",
"207 212 OFFCURVE",
"207 228 OFFCURVE",
"207 244 CURVE SMOOTH",
"207 264 OFFCURVE",
"201 361 OFFCURVE",
"202 380 CURVE",
"208 353 OFFCURVE",
"221 294 OFFCURVE",
"224 286 CURVE SMOOTH",
"228 276 OFFCURVE",
"231 265 OFFCURVE",
"236 247 CURVE",
"247 213 OFFCURVE",
"249 204 OFFCURVE",
"257 204 CURVE SMOOTH",
"263 204 OFFCURVE",
"269 227 OFFCURVE",
"276 244 CURVE SMOOTH",
"282 258 OFFCURVE",
"292 294 OFFCURVE",
"298 316 CURVE SMOOTH",
"316 380 LINE",
"315 362 OFFCURVE",
"315 324 OFFCURVE",
"313 300 CURVE",
"313 198 LINE SMOOTH",
"313 164 OFFCURVE",
"313 130 OFFCURVE",
"314 97 CURVE SMOOTH",
"314 64 OFFCURVE",
"315 28 OFFCURVE",
"316 -1 CURVE",
"334 -1 LINE",
"342 -1 OFFCURVE",
"353 0 OFFCURVE",
"364 0 CURVE SMOOTH",
"397 0 LINE",
"432 0 LINE",
"484 -3 LINE"
);
}
);
width = 521;
},
{
anchors = (
{
name = bottom;
position = "{251, 0}";
},
{
name = top;
position = "{251, 722}";
}
);
layerId = "B033F76F-1B86-4758-A592-6C7B1BE8F750";
paths = (
{
closed = 1;
nodes = (
"459 318 LINE",
"461 351 OFFCURVE",
"461 383 OFFCURVE",
"461 416 CURVE SMOOTH",
"461 482 OFFCURVE",
"458 549 OFFCURVE",
"458 616 CURVE SMOOTH",
"458 643 OFFCURVE",
"459 670 OFFCURVE",
"460 697 CURVE",
"428 697 OFFCURVE",
"368 692 OFFCURVE",
"354 694 CURVE",
"319 648 OFFCURVE",
"255 466 OFFCURVE",
"248 464 CURVE",
"186 578 OFFCURVE",
"148 680 OFFCURVE",
"138 691 CURVE",
"137 691 LINE",
"128 690 OFFCURVE",
"119 690 OFFCURVE",
"109 690 CURVE SMOOTH",
"85 690 OFFCURVE",
"61 691 OFFCURVE",
"44 686 CURVE",
"42 425 OFFCURVE",
"41 262 OFFCURVE",
"41 161 CURVE SMOOTH",
"41 25 OFFCURVE",
"43 0 OFFCURVE",
"48 0 CURVE SMOOTH",
"58 0 OFFCURVE",
"69 0 OFFCURVE",
"80 0 CURVE SMOOTH",
"102 0 OFFCURVE",
"125 0 OFFCURVE",
"145 3 CURVE",
"141 65 OFFCURVE",
"138 128 OFFCURVE",
"137 192 CURVE SMOOTH",
"136 229 OFFCURVE",
"136 278 OFFCURVE",
"136 340 CURVE SMOOTH",
"136 386 OFFCURVE",
"136 438 OFFCURVE",
"137 497 CURVE",
"176 416 OFFCURVE",
"210 318 OFFCURVE",
"247 273 CURVE",
"255 273 OFFCURVE",
"257 293 OFFCURVE",
"307 399 CURVE SMOOTH",
"353 496 OFFCURVE",
"346 489 OFFCURVE",
"358 506 CURVE",
"363 206 OFFCURVE",
"357 162 OFFCURVE",
"366 1 CURVE",
"378 1 OFFCURVE",
"393 2 OFFCURVE",
"409 2 CURVE SMOOTH",
"425 2 OFFCURVE",
"441 1 OFFCURVE",
"456 -1 CURVE"
);
}
);
width = 501;
},
{
anchors = (
{
name = bottom;
position = "{251, 0}";
},
{
name = top;
position = "{251, 722}";
}
);
hints = (
{
horizontal = 1;
place = "{0, 21}";
target = up;
type = BottomGhost;
},
{
place = "{89, 318}";
type = Stem;
}
);
layerId = "DF1E66B1-3A9E-4773-904B-B575E660C115";
paths = (
{
closed = 1;
nodes = (
"459 318 LINE",
"461 355 OFFCURVE",
"462 392 OFFCURVE",
"462 429 CURVE SMOOTH",
"462 455 OFFCURVE",
"461 482 OFFCURVE",
"460 508 CURVE SMOOTH",
"459 539 OFFCURVE",
"458 570 OFFCURVE",
"458 602 CURVE SMOOTH",
"458 633 OFFCURVE",
"459 665 OFFCURVE",
"460 697 CURVE",
"449 697 OFFCURVE",
"437 697 OFFCURVE",
"424 696 CURVE SMOOTH",
"411 695 OFFCURVE",
"402 694 OFFCURVE",
"397 695 CURVE",
"391 687 OFFCURVE",
"371 649 OFFCURVE",
"336 582 CURVE SMOOTH",
"301 514 OFFCURVE",
"280 471 OFFCURVE",
"274 454 CURVE SMOOTH",
"267 436 OFFCURVE",
"257 415 OFFCURVE",
"244 391 CURVE",
"227 427 OFFCURVE",
"203 478 OFFCURVE",
"171 543 CURVE SMOOTH",
"139 608 OFFCURVE",
"120 647 OFFCURVE",
"114 661 CURVE SMOOTH",
"108 674 OFFCURVE",
"102 684 OFFCURVE",
"96 691 CURVE",
"70 690 OFFCURVE",
"53 689 OFFCURVE",
"44 686 CURVE",
"43 595 OFFCURVE",
"43 516 OFFCURVE",
"43 448 CURVE SMOOTH",
"42 380 OFFCURVE",
"42 321 OFFCURVE",
"42 272 CURVE SMOOTH",
"41 223 OFFCURVE",
"41 181 OFFCURVE",
"41 148 CURVE SMOOTH",
"41 115 OFFCURVE",
"41 88 OFFCURVE",
"42 68 CURVE",
"42 47 OFFCURVE",
"42 32 OFFCURVE",
"43 22 CURVE SMOOTH",
"44 12 OFFCURVE",
"44 3 OFFCURVE",
"45 0 CURVE",
"103 3 LINE",
"99 65 OFFCURVE",
"97 128 OFFCURVE",
"96 192 CURVE SMOOTH",
"95 256 OFFCURVE",
"92 416 OFFCURVE",
"88 617 CURVE",
"92 599 OFFCURVE",
"101 589 OFFCURVE",
"139 514 CURVE SMOOTH",
"172 450 OFFCURVE",
"195 401 OFFCURVE",
"208 372 CURVE SMOOTH",
"221 343 OFFCURVE",
"234 320 OFFCURVE",
"248 304 CURVE",
"251 304 OFFCURVE",
"255 310 OFFCURVE",
"260 323 CURVE SMOOTH",
"265 336 OFFCURVE",
"288 381 OFFCURVE",
"327 460 CURVE SMOOTH",
"366 539 OFFCURVE",
"388 584 OFFCURVE",
"393 596 CURVE SMOOTH",
"398 607 OFFCURVE",
"402 617 OFFCURVE",
"407 624 CURVE",
"407 548 OFFCURVE",
"406 485 OFFCURVE",
"406 435 CURVE SMOOTH",
"406 364 OFFCURVE",
"407 318 OFFCURVE",
"408 299 CURVE SMOOTH",
"409 283 OFFCURVE",
"409 266 OFFCURVE",
"409 249 CURVE SMOOTH",
"409 232 OFFCURVE",
"409 215 OFFCURVE",
"408 197 CURVE SMOOTH",
"407 162 OFFCURVE",
"406 128 OFFCURVE",
"407 95 CURVE",
"407 62 OFFCURVE",
"408 31 OFFCURVE",
"409 2 CURVE",
"417 2 OFFCURVE",
"428 0 OFFCURVE",
"435 0 CURVE",
"456 -1 LINE"
);
}
);
width = 501;
}
);
leftKerningGroup = KO_E;
note = M;
rightKerningGroup = KO_M;
unicode = 004D;
},
{
color = 5;
glyphname = N;
lastChange = "2022-10-20 18:49:36 +0000";
layers = (
{
anchors = (
{
name = bottom;
position = "{249, -47}";
},
{
name = top;
position = "{259, 722}";
}
);
hints = (
{
horizontal = 1;
place = "{0, 21}";
target = up;
type = BottomGhost;
},
{
place = "{183, 18}";
type = Stem;
}
);
layerId = "9B0E9E80-6738-4704-8EC6-A4FB4E6479F4";
paths = (
{
closed = 1;
nodes = (
"154 -5 OFFCURVE",
"175 -2 OFFCURVE",
"182 0 CURVE",
"181 11 OFFCURVE",
"181 24 OFFCURVE",
"181 39 CURVE SMOOTH",
"181 96 OFFCURVE",
"181 153 OFFCURVE",
"182 170 CURVE SMOOTH",
"182 200 OFFCURVE",
"182 227 OFFCURVE",
"183 252 CURVE SMOOTH",
"184 277 OFFCURVE",
"185 297 OFFCURVE",
"186 313 CURVE SMOOTH",
"187 329 OFFCURVE",
"187 337 OFFCURVE",
"188 337 CURVE",
"193 326 OFFCURVE",
"196 321 OFFCURVE",
"201 307 CURVE",
"211 277 LINE SMOOTH",
"225 234 OFFCURVE",
"245 190 OFFCURVE",
"267 144 CURVE SMOOTH",
"288 97 OFFCURVE",
"310 49 OFFCURVE",
"332 0 CURVE",
"345 0 OFFCURVE",
"383 -4 OFFCURVE",
"405 -3 CURVE",
"457 0 LINE",
"457 20 LINE SMOOTH",
"457 36 OFFCURVE",
"456 92 OFFCURVE",
"456 100 CURVE SMOOTH",
"456 115 OFFCURVE",
"457 192 OFFCURVE",
"457 211 CURVE SMOOTH",
"457 240 OFFCURVE",
"456 270 OFFCURVE",
"457 297 CURVE SMOOTH",
"460 347 OFFCURVE",
"461 404 OFFCURVE",
"461 458 CURVE SMOOTH",
"461 486 OFFCURVE",
"460 513 OFFCURVE",
"460 538 CURVE SMOOTH",
"459 632 OFFCURVE",
"456 706 OFFCURVE",
"456 704 CURVE",
"437 708 OFFCURVE",
"415 710 OFFCURVE",
"390 710 CURVE SMOOTH",
"365 710 OFFCURVE",
"341 708 OFFCURVE",
"318 704 CURVE",
"317 687 OFFCURVE",
"317 672 OFFCURVE",
"317 658 CURVE",
"316 643 OFFCURVE",
"316 629 OFFCURVE",
"316 615 CURVE SMOOTH",
"316 591 OFFCURVE",
"317 568 OFFCURVE",
"318 545 CURVE SMOOTH",
"319 522 OFFCURVE",
"319 497 OFFCURVE",
"319 470 CURVE SMOOTH",
"319 459 OFFCURVE",
"318 447 OFFCURVE",
"317 435 CURVE SMOOTH",
"316 423 OFFCURVE",
"314 416 OFFCURVE",
"312 415 CURVE",
"304 429 OFFCURVE",
"289 457 OFFCURVE",
"272 492 CURVE SMOOTH",
"265 505 OFFCURVE",
"259 518 OFFCURVE",
"253 531 CURVE SMOOTH",
"238 562 OFFCURVE",
"229 579 OFFCURVE",
"228 582 CURVE",
"213 617 LINE",
"212 618 OFFCURVE",
"199 645 OFFCURVE",
"189 664 CURVE SMOOTH",
"185 672 OFFCURVE",
"181 682 OFFCURVE",
"176 694 CURVE",
"166 698 LINE",
"159 699 OFFCURVE",
"150 701 OFFCURVE",
"141 702 CURVE SMOOTH",
"132 703 OFFCURVE",
"100 704 OFFCURVE",
"93 704 CURVE SMOOTH",
"79 704 OFFCURVE",
"60 702 OFFCURVE",
"48 700 CURVE",
"45 657 OFFCURVE",
"42 614 OFFCURVE",
"41 569 CURVE SMOOTH",
"40 524 OFFCURVE",
"39 478 OFFCURVE",
"39 432 CURVE SMOOTH",
"39 369 OFFCURVE",
"40 309 OFFCURVE",
"41 252 CURVE SMOOTH",
"42 195 OFFCURVE",
"42 111 OFFCURVE",
"42 71 CURVE SMOOTH",
"42 1 LINE",
"57 1 OFFCURVE",
"73 0 OFFCURVE",
"90 -2 CURVE SMOOTH",
"106 -4 OFFCURVE",
"122 -5 OFFCURVE",
"138 -5 CURVE SMOOTH"
);
}
);
width = 498;
},
{
anchors = (
{
name = bottom;
position = "{256, -41}";
},
{
name = top;
position = "{269, 740}";
}
);
hints = (
{
horizontal = 1;
place = "{10, 21}";
target = up;
type = BottomGhost;
},
{
place = "{193, 28}";
type = Stem;
}
);
layerId = "BB6A108D-08DB-4BF5-B99B-807E42D41E71";
paths = (
{
closed = 1;
nodes = (
"166 -5 OFFCURVE",
"191 -1 OFFCURVE",
"197 0 CURVE",
"210 5 LINE",
"209 13 OFFCURVE",
"209 23 OFFCURVE",
"209 44 CURVE SMOOTH",
"209 101 OFFCURVE",
"209 158 OFFCURVE",
"210 175 CURVE SMOOTH",
"210 230 OFFCURVE",
"209 251 OFFCURVE",
"206 306 CURVE",
"219 272 OFFCURVE",
"242 189 OFFCURVE",
"261 147 CURVE SMOOTH",
"326 3 LINE",
"342 0 LINE",
"346 0 OFFCURVE",
"354 -1 OFFCURVE",
"364 -1 CURVE SMOOTH",
"380 -2 OFFCURVE",
"401 -4 OFFCURVE",
"416 -3 CURVE SMOOTH",
"485 1 LINE",
"485 25 LINE SMOOTH",
"485 34 OFFCURVE",
"484 58 OFFCURVE",
"484 77 CURVE SMOOTH",
"484 105 LINE",
"485 216 LINE",
"485 245 LINE SMOOTH",
"485 265 OFFCURVE",
"484 284 OFFCURVE",
"485 302 CURVE SMOOTH",
"488 347 OFFCURVE",
"489 401 OFFCURVE",
"489 463 CURVE SMOOTH",
"489 477 OFFCURVE",
"488 492 OFFCURVE",
"488 505 CURVE SMOOTH",
"488 543 LINE SMOOTH",
"488 661 OFFCURVE",
"482 684 OFFCURVE",
"482 714 CURVE",
"464 718 OFFCURVE",
"427 720 OFFCURVE",
"400 720 CURVE SMOOTH",
"367 720 OFFCURVE",
"334 717 OFFCURVE",
"310 711 CURVE",
"309 693 OFFCURVE",
"309 677 OFFCURVE",
"309 663 CURVE SMOOTH",
"308 651 OFFCURVE",
"308 642 OFFCURVE",
"308 620 CURVE SMOOTH",
"308 596 OFFCURVE",
"307 573 OFFCURVE",
"310 550 CURVE SMOOTH",
"315 515 OFFCURVE",
"316 483 OFFCURVE",
"316 453 CURVE",
"286 521 OFFCURVE",
"284 538 OFFCURVE",
"261 574 CURVE SMOOTH",
"267 562 OFFCURVE",
"249 602 OFFCURVE",
"238 625 CURVE",
"237 628 OFFCURVE",
"233 636 OFFCURVE",
"230 641 CURVE SMOOTH",
"225 652 OFFCURVE",
"220 662 OFFCURVE",
"215 671 CURVE",
"205 695 LINE SMOOTH",
"204 697 OFFCURVE",
"203 699 OFFCURVE",
"203 701 CURVE",
"176 709 OFFCURVE",
"180 708 OFFCURVE",
"153 712 CURVE SMOOTH",
"144 713 OFFCURVE",
"110 714 OFFCURVE",
"103 714 CURVE SMOOTH",
"87 714 OFFCURVE",
"66 712 OFFCURVE",
"55 710 CURVE",
"40 705 LINE",
"37 662 OFFCURVE",
"34 619 OFFCURVE",
"33 574 CURVE SMOOTH",
"32 529 OFFCURVE",
"31 483 OFFCURVE",
"31 437 CURVE SMOOTH",
"31 374 OFFCURVE",
"32 314 OFFCURVE",
"33 257 CURVE SMOOTH",
"34 200 OFFCURVE",
"34 116 OFFCURVE",
"34 76 CURVE SMOOTH",
"34 1 LINE",
"56 2 OFFCURVE",
"75 1 OFFCURVE",
"98 -2 CURVE SMOOTH",
"113 -4 OFFCURVE",
"131 -5 OFFCURVE",
"148 -5 CURVE SMOOTH"
);
}
);
width = 518;
},
{
anchors = (
{
name = bottom;
position = "{249, -28}";
},
{
name = top;
position = "{244, 738}";
}
);
layerId = "B033F76F-1B86-4758-A592-6C7B1BE8F750";
paths = (
{
closed = 1;
nodes = (
"120 -4 OFFCURVE",
"130 -3 OFFCURVE",
"142 0 CURVE",
"141 19 OFFCURVE",
"141 43 OFFCURVE",
"141 68 CURVE SMOOTH",
"141 94 LINE SMOOTH",
"141 335 OFFCURVE",
"140 430 OFFCURVE",
"140 453 CURVE",
"143 465 OFFCURVE",
"146 451 OFFCURVE",
"160 420 CURVE SMOOTH",
"239 253 OFFCURVE",
"337 71 OFFCURVE",
"372 0 CURVE",
"457 0 LINE",
"457 20 LINE",
"456 38 OFFCURVE",
"455 55 OFFCURVE",
"455 71 CURVE SMOOTH",
"455 81 OFFCURVE",
"455 90 OFFCURVE",
"456 100 CURVE",
"456 137 OFFCURVE",
"457 172 OFFCURVE",
"457 211 CURVE SMOOTH",
"457 268 OFFCURVE",
"457 326 OFFCURVE",
"456 382 CURVE",
"456 704 LINE",
"441 707 OFFCURVE",
"426 708 OFFCURVE",
"408 709 CURVE",
"391 709 OFFCURVE",
"374 708 OFFCURVE",
"358 706 CURVE",
"358 685 OFFCURVE",
"358 672 OFFCURVE",
"358 654 CURVE SMOOTH",
"358 645 OFFCURVE",
"358 634 OFFCURVE",
"358 621 CURVE SMOOTH",
"359 573 OFFCURVE",
"362 504 OFFCURVE",
"363 408 CURVE SMOOTH",
"363 368 OFFCURVE",
"370 266 OFFCURVE",
"368 210 CURVE",
"356 244 OFFCURVE",
"272 432 OFFCURVE",
"199 565 CURVE SMOOTH",
"167 626 OFFCURVE",
"153 652 OFFCURVE",
"136 694 CURVE",
"136 697 OFFCURVE",
"100 700 OFFCURVE",
"85 701 CURVE SMOOTH",
"70 702 OFFCURVE",
"58 702 OFFCURVE",
"48 700 CURVE",
"41 615 OFFCURVE",
"39 524 OFFCURVE",
"39 432 CURVE SMOOTH",
"39 307 OFFCURVE",
"42 198 OFFCURVE",
"42 71 CURVE SMOOTH",
"42 1 LINE",
"65 1 OFFCURVE",
"87 -3 OFFCURVE",
"108 -3 CURVE"
);
}
);
width = 498;
},
{
anchors = (
{
name = bottom;
position = "{249, 0}";
},
{
name = top;
position = "{249, 735}";
}
);
hints = (
{
horizontal = 1;
place = "{-1.62, 709.62}";
type = Stem;
},
{
place = "{92, 7}";
type = Stem;
}
);
layerId = "DF1E66B1-3A9E-4773-904B-B575E660C115";
paths = (
{
closed = 1;
nodes = (
"93 -2 OFFCURVE",
"98 -1 OFFCURVE",
"102 0 CURVE",
"101 11 OFFCURVE",
"101 24 OFFCURVE",
"101 39 CURVE SMOOTH",
"101 53 OFFCURVE",
"101 68 OFFCURVE",
"101 83 CURVE SMOOTH",
"101 111 OFFCURVE",
"100 181 OFFCURVE",
"97 294 CURVE SMOOTH",
"94 407 OFFCURVE",
"93 475 OFFCURVE",
"94 500 CURVE SMOOTH",
"95 525 OFFCURVE",
"94 548 OFFCURVE",
"92 569 CURVE",
"90 587 LINE",
"92 580 OFFCURVE",
"108 556 OFFCURVE",
"119 533 CURVE",
"250 293 OFFCURVE",
"327 157 OFFCURVE",
"348 126 CURVE SMOOTH",
"369 94 OFFCURVE",
"390 49 OFFCURVE",
"412 0 CURVE",
"457 0 LINE",
"457 20 LINE",
"456 100 LINE SMOOTH",
"456 119 OFFCURVE",
"456 137 OFFCURVE",
"457 155 CURVE",
"457 173 OFFCURVE",
"457 192 OFFCURVE",
"457 211 CURVE SMOOTH",
"457 240 OFFCURVE",
"457 269 OFFCURVE",
"457 297 CURVE SMOOTH",
"457 356 OFFCURVE",
"459 412 OFFCURVE",
"459 501 CURVE SMOOTH",
"459 554 OFFCURVE",
"458 619 OFFCURVE",
"456 704 CURVE",
"437 708 OFFCURVE",
"417 709 OFFCURVE",
"398 708 CURVE",
"398 691 OFFCURVE",
"399 676 OFFCURVE",
"400 662 CURVE SMOOTH",
"401 647 OFFCURVE",
"404 542 OFFCURVE",
"407 347 CURVE",
"407 323 OFFCURVE",
"408 300 OFFCURVE",
"409 277 CURVE SMOOTH",
"410 254 OFFCURVE",
"410 225 OFFCURVE",
"410 190 CURVE SMOOTH",
"410 179 OFFCURVE",
"410 157 OFFCURVE",
"410 124 CURVE",
"405 131 OFFCURVE",
"397 144 OFFCURVE",
"388 163 CURVE",
"378 182 OFFCURVE",
"336 255 OFFCURVE",
"263 384 CURVE SMOOTH",
"190 513 OFFCURVE",
"152 579 OFFCURVE",
"151 582 CURVE",
"145 596 OFFCURVE",
"138 611 OFFCURVE",
"129 628 CURVE SMOOTH",
"120 644 OFFCURVE",
"113 656 OFFCURVE",
"109 664 CURVE SMOOTH",
"105 672 OFFCURVE",
"101 682 OFFCURVE",
"96 694 CURVE",
"96 695 OFFCURVE",
"90 697 OFFCURVE",
"77 699 CURVE SMOOTH",
"64 701 OFFCURVE",
"55 701 OFFCURVE",
"48 700 CURVE",
"45 657 OFFCURVE",
"42 614 OFFCURVE",
"41 569 CURVE SMOOTH",
"40 524 OFFCURVE",
"39 478 OFFCURVE",
"39 432 CURVE SMOOTH",
"39 369 OFFCURVE",
"40 309 OFFCURVE",
"41 252 CURVE SMOOTH",
"42 195 OFFCURVE",
"42 111 OFFCURVE",
"42 71 CURVE SMOOTH",
"42 1 LINE",
"57 1 OFFCURVE",
"69 0 OFFCURVE",
"78 -1 CURVE SMOOTH",
"82 -1 OFFCURVE",
"85 -2 OFFCURVE",
"89 -2 CURVE SMOOTH"
);
}
);
width = 498;
}
);
leftKerningGroup = KO_E;
note = N;
rightKerningGroup = KO_N;
unicode = 004E;
userData = {
KernOnName = N;
};
},
{
color = 5;
glyphname = O;
lastChange = "2022-10-20 18:27:25 +0000";
layers = (
{
anchors = (
{
name = bottom;
position = "{242, 10}";
},
{
name = center;
position = "{242, 371}";
},
{
name = ogonek;
position = "{435, 20}";
},
{
name = top;
position = "{242, 732}";
},
{
name = topleft;
position = "{20, 732}";
},
{
name = topright;
position = "{463, 732}";
}
);
hints = (
{
horizontal = 1;
place = "{-13.75, 713.75}";
type = Stem;
},
{
place = "{138, 192}";
type = Stem;
}
);
layerId = "9B0E9E80-6738-4704-8EC6-A4FB4E6479F4";
paths = (
{
closed = 1;
nodes = (
"211 -4 OFFCURVE",
"231 -4 OFFCURVE",
"250 -3 CURVE SMOOTH",
"269 -2 OFFCURVE",
"287 2 OFFCURVE",
"306 7 CURVE SMOOTH",
"327 12 OFFCURVE",
"346 20 OFFCURVE",
"365 30 CURVE SMOOTH",
"383 39 OFFCURVE",
"398 52 OFFCURVE",
"409 68 CURVE",
"421 87 OFFCURVE",
"430 109 OFFCURVE",
"436 133 CURVE SMOOTH",
"442 156 OFFCURVE",
"447 191 OFFCURVE",
"447 203 CURVE",
"450 236 LINE SMOOTH",
"452 262 OFFCURVE",
"453 288 OFFCURVE",
"453 313 CURVE SMOOTH",
"453 329 OFFCURVE",
"453 346 OFFCURVE",
"453 363 CURVE SMOOTH",
"453 388 OFFCURVE",
"453 415 OFFCURVE",
"455 441 CURVE SMOOTH",
"456 458 OFFCURVE",
"456 474 OFFCURVE",
"456 491 CURVE",
"455 507 OFFCURVE",
"454 523 OFFCURVE",
"453 540 CURVE SMOOTH",
"452 551 OFFCURVE",
"450 561 OFFCURVE",
"448 572 CURVE",
"445 582 OFFCURVE",
"442 592 OFFCURVE",
"437 602 CURVE",
"430 625 OFFCURVE",
"421 643 OFFCURVE",
"396 663 CURVE",
"377 678 OFFCURVE",
"355 689 OFFCURVE",
"331 697 CURVE",
"300 706 OFFCURVE",
"269 710 OFFCURVE",
"238 710 CURVE SMOOTH",
"218 710 OFFCURVE",
"198 709 OFFCURVE",
"179 705 CURVE SMOOTH",
"153 700 OFFCURVE",
"129 692 OFFCURVE",
"107 681 CURVE",
"98 676 OFFCURVE",
"91 670 OFFCURVE",
"84 663 CURVE",
"63 640 OFFCURVE",
"50 613 OFFCURVE",
"43 583 CURVE SMOOTH",
"36 552 OFFCURVE",
"32 522 OFFCURVE",
"31 492 CURVE SMOOTH",
"29 461 OFFCURVE",
"28 431 OFFCURVE",
"28 400 CURVE SMOOTH",
"28 379 OFFCURVE",
"29 357 OFFCURVE",
"30 335 CURVE SMOOTH",
"32 282 OFFCURVE",
"34 230 OFFCURVE",
"36 178 CURVE SMOOTH",
"37 159 OFFCURVE",
"39 140 OFFCURVE",
"42 121 CURVE SMOOTH",
"45 102 OFFCURVE",
"51 84 OFFCURVE",
"60 67 CURVE",
"66 54 OFFCURVE",
"74 43 OFFCURVE",
"83 35 CURVE",
"92 26 OFFCURVE",
"103 19 OFFCURVE",
"115 14 CURVE SMOOTH",
"126 9 OFFCURVE",
"139 5 OFFCURVE",
"152 2 CURVE",
"165 0 OFFCURVE",
"178 -2 OFFCURVE",
"192 -3 CURVE SMOOTH"
);
},
{
closed = 1;
nodes = (
"227 137 OFFCURVE",
"214 141 OFFCURVE",
"201 149 CURVE SMOOTH",
"191 156 OFFCURVE",
"182 167 OFFCURVE",
"176 180 CURVE",
"170 202 OFFCURVE",
"168 225 OFFCURVE",
"167 250 CURVE SMOOTH",
"166 274 OFFCURVE",
"163 298 OFFCURVE",
"160 321 CURVE",
"160 335 OFFCURVE",
"159 349 OFFCURVE",
"159 363 CURVE SMOOTH",
"159 377 OFFCURVE",
"160 391 OFFCURVE",
"160 405 CURVE SMOOTH",
"161 433 OFFCURVE",
"164 460 OFFCURVE",
"169 485 CURVE",
"175 513 OFFCURVE",
"189 536 OFFCURVE",
"208 554 CURVE",
"216 562 OFFCURVE",
"227 568 OFFCURVE",
"238 571 CURVE SMOOTH",
"243 572 OFFCURVE",
"247 573 OFFCURVE",
"252 573 CURVE SMOOTH",
"259 573 OFFCURVE",
"267 571 OFFCURVE",
"274 568 CURVE",
"286 561 OFFCURVE",
"297 549 OFFCURVE",
"305 534 CURVE SMOOTH",
"313 519 OFFCURVE",
"317 502 OFFCURVE",
"317 483 CURVE",
"318 472 OFFCURVE",
"319 460 OFFCURVE",
"319 447 CURVE",
"320 426 LINE",
"322 358 LINE",
"322 310 LINE SMOOTH",
"322 309 OFFCURVE",
"322 303 OFFCURVE",
"322 293 CURVE",
"321 283 OFFCURVE",
"321 271 OFFCURVE",
"320 258 CURVE SMOOTH",
"319 244 OFFCURVE",
"319 233 OFFCURVE",
"319 225 CURVE",
"319 216 OFFCURVE",
"319 209 OFFCURVE",
"319 203 CURVE SMOOTH",
"315 176 OFFCURVE",
"297 153 OFFCURVE",
"273 143 CURVE SMOOTH",
"261 139 OFFCURVE",
"252 137 OFFCURVE",
"242 137 CURVE SMOOTH"
);
}
);
width = 483;
},
{
anchors = (
{
name = bottom;
position = "{252, 10}";
},
{
name = center;
position = "{252, 371}";
},
{
name = ogonek;
position = "{453, 20}";
},
{
name = top;
position = "{252, 732}";
},
{
name = topleft;
position = "{20, 732}";
},
{
name = topright;
position = "{483, 732}";
}
);
hints = (
{
horizontal = 1;
place = "{-4, 724}";
type = Stem;
},
{
place = "{148, 202}";
type = Stem;
}
);
layerId = "BB6A108D-08DB-4BF5-B99B-807E42D41E71";
paths = (
{
closed = 1;
nodes = (
"220 -4 OFFCURVE",
"242 -4 OFFCURVE",
"261 -3 CURVE SMOOTH",
"279 -2 OFFCURVE",
"298 1 OFFCURVE",
"320 7 CURVE SMOOTH",
"343 13 OFFCURVE",
"364 20 OFFCURVE",
"383 31 CURVE SMOOTH",
"406 42 OFFCURVE",
"424 56 OFFCURVE",
"434 70 CURVE SMOOTH",
"449 93 OFFCURVE",
"458 114 OFFCURVE",
"463 137 CURVE SMOOTH",
"470 162 OFFCURVE",
"474 197 OFFCURVE",
"475 208 CURVE SMOOTH",
"478 241 LINE SMOOTH",
"480 266 OFFCURVE",
"481 292 OFFCURVE",
"481 318 CURVE SMOOTH",
"481 333 OFFCURVE",
"481 351 OFFCURVE",
"481 368 CURVE SMOOTH",
"481 393 OFFCURVE",
"481 420 OFFCURVE",
"483 446 CURVE SMOOTH",
"485 477 OFFCURVE",
"483 505 OFFCURVE",
"481 545 CURVE SMOOTH",
"480 555 OFFCURVE",
"478 565 OFFCURVE",
"475 578 CURVE SMOOTH",
"460 628 OFFCURVE",
"451 645 OFFCURVE",
"417 672 CURVE SMOOTH",
"401 684 OFFCURVE",
"376 697 OFFCURVE",
"346 707 CURVE SMOOTH",
"317 715 OFFCURVE",
"282 720 OFFCURVE",
"248 720 CURVE SMOOTH",
"222 720 OFFCURVE",
"201 718 OFFCURVE",
"185 715 CURVE SMOOTH",
"156 709 OFFCURVE",
"129 700 OFFCURVE",
"109 690 CURVE SMOOTH",
"98 685 OFFCURVE",
"87 678 OFFCURVE",
"81 671 CURVE SMOOTH",
"57 645 OFFCURVE",
"43 619 OFFCURVE",
"35 589 CURVE SMOOTH",
"28 556 OFFCURVE",
"24 527 OFFCURVE",
"23 497 CURVE SMOOTH",
"21 466 OFFCURVE",
"20 436 OFFCURVE",
"20 405 CURVE SMOOTH",
"20 384 OFFCURVE",
"21 362 OFFCURVE",
"22 340 CURVE SMOOTH",
"24 287 OFFCURVE",
"26 235 OFFCURVE",
"28 183 CURVE SMOOTH",
"29 164 OFFCURVE",
"31 146 OFFCURVE",
"34 125 CURVE SMOOTH",
"37 107 OFFCURVE",
"43 91 OFFCURVE",
"54 70 CURVE SMOOTH",
"59 58 OFFCURVE",
"68 48 OFFCURVE",
"81 36 CURVE SMOOTH",
"87 30 OFFCURVE",
"103 21 OFFCURVE",
"118 14 CURVE SMOOTH",
"125 11 OFFCURVE",
"140 6 OFFCURVE",
"156 3 CURVE SMOOTH",
"177 -1 OFFCURVE",
"187 -2 OFFCURVE",
"201 -3 CURVE SMOOTH"
);
},
{
closed = 1;
nodes = (
"241 147 OFFCURVE",
"235 149 OFFCURVE",
"221 158 CURVE SMOOTH",
"217 161 OFFCURVE",
"207 170 OFFCURVE",
"204 183 CURVE SMOOTH",
"195 226 OFFCURVE",
"187 313 OFFCURVE",
"187 347 CURVE SMOOTH",
"187 372 OFFCURVE",
"187 381 OFFCURVE",
"187 389 CURVE SMOOTH",
"186 420 OFFCURVE",
"188 451 OFFCURVE",
"197 489 CURVE SMOOTH",
"203 520 OFFCURVE",
"212 543 OFFCURVE",
"231 555 CURVE SMOOTH",
"243 563 OFFCURVE",
"260 565 OFFCURVE",
"274 560 CURVE SMOOTH",
"284 557 OFFCURVE",
"293 550 OFFCURVE",
"299 537 CURVE",
"305 526 OFFCURVE",
"309 506 OFFCURVE",
"309 488 CURVE SMOOTH",
"310 478 OFFCURVE",
"310 465 OFFCURVE",
"311 452 CURVE SMOOTH",
"312 431 LINE",
"314 363 LINE",
"314 315 LINE",
"312 259 OFFCURVE",
"311 241 OFFCURVE",
"311 230 CURVE SMOOTH",
"311 213 OFFCURVE",
"309 195 OFFCURVE",
"303 180 CURVE SMOOTH",
"297 168 OFFCURVE",
"289 158 OFFCURVE",
"277 153 CURVE",
"264 148 OFFCURVE",
"259 147 OFFCURVE",
"252 147 CURVE SMOOTH"
);
}
);
width = 503;
},
{
anchors = (
{
name = bottom;
position = "{242, 10}";
},
{
name = center;
position = "{242, 371}";
},
{
name = ogonek;
position = "{435, 20}";
},
{
name = top;
position = "{242, 732}";
},
{
name = topleft;
position = "{20, 732}";
},
{
name = topright;
position = "{463, 732}";
}
);
layerId = "B033F76F-1B86-4758-A592-6C7B1BE8F750";
paths = (
{
closed = 1;
nodes = (
"259 -4 OFFCURVE",
"299 1 OFFCURVE",
"333 14 CURVE SMOOTH",
"364 26 OFFCURVE",
"391 44 OFFCURVE",
"409 68 CURVE",
"433 107 OFFCURVE",
"443 156 OFFCURVE",
"447 203 CURVE SMOOTH",
"450 236 LINE SMOOTH",
"454 305 OFFCURVE",
"451 370 OFFCURVE",
"455 441 CURVE SMOOTH",
"456 456 OFFCURVE",
"456 472 OFFCURVE",
"456 488 CURVE SMOOTH",
"456 527 OFFCURVE",
"453 567 OFFCURVE",
"437 602 CURVE",
"417 660 OFFCURVE",
"365 692 OFFCURVE",
"304 704 CURVE SMOOTH",
"284 708 OFFCURVE",
"263 710 OFFCURVE",
"242 710 CURVE SMOOTH",
"194 710 OFFCURVE",
"145 700 OFFCURVE",
"107 681 CURVE",
"46 647 OFFCURVE",
"32 555 OFFCURVE",
"31 492 CURVE",
"29 462 OFFCURVE",
"28 431 OFFCURVE",
"28 401 CURVE SMOOTH",
"28 326 OFFCURVE",
"33 252 OFFCURVE",
"36 178 CURVE SMOOTH",
"37 115 OFFCURVE",
"51 73 OFFCURVE",
"76 45 CURVE SMOOTH",
"103 14 OFFCURVE",
"142 1 OFFCURVE",
"192 -3 CURVE SMOOTH",
"202 -4 OFFCURVE",
"212 -4 OFFCURVE",
"222 -4 CURVE SMOOTH"
);
},
{
closed = 1;
nodes = (
"197 84 OFFCURVE",
"174 89 OFFCURVE",
"157 101 CURVE SMOOTH",
"112 133 OFFCURVE",
"105 196 OFFCURVE",
"105 349 CURVE SMOOTH",
"105 451 OFFCURVE",
"115 527 OFFCURVE",
"145 573 CURVE SMOOTH",
"166 605 OFFCURVE",
"198 622 OFFCURVE",
"242 622 CURVE SMOOTH",
"289 622 OFFCURVE",
"319 605 OFFCURVE",
"337 581 CURVE SMOOTH",
"372 534 OFFCURVE",
"367 463 OFFCURVE",
"368 437 CURVE",
"368 410 OFFCURVE",
"369 384 OFFCURVE",
"369 357 CURVE SMOOTH",
"369 322 LINE",
"369 323 OFFCURVE",
"364 245 OFFCURVE",
"364 198 CURVE",
"362 164 OFFCURVE",
"353 137 OFFCURVE",
"334 117 CURVE SMOOTH",
"312 96 OFFCURVE",
"277 84 OFFCURVE",
"226 84 CURVE SMOOTH"
);
}
);
width = 483;
},
{
anchors = (
{
name = bottom;
position = "{242, 10}";
},
{
name = center;
position = "{242, 360}";
},
{
name = ogonek;
position = "{435, 20}";
},
{
name = top;
position = "{242, 710}";
},
{
name = topleft;
position = "{20, 710}";
},
{
name = topright;
position = "{463, 710}";
}
);
hints = (
{
horizontal = 1;
place = "{-13.75, 713.75}";
type = Stem;
},
{
place = "{353.6, 54.4}";
type = Stem;
}
);
layerId = "DF1E66B1-3A9E-4773-904B-B575E660C115";
paths = (
{
closed = 1;
nodes = (
"211 -4 OFFCURVE",
"231 -4 OFFCURVE",
"250 -3 CURVE SMOOTH",
"269 -2 OFFCURVE",
"287 2 OFFCURVE",
"306 7 CURVE SMOOTH",
"327 12 OFFCURVE",
"346 20 OFFCURVE",
"365 30 CURVE SMOOTH",
"383 39 OFFCURVE",
"398 52 OFFCURVE",
"409 68 CURVE",
"421 87 OFFCURVE",
"430 109 OFFCURVE",
"436 133 CURVE SMOOTH",
"442 156 OFFCURVE",
"447 191 OFFCURVE",
"447 203 CURVE",
"450 236 LINE SMOOTH",
"452 262 OFFCURVE",
"453 288 OFFCURVE",
"453 313 CURVE SMOOTH",
"453 329 OFFCURVE",
"453 346 OFFCURVE",
"453 363 CURVE SMOOTH",
"453 388 OFFCURVE",
"453 415 OFFCURVE",
"455 441 CURVE SMOOTH",
"456 458 OFFCURVE",
"456 474 OFFCURVE",
"456 491 CURVE",
"455 507 OFFCURVE",
"454 523 OFFCURVE",
"453 540 CURVE SMOOTH",
"452 551 OFFCURVE",
"450 561 OFFCURVE",
"448 572 CURVE",
"445 582 OFFCURVE",
"442 592 OFFCURVE",
"437 602 CURVE",
"430 627 OFFCURVE",
"418 643 OFFCURVE",
"396 663 CURVE",
"377 678 OFFCURVE",
"355 689 OFFCURVE",
"331 697 CURVE",
"300 706 OFFCURVE",
"269 710 OFFCURVE",
"238 710 CURVE SMOOTH",
"218 710 OFFCURVE",
"198 709 OFFCURVE",
"179 705 CURVE SMOOTH",
"153 700 OFFCURVE",
"129 692 OFFCURVE",
"107 681 CURVE",
"98 676 OFFCURVE",
"91 670 OFFCURVE",
"84 663 CURVE",
"63 640 OFFCURVE",
"50 613 OFFCURVE",
"43 583 CURVE SMOOTH",
"36 552 OFFCURVE",
"32 522 OFFCURVE",
"31 492 CURVE SMOOTH",
"29 461 OFFCURVE",
"28 431 OFFCURVE",
"28 400 CURVE SMOOTH",
"28 379 OFFCURVE",
"29 357 OFFCURVE",
"30 335 CURVE SMOOTH",
"32 282 OFFCURVE",
"34 230 OFFCURVE",
"36 178 CURVE SMOOTH",
"37 159 OFFCURVE",
"39 140 OFFCURVE",
"42 121 CURVE SMOOTH",
"45 102 OFFCURVE",
"51 84 OFFCURVE",
"60 67 CURVE",
"66 54 OFFCURVE",
"74 43 OFFCURVE",
"83 35 CURVE",
"92 26 OFFCURVE",
"103 19 OFFCURVE",
"115 14 CURVE SMOOTH",
"126 9 OFFCURVE",
"139 5 OFFCURVE",
"152 2 CURVE",
"165 0 OFFCURVE",
"178 -2 OFFCURVE",
"192 -3 CURVE SMOOTH"
);
},
{
closed = 1;
nodes = (
"181 31 OFFCURVE",
"157 36 OFFCURVE",
"141 46 CURVE SMOOTH",
"107 67 OFFCURVE",
"94 100 OFFCURVE",
"83 155 CURVE SMOOTH",
"78 179 OFFCURVE",
"75 234 OFFCURVE",
"73 321 CURVE SMOOTH",
"73 342 OFFCURVE",
"73 361 OFFCURVE",
"73 379 CURVE SMOOTH",
"73 436 OFFCURVE",
"74 475 OFFCURVE",
"77 496 CURVE",
"80 524 OFFCURVE",
"85 551 OFFCURVE",
"90 576 CURVE",
"98 604 OFFCURVE",
"114 627 OFFCURVE",
"137 645 CURVE",
"186 667 OFFCURVE",
"227 676 OFFCURVE",
"262 673 CURVE SMOOTH",
"297 669 OFFCURVE",
"321 664 OFFCURVE",
"334 659 CURVE",
"349 652 OFFCURVE",
"364 640 OFFCURVE",
"377 625 CURVE SMOOTH",
"390 610 OFFCURVE",
"397 593 OFFCURVE",
"398 574 CURVE",
"399 563 OFFCURVE",
"400 551 OFFCURVE",
"401 538 CURVE SMOOTH",
"402 525 OFFCURVE",
"400 566 OFFCURVE",
"402 517 CURVE",
"408 449 LINE",
"408 310 LINE SMOOTH",
"408 309 OFFCURVE",
"407 289 OFFCURVE",
"406 251 CURVE SMOOTH",
"404 212 OFFCURVE",
"403 186 OFFCURVE",
"402 173 CURVE SMOOTH",
"401 159 OFFCURVE",
"399 148 OFFCURVE",
"398 139 CURVE SMOOTH",
"397 130 OFFCURVE",
"395 122 OFFCURVE",
"392 117 CURVE SMOOTH",
"389 112 OFFCURVE",
"386 107 OFFCURVE",
"383 102 CURVE SMOOTH",
"380 97 OFFCURVE",
"376 90 OFFCURVE",
"370 82 CURVE",
"360 71 OFFCURVE",
"348 61 OFFCURVE",
"333 52 CURVE SMOOTH",
"318 43 OFFCURVE",
"288 36 OFFCURVE",
"242 32 CURVE SMOOTH",
"231 31 OFFCURVE",
"222 31 OFFCURVE",
"212 31 CURVE SMOOTH"
);
}
);
width = 483;
}
);
leftKerningGroup = KO_O;
note = O;
rightKerningGroup = KO_O;
unicode = 004F;
},
{
color = 5;
glyphname = Oslash;
lastChange = "2022-10-20 19:13:14 +0000";
layers = (
{
anchors = (
{
name = bottom;
position = "{240, 0}";
},
{
name = top;
position = "{240, 746}";
}
);
hints = (
{
horizontal = 1;
place = "{-2, 21}";
target = up;
type = BottomGhost;
},
{
place = "{288.18, 33.82}";
type = Stem;
}
);
layerId = "9B0E9E80-6738-4704-8EC6-A4FB4E6479F4";
paths = (
{
closed = 1;
nodes = (
"43 -20 OFFCURVE",
"54 -20 OFFCURVE",
"67 -21 CURVE",
"80 -21 OFFCURVE",
"92 -21 OFFCURVE",
"105 -21 CURVE SMOOTH",
"117 -21 OFFCURVE",
"128 -21 OFFCURVE",
"139 -21 CURVE",
"152 -20 OFFCURVE",
"159 -22 OFFCURVE",
"165 -20 CURVE",
"170 -16 OFFCURVE",
"174 -10 OFFCURVE",
"176 -7 CURVE",
"182 12 LINE",
"199 0 OFFCURVE",
"216 3 OFFCURVE",
"233 1 CURVE",
"252 0 OFFCURVE",
"271 1 OFFCURVE",
"290 3 CURVE SMOOTH",
"327 6 OFFCURVE",
"358 20 OFFCURVE",
"384 43 CURVE SMOOTH",
"409 66 OFFCURVE",
"426 95 OFFCURVE",
"434 131 CURVE",
"443 181 OFFCURVE",
"448 231 OFFCURVE",
"449 282 CURVE SMOOTH",
"450 332 OFFCURVE",
"450 383 OFFCURVE",
"451 434 CURVE",
"452 452 OFFCURVE",
"453 471 OFFCURVE",
"453 490 CURVE SMOOTH",
"453 509 OFFCURVE",
"452 527 OFFCURVE",
"449 545 CURVE SMOOTH",
"446 563 OFFCURVE",
"442 581 OFFCURVE",
"435 598 CURVE",
"430 616 OFFCURVE",
"422 629 OFFCURVE",
"406 645 CURVE",
"414 672 LINE",
"420 688 OFFCURVE",
"423 703 OFFCURVE",
"424 716 CURVE",
"418 720 OFFCURVE",
"410 722 OFFCURVE",
"399 723 CURVE SMOOTH",
"388 724 OFFCURVE",
"377 724 OFFCURVE",
"364 723 CURVE SMOOTH",
"351 722 OFFCURVE",
"338 722 OFFCURVE",
"325 722 CURVE",
"321 722 OFFCURVE",
"318 722 OFFCURVE",
"316 722 CURVE SMOOTH",
"310 722 OFFCURVE",
"306 722 OFFCURVE",
"299 723 CURVE",
"298 723 LINE",
"291 705 OFFCURVE",
"289 694 OFFCURVE",
"288 693 CURVE",
"273 698 OFFCURVE",
"248 703 OFFCURVE",
"232 704 CURVE SMOOTH",
"216 705 OFFCURVE",
"200 704 OFFCURVE",
"184 703 CURVE",
"168 701 OFFCURVE",
"153 698 OFFCURVE",
"138 693 CURVE SMOOTH",
"123 688 OFFCURVE",
"109 679 OFFCURVE",
"98 671 CURVE",
"95 668 LINE SMOOTH",
"79 652 OFFCURVE",
"66 632 OFFCURVE",
"55 609 CURVE",
"49 598 OFFCURVE",
"45 586 OFFCURVE",
"43 575 CURVE",
"40 563 OFFCURVE",
"39 551 OFFCURVE",
"38 539 CURVE SMOOTH",
"37 526 OFFCURVE",
"36 514 OFFCURVE",
"36 502 CURVE",
"35 489 OFFCURVE",
"34 477 OFFCURVE",
"33 465 CURVE SMOOTH",
"31 426 OFFCURVE",
"30 387 OFFCURVE",
"30 348 CURVE SMOOTH",
"30 321 OFFCURVE",
"30 294 OFFCURVE",
"31 267 CURVE SMOOTH",
"33 195 OFFCURVE",
"41 123 OFFCURVE",
"59 71 CURVE",
"60 69 LINE",
"60 68 OFFCURVE",
"41 19 OFFCURVE",
"42 19 CURVE",
"39 10 OFFCURVE",
"36 1 OFFCURVE",
"34 -7 CURVE SMOOTH",
"32 -14 OFFCURVE",
"32 -19 OFFCURVE",
"33 -21 CURVE"
);
},
{
closed = 1;
nodes = (
"237 155 OFFCURVE",
"246 180 OFFCURVE",
"257 206 CURVE",
"266 233 OFFCURVE",
"275 260 OFFCURVE",
"285 286 CURVE SMOOTH",
"294 313 OFFCURVE",
"303 339 OFFCURVE",
"312 364 CURVE",
"337 432 LINE",
"337 428 LINE SMOOTH",
"337 415 OFFCURVE",
"338 400 OFFCURVE",
"339 384 CURVE SMOOTH",
"340 368 OFFCURVE",
"342 350 OFFCURVE",
"343 331 CURVE SMOOTH",
"344 321 OFFCURVE",
"345 311 OFFCURVE",
"345 300 CURVE SMOOTH",
"345 290 OFFCURVE",
"344 279 OFFCURVE",
"343 267 CURVE SMOOTH",
"342 244 OFFCURVE",
"338 220 OFFCURVE",
"332 195 CURVE",
"328 185 OFFCURVE",
"324 177 OFFCURVE",
"316 170 CURVE",
"308 162 OFFCURVE",
"298 156 OFFCURVE",
"289 151 CURVE",
"279 145 OFFCURVE",
"269 141 OFFCURVE",
"259 138 CURVE SMOOTH",
"249 135 OFFCURVE",
"230 130 OFFCURVE",
"230 131 CURVE",
"230 131 OFFCURVE",
"230 131 OFFCURVE",
"229 131 CURVE"
);
},
{
closed = 1;
nodes = (
"151 213 OFFCURVE",
"139 258 OFFCURVE",
"139 295 CURVE",
"138 302 OFFCURVE",
"138 309 OFFCURVE",
"139 317 CURVE SMOOTH",
"140 324 OFFCURVE",
"140 332 OFFCURVE",
"141 340 CURVE",
"143 360 LINE",
"144 374 OFFCURVE",
"150 436 OFFCURVE",
"152 447 CURVE SMOOTH",
"155 468 OFFCURVE",
"155 489 OFFCURVE",
"158 510 CURVE",
"163 532 OFFCURVE",
"173 535 OFFCURVE",
"186 546 CURVE",
"199 556 OFFCURVE",
"215 561 OFFCURVE",
"226 563 CURVE",
"233 563 LINE",
"251 562 LINE",
"236 514 OFFCURVE",
"222 466 OFFCURVE",
"205 417 CURVE SMOOTH",
"188 368 OFFCURVE",
"165 252 OFFCURVE",
"152 209 CURVE"
);
}
);
width = 479;
},
{
anchors = (
{
name = bottom;
position = "{250, 0}";
},
{
name = top;
position = "{250, 746}";
}
);
hints = (
{
horizontal = 1;
place = "{8, 21}";
target = up;
type = BottomGhost;
},
{
place = "{298, 44}";
type = Stem;
}
);
layerId = "BB6A108D-08DB-4BF5-B99B-807E42D41E71";
paths = (
{
closed = 1;
nodes = (
"35 -25 OFFCURVE",
"57 -26 OFFCURVE",
"76 -26 CURVE SMOOTH",
"115 -26 LINE SMOOTH",
"127 -26 OFFCURVE",
"138 -26 OFFCURVE",
"150 -26 CURVE SMOOTH",
"166 -26 OFFCURVE",
"174 -26 OFFCURVE",
"181 -25 CURVE SMOOTH",
"186 -24 LINE",
"206 26 LINE",
"222 9 OFFCURVE",
"234 -7 OFFCURVE",
"285 -6 CURVE SMOOTH",
"340 -5 OFFCURVE",
"370 7 OFFCURVE",
"406 39 CURVE SMOOTH",
"437 68 OFFCURVE",
"454 95 OFFCURVE",
"462 130 CURVE SMOOTH",
"471 182 OFFCURVE",
"476 231 OFFCURVE",
"477 282 CURVE SMOOTH",
"478 307 OFFCURVE",
"478 332 OFFCURVE",
"478 358 CURVE SMOOTH",
"478 383 OFFCURVE",
"479 409 OFFCURVE",
"479 434 CURVE SMOOTH",
"480 452 OFFCURVE",
"481 471 OFFCURVE",
"481 490 CURVE SMOOTH",
"481 512 OFFCURVE",
"480 527 OFFCURVE",
"477 546 CURVE SMOOTH",
"473 567 OFFCURVE",
"469 582 OFFCURVE",
"462 600 CURVE SMOOTH",
"458 614 OFFCURVE",
"450 626 OFFCURVE",
"433 644 CURVE",
"441 670 LINE SMOOTH",
"447 688 OFFCURVE",
"451 702 OFFCURVE",
"452 716 CURVE",
"444 720 LINE SMOOTH",
"439 723 OFFCURVE",
"425 727 OFFCURVE",
"411 728 CURVE SMOOTH",
"400 729 OFFCURVE",
"386 729 OFFCURVE",
"373 728 CURVE SMOOTH",
"340 725 OFFCURVE",
"320 727 OFFCURVE",
"291 725 CURVE",
"284 703 LINE",
"270 706 OFFCURVE",
"255 708 OFFCURVE",
"243 709 CURVE SMOOTH",
"225 710 OFFCURVE",
"208 709 OFFCURVE",
"191 708 CURVE SMOOTH",
"173 706 OFFCURVE",
"155 702 OFFCURVE",
"142 698 CURVE SMOOTH",
"131 694 OFFCURVE",
"110 685 OFFCURVE",
"92 672 CURVE SMOOTH",
"72 652 OFFCURVE",
"59 633 OFFCURVE",
"49 611 CURVE SMOOTH",
"42 599 OFFCURVE",
"37 585 OFFCURVE",
"35 576 CURVE SMOOTH",
"33 564 OFFCURVE",
"32 557 OFFCURVE",
"30 539 CURVE SMOOTH",
"29 525 OFFCURVE",
"28 514 OFFCURVE",
"28 502 CURVE SMOOTH",
"27 491 OFFCURVE",
"27 483 OFFCURVE",
"25 465 CURVE SMOOTH",
"23 426 OFFCURVE",
"22 388 OFFCURVE",
"22 348 CURVE SMOOTH",
"22 321 OFFCURVE",
"22 294 OFFCURVE",
"23 267 CURVE SMOOTH",
"25 184 OFFCURVE",
"45 119 OFFCURVE",
"62 69 CURVE",
"47 54 LINE",
"42 41 LINE",
"34 16 OFFCURVE",
"22 0 OFFCURVE",
"16 -28 CURVE"
);
},
{
closed = 1;
nodes = (
"268 165 OFFCURVE",
"276 185 OFFCURVE",
"284 204 CURVE SMOOTH",
"293 231 OFFCURVE",
"303 262 OFFCURVE",
"312 284 CURVE SMOOTH",
"320 308 OFFCURVE",
"327 329 OFFCURVE",
"334 348 CURVE",
"334 347 OFFCURVE",
"337 306 OFFCURVE",
"337 300 CURVE SMOOTH",
"337 290 OFFCURVE",
"336 278 OFFCURVE",
"335 267 CURVE SMOOTH",
"334 245 OFFCURVE",
"330 220 OFFCURVE",
"324 193 CURVE",
"320 172 OFFCURVE",
"277 142 OFFCURVE",
"260 142 CURVE"
);
},
{
closed = 1;
nodes = (
"166 311 OFFCURVE",
"168 327 OFFCURVE",
"169 339 CURVE SMOOTH",
"171 360 LINE SMOOTH",
"177 424 OFFCURVE",
"183 477 OFFCURVE",
"183 478 CURVE SMOOTH",
"186 509 LINE",
"197 546 OFFCURVE",
"210 558 OFFCURVE",
"242 558 CURVE",
"232 524 LINE SMOOTH",
"222 489 OFFCURVE",
"209 451 OFFCURVE",
"198 419 CURVE SMOOTH",
"190 395 OFFCURVE",
"182 366 OFFCURVE",
"166 299 CURVE"
);
}
);
width = 499;
},
{
anchors = (
{
name = bottom;
position = "{240, 0}";
},
{
name = top;
position = "{240, 752}";
}
);
layerId = "B033F76F-1B86-4758-A592-6C7B1BE8F750";
paths = (
{
closed = 1;
nodes = (
"92 -19 OFFCURVE",
"132 -21 OFFCURVE",
"147 -18 CURVE",
"149 -15 LINE",
"157 -6 OFFCURVE",
"160 4 OFFCURVE",
"162 10 CURVE",
"183 3 OFFCURVE",
"210 1 OFFCURVE",
"238 1 CURVE SMOOTH",
"336 1 OFFCURVE",
"402 54 OFFCURVE",
"428 148 CURVE SMOOTH",
"447 222 OFFCURVE",
"452 299 OFFCURVE",
"451 372 CURVE",
"452 402 OFFCURVE",
"450 430 OFFCURVE",
"447 462 CURVE",
"444 530 OFFCURVE",
"432 600 OFFCURVE",
"386 649 CURVE",
"388 671 OFFCURVE",
"402 694 OFFCURVE",
"406 717 CURVE",
"389 726 OFFCURVE",
"346 721 OFFCURVE",
"314 724 CURVE",
"307 717 OFFCURVE",
"308 701 OFFCURVE",
"303 692 CURVE",
"281 702 OFFCURVE",
"255 706 OFFCURVE",
"227 706 CURVE SMOOTH",
"153 704 OFFCURVE",
"95 674 OFFCURVE",
"60 600 CURVE SMOOTH",
"39 557 OFFCURVE",
"36 508 OFFCURVE",
"32 460 CURVE SMOOTH",
"30 436 OFFCURVE",
"29 411 OFFCURVE",
"29 386 CURVE SMOOTH",
"29 362 OFFCURVE",
"30 337 OFFCURVE",
"31 313 CURVE SMOOTH",
"32 229 OFFCURVE",
"38 139 OFFCURVE",
"70 79 CURVE",
"77 65 OFFCURVE",
"80 62 OFFCURVE",
"82 59 CURVE",
"81 54 OFFCURVE",
"79 50 OFFCURVE",
"78 45 CURVE",
"70 25 OFFCURVE",
"57 -12 OFFCURVE",
"57 -21 CURVE"
);
},
{
closed = 1;
nodes = (
"219 85 OFFCURVE",
"206 88 OFFCURVE",
"195 94 CURVE",
"244 228 OFFCURVE",
"302 368 OFFCURVE",
"337 505 CURVE",
"354 460 OFFCURVE",
"366 422 OFFCURVE",
"368 379 CURVE SMOOTH",
"369 360 OFFCURVE",
"369 344 OFFCURVE",
"369 330 CURVE SMOOTH",
"369 311 OFFCURVE",
"369 295 OFFCURVE",
"368 279 CURVE",
"365 243 OFFCURVE",
"373 213 OFFCURVE",
"335 147 CURVE",
"317 109 OFFCURVE",
"272 89 OFFCURVE",
"235 85 CURVE"
);
},
{
closed = 1;
nodes = (
"112 217 OFFCURVE",
"110 280 OFFCURVE",
"110 327 CURVE SMOOTH",
"110 339 OFFCURVE",
"110 349 OFFCURVE",
"110 358 CURVE",
"112 385 OFFCURVE",
"113 415 OFFCURVE",
"113 446 CURVE",
"115 470 OFFCURVE",
"115 537 OFFCURVE",
"154 579 CURVE SMOOTH",
"172 599 OFFCURVE",
"200 614 OFFCURVE",
"240 614 CURVE SMOOTH",
"251 614 OFFCURVE",
"264 608 OFFCURVE",
"275 602 CURVE",
"191 357 OFFCURVE",
"183 333 OFFCURVE",
"131 184 CURVE"
);
}
);
width = 479;
},
{
anchors = (
{
name = bottom;
position = "{240, 0}";
},
{
name = top;
position = "{240, 747}";
}
);
hints = (
{
horizontal = 1;
place = "{-17, 21}";
target = up;
type = BottomGhost;
},
{
horizontal = 1;
place = "{15, 25}";
type = Stem;
},
{
horizontal = 1;
place = "{665, 43}";
type = Stem;
},
{
place = "{33, 42}";
type = Stem;
},
{
horizontal = 1;
place = "{57, 11.41}";
type = Stem;
}
);
layerId = "DF1E66B1-3A9E-4773-904B-B575E660C115";
paths = (
{
closed = 1;
nodes = (
"110 -19 OFFCURVE",
"126 -18 OFFCURVE",
"130 -17 CURVE",
"146 22 LINE",
"163 15 LINE",
"185 7 OFFCURVE",
"211 2 OFFCURVE",
"242 2 CURVE SMOOTH",
"264 2 OFFCURVE",
"285 6 OFFCURVE",
"304 15 CURVE",
"327 25 OFFCURVE",
"346 40 OFFCURVE",
"363 59 CURVE SMOOTH",
"380 78 OFFCURVE",
"394 99 OFFCURVE",
"406 124 CURVE SMOOTH",
"418 149 OFFCURVE",
"428 175 OFFCURVE",
"435 204 CURVE SMOOTH",
"442 233 OFFCURVE",
"446 261 OFFCURVE",
"449 290 CURVE SMOOTH",
"452 319 OFFCURVE",
"452 346 OFFCURVE",
"451 372 CURVE",
"452 391 OFFCURVE",
"452 411 OFFCURVE",
"451 430 CURVE",
"449 449 OFFCURVE",
"446 470 OFFCURVE",
"443 491 CURVE SMOOTH",
"439 520 OFFCURVE",
"432 547 OFFCURVE",
"421 574 CURVE SMOOTH",
"408 607 OFFCURVE",
"392 629 OFFCURVE",
"367 654 CURVE",
"374 675 OFFCURVE",
"379 690 OFFCURVE",
"382 699 CURVE",
"388 718 LINE",
"379 722 OFFCURVE",
"364 725 OFFCURVE",
"341 726 CURVE",
"329 684 LINE",
"313 692 LINE",
"291 703 OFFCURVE",
"266 708 OFFCURVE",
"238 708 CURVE SMOOTH",
"203 708 OFFCURVE",
"174 700 OFFCURVE",
"150 685 CURVE SMOOTH",
"116 663 OFFCURVE",
"89 632 OFFCURVE",
"78 617 CURVE",
"65 594 OFFCURVE",
"55 571 OFFCURVE",
"48 546 CURVE SMOOTH",
"41 521 OFFCURVE",
"37 495 OFFCURVE",
"34 470 CURVE SMOOTH",
"32 449 OFFCURVE",
"30 427 OFFCURVE",
"30 406 CURVE SMOOTH",
"30 374 OFFCURVE",
"32 343 OFFCURVE",
"33 314 CURVE SMOOTH",
"34 284 OFFCURVE",
"35 254 OFFCURVE",
"37 225 CURVE SMOOTH",
"39 195 OFFCURVE",
"44 166 OFFCURVE",
"53 139 CURVE SMOOTH",
"61 112 OFFCURVE",
"73 87 OFFCURVE",
"90 66 CURVE",
"105 49 LINE",
"102 40 OFFCURVE",
"100 32 OFFCURVE",
"97 23 CURVE SMOOTH",
"93 12 OFFCURVE",
"84 -15 OFFCURVE",
"82 -20 CURVE"
);
},
{
closed = 1;
nodes = (
"102 118 OFFCURVE",
"89 155 OFFCURVE",
"84 200 CURVE SMOOTH",
"78 255 OFFCURVE",
"75 299 OFFCURVE",
"75 333 CURVE SMOOTH",
"75 358 OFFCURVE",
"75 463 OFFCURVE",
"80 494 CURVE SMOOTH",
"82 505 OFFCURVE",
"85 518 OFFCURVE",
"89 532 CURVE SMOOTH",
"93 546 OFFCURVE",
"105 572 OFFCURVE",
"125 610 CURVE SMOOTH",
"144 648 OFFCURVE",
"187 666 OFFCURVE",
"254 665 CURVE",
"277 660 OFFCURVE",
"298 653 OFFCURVE",
"316 642 CURVE",
"309 621 OFFCURVE",
"300 593 OFFCURVE",
"288 556 CURVE SMOOTH",
"270 500 OFFCURVE",
"257 462 OFFCURVE",
"249 441 CURVE SMOOTH",
"228 384 OFFCURVE",
"212 339 OFFCURVE",
"200 306 CURVE SMOOTH",
"188 272 OFFCURVE",
"177 242 OFFCURVE",
"168 217 CURVE",
"122 90 LINE"
);
},
{
closed = 1;
nodes = (
"200 40 OFFCURVE",
"182 46 OFFCURVE",
"161 57 CURVE",
"185 122 OFFCURVE",
"199 160 OFFCURVE",
"203 171 CURVE",
"206 182 OFFCURVE",
"210 192 OFFCURVE",
"213 202 CURVE",
"228 240 OFFCURVE",
"242 278 OFFCURVE",
"255 316 CURVE SMOOTH",
"268 354 OFFCURVE",
"281 392 OFFCURVE",
"294 431 CURVE SMOOTH",
"301 450 OFFCURVE",
"307 469 OFFCURVE",
"314 488 CURVE",
"320 507 OFFCURVE",
"326 527 OFFCURVE",
"333 546 CURVE SMOOTH",
"341 570 OFFCURVE",
"348 593 OFFCURVE",
"353 616 CURVE",
"360 602 OFFCURVE",
"367 589 OFFCURVE",
"372 578 CURVE SMOOTH",
"395 531 OFFCURVE",
"407 489 OFFCURVE",
"409 453 CURVE SMOOTH",
"410 416 OFFCURVE",
"411 388 OFFCURVE",
"411 367 CURVE",
"410 346 OFFCURVE",
"410 326 OFFCURVE",
"409 309 CURVE SMOOTH",
"408 292 OFFCURVE",
"407 276 OFFCURVE",
"406 261 CURVE SMOOTH",
"405 246 OFFCURVE",
"403 227 OFFCURVE",
"399 205 CURVE",
"394 183 OFFCURVE",
"379 151 OFFCURVE",
"353 109 CURVE SMOOTH",
"326 66 OFFCURVE",
"288 43 OFFCURVE",
"239 40 CURVE"
);
}
);
width = 479;
}
);
leftKerningGroup = KO_G;
note = Oslash;
rightKerningGroup = KO_Q;
unicode = 00D8;
},
{
color = 5;
glyphname = OE;
lastChange = "2022-10-20 18:02:40 +0000";
layers = (
{
hints = (
{
horizontal = 1;
place = "{140, 133}";
type = Stem;
},
{
horizontal = 1;
place = "{420, 124}";
type = Stem;
},
{
place = "{157, 185}";
type = Stem;
}
);
layerId = "9B0E9E80-6738-4704-8EC6-A4FB4E6479F4";
paths = (
{
closed = 1;
nodes = (
"268 -13 OFFCURVE",
"288 -12 OFFCURVE",
"308 -11 CURVE",
"330 -9 OFFCURVE",
"409 -3 OFFCURVE",
"435 -2 CURVE SMOOTH",
"478 1 OFFCURVE",
"571 3 OFFCURVE",
"620 3 CURVE SMOOTH",
"649 3 OFFCURVE",
"679 3 OFFCURVE",
"709 3 CURVE SMOOTH",
"722 3 OFFCURVE",
"786 3 OFFCURVE",
"802 3 CURVE SMOOTH",
"803 3 LINE",
"810 22 OFFCURVE",
"813 44 OFFCURVE",
"814 67 CURVE",
"812 135 LINE",
"764 140 OFFCURVE",
"754 140 OFFCURVE",
"686 140 CURVE SMOOTH",
"645 140 OFFCURVE",
"598 142 OFFCURVE",
"554 142 CURVE",
"550 148 OFFCURVE",
"547 158 OFFCURVE",
"546 172 CURVE SMOOTH",
"545 186 OFFCURVE",
"544 200 OFFCURVE",
"545 215 CURVE",
"545 230 OFFCURVE",
"546 243 OFFCURVE",
"547 254 CURVE SMOOTH",
"548 265 OFFCURVE",
"550 272 OFFCURVE",
"552 273 CURVE",
"564 273 OFFCURVE",
"574 273 OFFCURVE",
"583 274 CURVE",
"592 274 OFFCURVE",
"600 274 OFFCURVE",
"609 275 CURVE",
"617 275 OFFCURVE",
"626 275 OFFCURVE",
"635 275 CURVE",
"644 274 OFFCURVE",
"656 274 OFFCURVE",
"670 274 CURVE SMOOTH",
"670 306 OFFCURVE",
"672 334 OFFCURVE",
"672 363 CURVE SMOOTH",
"672 380 OFFCURVE",
"671 397 OFFCURVE",
"670 414 CURVE",
"670 419 OFFCURVE",
"623 421 OFFCURVE",
"608 420 CURVE SMOOTH",
"587 419 OFFCURVE",
"566 420 OFFCURVE",
"547 422 CURVE",
"543 430 OFFCURVE",
"541 439 OFFCURVE",
"541 449 CURVE",
"540 460 OFFCURVE",
"541 500 OFFCURVE",
"542 508 CURVE SMOOTH",
"542 507 OFFCURVE",
"543 540 OFFCURVE",
"543 538 CURVE",
"564 541 OFFCURVE",
"585 543 OFFCURVE",
"608 544 CURVE",
"630 544 OFFCURVE",
"652 544 OFFCURVE",
"675 544 CURVE",
"686 544 OFFCURVE",
"731 544 OFFCURVE",
"742 544 CURVE SMOOTH",
"764 545 OFFCURVE",
"786 547 OFFCURVE",
"808 551 CURVE",
"810 574 OFFCURVE",
"811 599 OFFCURVE",
"812 625 CURVE",
"812 650 OFFCURVE",
"812 675 OFFCURVE",
"811 698 CURVE",
"805 698 OFFCURVE",
"793 698 OFFCURVE",
"776 698 CURVE SMOOTH",
"759 698 OFFCURVE",
"737 698 OFFCURVE",
"712 698 CURVE",
"687 697 OFFCURVE",
"658 697 OFFCURVE",
"626 697 CURVE SMOOTH",
"594 696 OFFCURVE",
"561 696 OFFCURVE",
"526 696 CURVE SMOOTH",
"509 696 OFFCURVE",
"437 696 OFFCURVE",
"419 696 CURVE SMOOTH",
"383 696 OFFCURVE",
"348 696 OFFCURVE",
"314 697 CURVE",
"295 696 OFFCURVE",
"235 700 OFFCURVE",
"225 700 CURVE SMOOTH",
"210 700 OFFCURVE",
"196 699 OFFCURVE",
"182 697 CURVE",
"168 694 OFFCURVE",
"154 689 OFFCURVE",
"141 681 CURVE",
"109 664 OFFCURVE",
"84 640 OFFCURVE",
"66 609 CURVE SMOOTH",
"47 577 OFFCURVE",
"38 542 OFFCURVE",
"37 504 CURVE SMOOTH",
"36 471 OFFCURVE",
"35 438 OFFCURVE",
"33 405 CURVE SMOOTH",
"30 372 OFFCURVE",
"29 339 OFFCURVE",
"28 306 CURVE SMOOTH",
"28 291 OFFCURVE",
"28 224 OFFCURVE",
"28 207 CURVE SMOOTH",
"29 174 OFFCURVE",
"34 141 OFFCURVE",
"41 109 CURVE",
"52 78 OFFCURVE",
"70 51 OFFCURVE",
"93 29 CURVE SMOOTH",
"116 7 OFFCURVE",
"147 -6 OFFCURVE",
"185 -10 CURVE SMOOTH",
"207 -13 OFFCURVE",
"228 -14 OFFCURVE",
"248 -14 CURVE"
);
},
{
closed = 1;
nodes = (
"247 127 OFFCURVE",
"234 131 OFFCURVE",
"221 139 CURVE SMOOTH",
"190 161 OFFCURVE",
"189 195 OFFCURVE",
"187 240 CURVE SMOOTH",
"186 264 OFFCURVE",
"183 288 OFFCURVE",
"180 311 CURVE",
"180 324 OFFCURVE",
"180 382 OFFCURVE",
"180 395 CURVE SMOOTH",
"181 423 OFFCURVE",
"184 450 OFFCURVE",
"189 475 CURVE",
"195 503 OFFCURVE",
"209 526 OFFCURVE",
"228 544 CURVE",
"241 557 OFFCURVE",
"261 563 OFFCURVE",
"272 563 CURVE SMOOTH",
"326 563 OFFCURVE",
"339 495 OFFCURVE",
"339 437 CURVE",
"340 416 LINE",
"342 348 LINE",
"342 300 LINE SMOOTH",
"342 299 OFFCURVE",
"342 293 OFFCURVE",
"342 283 CURVE",
"339 215 LINE",
"339 177 OFFCURVE",
"329 148 OFFCURVE",
"293 133 CURVE SMOOTH",
"281 129 OFFCURVE",
"272 127 OFFCURVE",
"262 127 CURVE SMOOTH"
);
}
);
width = 831;
},
{
hints = (
{
horizontal = 1;
place = "{150, 143}";
type = Stem;
},
{
horizontal = 1;
place = "{430, 134}";
type = Stem;
},
{
place = "{167, 195}";
type = Stem;
}
);
layerId = "BB6A108D-08DB-4BF5-B99B-807E42D41E71";
paths = (
{
closed = 1;
nodes = (
"280 -13 OFFCURVE",
"300 -12 OFFCURVE",
"319 -11 CURVE SMOOTH",
"343 -9 OFFCURVE",
"421 -3 OFFCURVE",
"446 -2 CURVE SMOOTH",
"489 1 OFFCURVE",
"581 3 OFFCURVE",
"630 3 CURVE SMOOTH",
"659 3 OFFCURVE",
"690 3 OFFCURVE",
"719 3 CURVE SMOOTH",
"732 3 OFFCURVE",
"797 3 OFFCURVE",
"813 3 CURVE",
"830 6 LINE",
"837 27 OFFCURVE",
"843 45 OFFCURVE",
"842 72 CURVE SMOOTH",
"840 143 LINE",
"777 150 OFFCURVE",
"771 150 OFFCURVE",
"696 150 CURVE SMOOTH",
"676 150 OFFCURVE",
"655 150 OFFCURVE",
"633 151 CURVE SMOOTH",
"615 151 OFFCURVE",
"596 152 OFFCURVE",
"578 152 CURVE",
"577 156 OFFCURVE",
"575 165 OFFCURVE",
"574 177 CURVE SMOOTH",
"573 198 OFFCURVE",
"572 209 OFFCURVE",
"573 220 CURVE SMOOTH",
"573 232 OFFCURVE",
"574 244 OFFCURVE",
"575 259 CURVE SMOOTH",
"575 264 OFFCURVE",
"577 270 OFFCURVE",
"576 273 CURVE",
"585 273 OFFCURVE",
"590 273 OFFCURVE",
"595 274 CURVE",
"607 274 OFFCURVE",
"614 274 OFFCURVE",
"621 275 CURVE SMOOTH",
"628 275 OFFCURVE",
"635 275 OFFCURVE",
"643 275 CURVE SMOOTH",
"652 274 OFFCURVE",
"665 274 OFFCURVE",
"698 274 CURVE",
"698 293 OFFCURVE",
"698 309 OFFCURVE",
"699 326 CURVE SMOOTH",
"700 340 OFFCURVE",
"700 354 OFFCURVE",
"700 368 CURVE SMOOTH",
"700 385 OFFCURVE",
"699 402 OFFCURVE",
"698 419 CURVE SMOOTH",
"698 427 OFFCURVE",
"641 432 OFFCURVE",
"617 430 CURVE SMOOTH",
"602 429 OFFCURVE",
"587 430 OFFCURVE",
"572 431 CURVE",
"571 436 OFFCURVE",
"569 445 OFFCURVE",
"569 454 CURVE SMOOTH",
"568 463 OFFCURVE",
"569 505 OFFCURVE",
"570 512 CURVE",
"569 539 LINE",
"618 544 LINE",
"640 544 OFFCURVE",
"663 544 OFFCURVE",
"685 544 CURVE SMOOTH",
"695 544 OFFCURVE",
"740 544 OFFCURVE",
"752 544 CURVE SMOOTH",
"787 546 OFFCURVE",
"816 549 OFFCURVE",
"836 554 CURVE",
"838 574 OFFCURVE",
"839 592 OFFCURVE",
"840 630 CURVE SMOOTH",
"840 655 OFFCURVE",
"840 680 OFFCURVE",
"839 703 CURVE",
"821 708 LINE",
"816 708 OFFCURVE",
"802 708 OFFCURVE",
"786 708 CURVE SMOOTH",
"769 708 OFFCURVE",
"746 708 OFFCURVE",
"722 708 CURVE SMOOTH",
"696 707 OFFCURVE",
"668 707 OFFCURVE",
"636 707 CURVE SMOOTH",
"604 706 OFFCURVE",
"571 706 OFFCURVE",
"536 706 CURVE SMOOTH",
"520 706 OFFCURVE",
"448 706 OFFCURVE",
"429 706 CURVE SMOOTH",
"393 706 OFFCURVE",
"358 707 OFFCURVE",
"325 707 CURVE SMOOTH",
"311 707 OFFCURVE",
"282 708 OFFCURVE",
"259 709 CURVE SMOOTH",
"248 710 OFFCURVE",
"239 710 OFFCURVE",
"235 710 CURVE SMOOTH",
"218 710 OFFCURVE",
"200 709 OFFCURVE",
"186 706 CURVE SMOOTH",
"166 702 OFFCURVE",
"148 695 OFFCURVE",
"139 688 CURVE",
"103 669 OFFCURVE",
"77 645 OFFCURVE",
"60 617 CURVE SMOOTH",
"40 581 OFFCURVE",
"30 549 OFFCURVE",
"29 509 CURVE SMOOTH",
"28 476 OFFCURVE",
"27 443 OFFCURVE",
"25 410 CURVE SMOOTH",
"22 377 OFFCURVE",
"21 344 OFFCURVE",
"20 311 CURVE SMOOTH",
"20 297 OFFCURVE",
"20 229 OFFCURVE",
"20 212 CURVE SMOOTH",
"21 182 OFFCURVE",
"25 150 OFFCURVE",
"34 113 CURVE",
"44 84 OFFCURVE",
"63 57 OFFCURVE",
"91 30 CURVE SMOOTH",
"112 10 OFFCURVE",
"151 -5 OFFCURVE",
"193 -10 CURVE SMOOTH",
"211 -13 OFFCURVE",
"234 -14 OFFCURVE",
"258 -14 CURVE SMOOTH"
);
},
{
closed = 1;
nodes = (
"261 137 OFFCURVE",
"255 139 OFFCURVE",
"241 148 CURVE",
"225 160 OFFCURVE",
"218 184 OFFCURVE",
"215 245 CURVE SMOOTH",
"214 268 OFFCURVE",
"211 292 OFFCURVE",
"208 316 CURVE",
"208 330 OFFCURVE",
"208 388 OFFCURVE",
"208 400 CURVE SMOOTH",
"209 428 OFFCURVE",
"212 457 OFFCURVE",
"217 479 CURVE SMOOTH",
"223 510 OFFCURVE",
"237 533 OFFCURVE",
"251 545 CURVE",
"262 557 OFFCURVE",
"272 563 OFFCURVE",
"282 563 CURVE SMOOTH",
"310 563 OFFCURVE",
"327 516 OFFCURVE",
"331 442 CURVE SMOOTH",
"332 421 LINE",
"334 353 LINE",
"334 307 OFFCURVE",
"334 295 OFFCURVE",
"334 288 CURVE SMOOTH",
"331 220 LINE SMOOTH",
"329 179 OFFCURVE",
"319 152 OFFCURVE",
"297 143 CURVE",
"284 138 OFFCURVE",
"279 137 OFFCURVE",
"272 137 CURVE SMOOTH"
);
}
);
width = 851;
},
{
layerId = "B033F76F-1B86-4758-A592-6C7B1BE8F750";
paths = (
{
closed = 1;
nodes = (
"251 -14 OFFCURVE",
"279 -11 OFFCURVE",
"306 -3 CURVE SMOOTH",
"347 8 OFFCURVE",
"386 26 OFFCURVE",
"409 58 CURVE",
"413 65 OFFCURVE",
"417 72 OFFCURVE",
"420 79 CURVE",
"421 54 OFFCURVE",
"421 30 OFFCURVE",
"421 5 CURVE",
"468 1 OFFCURVE",
"513 0 OFFCURVE",
"559 0 CURVE SMOOTH",
"639 0 OFFCURVE",
"719 4 OFFCURVE",
"806 3 CURVE",
"808 98 LINE",
"794 98 OFFCURVE",
"687 100 OFFCURVE",
"676 101 CURVE SMOOTH",
"638 104 OFFCURVE",
"601 105 OFFCURVE",
"514 105 CURVE",
"516 153 OFFCURVE",
"516 186 OFFCURVE",
"516 209 CURVE SMOOTH",
"516 225 OFFCURVE",
"516 237 OFFCURVE",
"516 246 CURVE SMOOTH",
"516 269 OFFCURVE",
"517 278 OFFCURVE",
"520 297 CURVE",
"523 300 OFFCURVE",
"543 301 OFFCURVE",
"580 302 CURVE",
"671 306 LINE",
"671 312 LINE SMOOTH",
"671 319 OFFCURVE",
"671 379 OFFCURVE",
"670 392 CURVE",
"649 394 OFFCURVE",
"629 394 OFFCURVE",
"608 394 CURVE SMOOTH",
"515 396 LINE",
"512 406 OFFCURVE",
"511 415 OFFCURVE",
"511 434 CURVE SMOOTH",
"511 450 OFFCURVE",
"512 473 OFFCURVE",
"514 509 CURVE",
"520 592 LINE",
"620 596 LINE",
"642 596 OFFCURVE",
"664 596 OFFCURVE",
"686 595 CURVE",
"718 595 OFFCURVE",
"746 597 OFFCURVE",
"776 597 CURVE SMOOTH",
"787 597 OFFCURVE",
"798 597 OFFCURVE",
"810 596 CURVE",
"811 695 LINE SMOOTH",
"811 696 OFFCURVE",
"779 698 OFFCURVE",
"730 698 CURVE SMOOTH",
"710 698 OFFCURVE",
"687 698 OFFCURVE",
"662 697 CURVE SMOOTH",
"605 696 OFFCURVE",
"538 694 OFFCURVE",
"494 692 CURVE SMOOTH",
"422 689 LINE",
"421 668 OFFCURVE",
"419 648 OFFCURVE",
"418 627 CURVE",
"412 636 OFFCURVE",
"405 645 OFFCURVE",
"396 653 CURVE",
"354 685 OFFCURVE",
"298 701 OFFCURVE",
"242 701 CURVE SMOOTH",
"194 701 OFFCURVE",
"147 691 OFFCURVE",
"107 671 CURVE",
"98 666 OFFCURVE",
"91 660 OFFCURVE",
"84 653 CURVE",
"43 606 OFFCURVE",
"32 542 OFFCURVE",
"31 482 CURVE",
"29 452 OFFCURVE",
"28 422 OFFCURVE",
"28 392 CURVE SMOOTH",
"28 317 OFFCURVE",
"33 242 OFFCURVE",
"36 168 CURVE SMOOTH",
"37 129 OFFCURVE",
"41 90 OFFCURVE",
"60 57 CURVE",
"84 4 OFFCURVE",
"137 -8 OFFCURVE",
"192 -13 CURVE SMOOTH",
"203 -14 OFFCURVE",
"213 -14 OFFCURVE",
"223 -14 CURVE SMOOTH"
);
},
{
closed = 1;
nodes = (
"195 88 OFFCURVE",
"145 102 OFFCURVE",
"130 134 CURVE SMOOTH",
"116 163 OFFCURVE",
"111 236 OFFCURVE",
"109 319 CURVE SMOOTH",
"109 336 OFFCURVE",
"109 352 OFFCURVE",
"109 366 CURVE SMOOTH",
"109 408 OFFCURVE",
"110 438 OFFCURVE",
"112 454 CURVE SMOOTH",
"119 504 OFFCURVE",
"122 549 OFFCURVE",
"159 570 CURVE SMOOTH",
"189 587 OFFCURVE",
"211 593 OFFCURVE",
"234 593 CURVE SMOOTH",
"242 593 OFFCURVE",
"249 592 OFFCURVE",
"257 591 CURVE SMOOTH",
"310 585 OFFCURVE",
"358 570 OFFCURVE",
"362 516 CURVE SMOOTH",
"365 471 LINE",
"371 418 LINE",
"371 309 LINE",
"368 262 LINE SMOOTH",
"366 233 OFFCURVE",
"366 212 OFFCURVE",
"365 202 CURVE SMOOTH",
"358 128 OFFCURVE",
"328 98 OFFCURVE",
"240 93 CURVE SMOOTH"
);
}
);
width = 831;
},
{
hints = (
{
horizontal = 1;
place = "{45, 280}";
type = Stem;
},
{
horizontal = 1;
place = "{367, 73.58}";
type = Stem;
},
{
place = "{28.25, 782.75}";
type = Stem;
},
{
place = "{73, 335}";
type = Stem;
}
);
layerId = "DF1E66B1-3A9E-4773-904B-B575E660C115";
paths = (
{
closed = 1;
nodes = (
"211 -14 OFFCURVE",
"231 -14 OFFCURVE",
"250 -13 CURVE SMOOTH",
"269 -12 OFFCURVE",
"287 -8 OFFCURVE",
"306 -3 CURVE SMOOTH",
"327 2 OFFCURVE",
"346 10 OFFCURVE",
"365 20 CURVE SMOOTH",
"383 29 OFFCURVE",
"398 42 OFFCURVE",
"409 58 CURVE",
"413 65 OFFCURVE",
"417 72 OFFCURVE",
"420 79 CURVE",
"421 54 OFFCURVE",
"421 30 OFFCURVE",
"421 5 CURVE",
"465 2 OFFCURVE",
"508 0 OFFCURVE",
"551 0 CURVE SMOOTH",
"571 0 OFFCURVE",
"591 0 OFFCURVE",
"611 1 CURVE SMOOTH",
"620 1 OFFCURVE",
"624 2 OFFCURVE",
"624 2 CURVE SMOOTH",
"624 2 OFFCURVE",
"606 3 OFFCURVE",
"606 3 CURVE SMOOTH",
"606 3 OFFCURVE",
"640 3 OFFCURVE",
"806 3 CURVE",
"808 41 LINE",
"792 41 OFFCURVE",
"775 40 OFFCURVE",
"759 40 CURVE SMOOTH",
"731 40 OFFCURVE",
"703 41 OFFCURVE",
"676 43 CURVE SMOOTH",
"645 44 OFFCURVE",
"598 45 OFFCURVE",
"537 45 CURVE SMOOTH",
"514 45 OFFCURVE",
"490 45 OFFCURVE",
"463 45 CURVE",
"464 104 OFFCURVE",
"465 152 OFFCURVE",
"465 190 CURVE SMOOTH",
"465 204 OFFCURVE",
"465 217 OFFCURVE",
"465 228 CURVE SMOOTH",
"464 269 OFFCURVE",
"465 300 OFFCURVE",
"468 319 CURVE",
"471 322 OFFCURVE",
"492 324 OFFCURVE",
"529 325 CURVE SMOOTH",
"566 326 OFFCURVE",
"590 326 OFFCURVE",
"602 325 CURVE SMOOTH",
"605 325 OFFCURVE",
"608 325 OFFCURVE",
"611 325 CURVE SMOOTH",
"617 325 OFFCURVE",
"622 325 OFFCURVE",
"625 326 CURVE SMOOTH",
"629 327 OFFCURVE",
"644 330 OFFCURVE",
"671 329 CURVE",
"671 335 LINE SMOOTH",
"671 342 OFFCURVE",
"671 352 OFFCURVE",
"670 365 CURVE",
"649 366 OFFCURVE",
"629 366 OFFCURVE",
"608 366 CURVE SMOOTH",
"587 366 OFFCURVE",
"539 367 OFFCURVE",
"463 368 CURVE",
"460 378 OFFCURVE",
"459 395 OFFCURVE",
"459 421 CURVE SMOOTH",
"459 444 OFFCURVE",
"460 473 OFFCURVE",
"462 509 CURVE SMOOTH",
"466 585 OFFCURVE",
"469 633 OFFCURVE",
"467 652 CURVE",
"548 656 OFFCURVE",
"598 657 OFFCURVE",
"620 657 CURVE SMOOTH",
"642 657 OFFCURVE",
"664 657 OFFCURVE",
"686 657 CURVE",
"708 656 OFFCURVE",
"729 657 OFFCURVE",
"749 658 CURVE",
"810 657 LINE",
"811 695 LINE SMOOTH",
"811 696 OFFCURVE",
"804 696 OFFCURVE",
"791 697 CURVE SMOOTH",
"778 698 OFFCURVE",
"760 698 OFFCURVE",
"738 698 CURVE SMOOTH",
"716 698 OFFCURVE",
"691 698 OFFCURVE",
"662 697 CURVE SMOOTH",
"633 696 OFFCURVE",
"604 696 OFFCURVE",
"573 695 CURVE SMOOTH",
"542 694 OFFCURVE",
"516 694 OFFCURVE",
"494 693 CURVE SMOOTH",
"472 692 OFFCURVE",
"448 690 OFFCURVE",
"422 689 CURVE",
"421 668 OFFCURVE",
"419 648 OFFCURVE",
"418 627 CURVE",
"412 636 OFFCURVE",
"405 645 OFFCURVE",
"396 653 CURVE",
"377 668 OFFCURVE",
"355 679 OFFCURVE",
"331 687 CURVE",
"300 696 OFFCURVE",
"269 700 OFFCURVE",
"238 700 CURVE SMOOTH",
"218 700 OFFCURVE",
"198 699 OFFCURVE",
"179 695 CURVE SMOOTH",
"153 690 OFFCURVE",
"129 682 OFFCURVE",
"107 671 CURVE",
"98 666 OFFCURVE",
"91 660 OFFCURVE",
"84 653 CURVE",
"63 630 OFFCURVE",
"50 603 OFFCURVE",
"43 573 CURVE SMOOTH",
"36 542 OFFCURVE",
"32 512 OFFCURVE",
"31 482 CURVE SMOOTH",
"29 451 OFFCURVE",
"28 421 OFFCURVE",
"28 390 CURVE SMOOTH",
"28 369 OFFCURVE",
"29 347 OFFCURVE",
"30 325 CURVE SMOOTH",
"32 272 OFFCURVE",
"34 220 OFFCURVE",
"36 168 CURVE SMOOTH",
"37 149 OFFCURVE",
"39 130 OFFCURVE",
"42 111 CURVE SMOOTH",
"45 92 OFFCURVE",
"51 74 OFFCURVE",
"60 57 CURVE",
"66 44 OFFCURVE",
"74 33 OFFCURVE",
"83 25 CURVE",
"92 16 OFFCURVE",
"103 9 OFFCURVE",
"115 4 CURVE SMOOTH",
"126 -1 OFFCURVE",
"139 -5 OFFCURVE",
"152 -8 CURVE",
"165 -10 OFFCURVE",
"178 -12 OFFCURVE",
"192 -13 CURVE SMOOTH"
);
},
{
closed = 1;
nodes = (
"181 21 OFFCURVE",
"157 26 OFFCURVE",
"141 36 CURVE SMOOTH",
"120 49 OFFCURVE",
"107 62 OFFCURVE",
"100 75 CURVE",
"93 97 OFFCURVE",
"88 120 OFFCURVE",
"83 145 CURVE SMOOTH",
"78 169 OFFCURVE",
"75 224 OFFCURVE",
"73 311 CURVE SMOOTH",
"73 332 OFFCURVE",
"73 351 OFFCURVE",
"73 369 CURVE SMOOTH",
"73 426 OFFCURVE",
"74 465 OFFCURVE",
"77 486 CURVE",
"80 514 OFFCURVE",
"85 541 OFFCURVE",
"90 566 CURVE",
"98 594 OFFCURVE",
"114 617 OFFCURVE",
"137 635 CURVE",
"186 657 OFFCURVE",
"227 666 OFFCURVE",
"262 663 CURVE SMOOTH",
"297 659 OFFCURVE",
"321 654 OFFCURVE",
"334 649 CURVE",
"349 642 OFFCURVE",
"364 630 OFFCURVE",
"377 615 CURVE SMOOTH",
"390 600 OFFCURVE",
"397 583 OFFCURVE",
"398 564 CURVE",
"399 553 OFFCURVE",
"400 541 OFFCURVE",
"401 528 CURVE",
"402 507 LINE",
"408 439 LINE",
"408 300 LINE SMOOTH",
"408 299 OFFCURVE",
"407 279 OFFCURVE",
"406 241 CURVE SMOOTH",
"404 202 OFFCURVE",
"403 176 OFFCURVE",
"402 163 CURVE SMOOTH",
"401 149 OFFCURVE",
"399 138 OFFCURVE",
"398 129 CURVE SMOOTH",
"397 120 OFFCURVE",
"395 112 OFFCURVE",
"392 107 CURVE SMOOTH",
"389 102 OFFCURVE",
"386 97 OFFCURVE",
"383 92 CURVE SMOOTH",
"380 87 OFFCURVE",
"376 80 OFFCURVE",
"370 72 CURVE",
"360 61 OFFCURVE",
"348 51 OFFCURVE",
"333 42 CURVE SMOOTH",
"318 33 OFFCURVE",
"288 26 OFFCURVE",
"242 22 CURVE SMOOTH",
"231 21 OFFCURVE",
"222 21 OFFCURVE",
"212 21 CURVE SMOOTH"
);
}
);
width = 830;
}
);
leftKerningGroup = KO_O;
note = OE;
rightKerningGroup = KO_E;
unicode = 0152;
},
